<?xml version="1.0" encoding="utf-8"?>
<!-- Generator: Adobe Illustrator 16.0.0, SVG Export Plug-In . SVG Version: 6.00 Build 0)  -->
<!DOCTYPE svg PUBLIC "-//W3C//DTD SVG 1.1//EN" "http://www.w3.org/Graphics/SVG/1.1/DTD/svg11.dtd">
<svg version="1.1" id="Layer_1" xmlns="http://www.w3.org/2000/svg" xmlns:xlink="http://www.w3.org/1999/xlink" x="0px" y="0px"
	 width="400px" height="400px" viewBox="0 0 400 400" enable-background="new 0 0 400 400" xml:space="preserve">
<circle fill="#FFFFFF" cx="199.592" cy="200.624" r="199.949"/>
<g>
	<path fill="#00AFD8" d="M233.681,233.813c9.992-10.147,17.393-23.776,21.797-36.821c6.032-2.481,10.953-8.637,12.831-16.114
		c1.731-6.886,5.765-23.023-3.105-27.995v-11.528c0.601-20.447-1.769-45.261-25.241-55.405c-1.859-4.926-2.249-9.256-2.313-10.08
		l-2.007-20.303l-14.434,13.605c-4.719,4.445-26.451,8.734-40.366,10.117l-6.638,1.032c-42.633,6.699-42.036,28.329-41.392,51.274
		c0.079,2.983,0.161,6.129,0.161,9.491l0.314,10.424c-6.379,4.218-7.854,14.209-4.255,28.962
		c1.828,7.341,7.013,13.548,12.638,15.242c2.713,7.513,10.042,25.017,22.806,38.098c-53.102,13.397-92.153,56.646-92.153,107.958
		v4.735h253.506v-4.735C325.849,290.496,286.786,247.21,233.681,233.813z M264.304,337.07v-24.776c0-2.629-2.107-4.737-4.735-4.737
		c-2.611,0-4.738,2.108-4.738,4.737v24.776H143.359v-24.776c0-2.629-2.123-4.737-4.738-4.737c-2.614,0-4.737,2.108-4.737,4.737
		v24.776H81.95c1.835-35.436,24.28-66.176,56.982-83.42l56.687,64.377c0.897,1.002,2.192,1.592,3.552,1.592c0.009,0,0.018,0,0.028,0
		c1.388,0,2.666-0.609,3.563-1.645l55.474-64.86c33.252,17.133,56.14,48.13,58.011,83.918h-51.941V337.07z M188.958,248.533
		l-6.275,5.356l10.262,8.826l-7.484,29.407l-37.651-42.738c8.1-3.48,16.705-6.152,25.707-7.939
		C178.127,244.676,183.265,247.137,188.958,248.533z M224.613,241.483c8.642,1.683,16.895,4.228,24.693,7.496l-37.682,44.013
		l-7.69-30.265l10.26-8.838l-5.975-5.126C214.158,247.47,219.617,244.915,224.613,241.483z M149.479,188.336
		c-3.641,0.777-9.304-3.571-10.964-10.232c-1.704-6.778-2.823-17.727,0.873-18.749c1.087-0.314,2.226-0.075,3.364,0.518v-18.813
		c0-29.606-6.681-46.981,39.534-51.926l-0.408-0.144c0,0,36.444-3.664,46.028-12.711c0,0,0.259,7.627,4.164,16
		c21.317,8.563,24,28.306,23.39,48.77v18.824c1.108-0.593,2.257-0.851,3.357-0.545c3.683,1.012,1.722,12.411,0.018,19.165
		c-1.656,6.583-6.409,10.506-10.036,9.825c-4.7,14.303-13.97,32.432-27.081,43.007c-1.851,1.481-3.746,2.841-5.746,3.989
		c-3.126,1.802-6.457,3.097-9.945,3.896c-2.239,0.507-4.533,0.842-6.92,0.842c-2.423,0-4.738-0.335-7.005-0.842
		c-3.524-0.778-6.873-2.073-10.019-3.86c-2.004-1.164-3.928-2.525-5.774-3.997C163.265,220.927,154.187,202.973,149.479,188.336z"/>
</g>
</svg>
