<?xml version="1.0" encoding="utf-8"?>
<!-- Generator: Adobe Illustrator 16.0.0, SVG Export Plug-In . SVG Version: 6.00 Build 0)  -->
<!DOCTYPE svg PUBLIC "-//W3C//DTD SVG 1.1//EN" "http://www.w3.org/Graphics/SVG/1.1/DTD/svg11.dtd">
<svg version="1.1" id="Layer_1" xmlns="http://www.w3.org/2000/svg" xmlns:xlink="http://www.w3.org/1999/xlink" x="0px" y="0px"
	 width="400px" height="400px" viewBox="0 0 400 400" enable-background="new 0 0 400 400" xml:space="preserve">
<g>
	<g>
		<polygon fill="#110239" points="230.134,332.982 168.889,332.982 173.921,259.15 225.102,259.15 		"/>
		<path fill="#110239" d="M238.162,321.161c-0.744-1.106-1.991-1.772-3.325-1.772h-33.918h-2.813h-33.918
			c-1.336,0-2.583,0.666-3.327,1.772l-9.252,13.807c-1.782,2.658,0.124,6.231,3.325,6.231h43.172h2.813h43.17
			c3.201,0,5.108-3.573,3.325-6.231L238.162,321.161z"/>
		<path fill="#110239" d="M349.469,278.779H49.554c-9.521,0-17.238-7.717-17.238-17.236V71.862c0-9.52,7.717-17.238,17.238-17.238
			h299.915c9.521,0,17.237,7.718,17.237,17.238v189.681C366.706,271.063,358.988,278.779,349.469,278.779z"/>
		<rect x="47.712" y="69.477" fill="#007CFF" width="303.599" height="192.132"/>
	</g>
	<g>
		<path fill="#616161" d="M311.641,318.634c-35.271-6.536-76.396-14.286-76.508-0.629c-0.105,12.908,15.526,22.917,29.031,29.312
			c7.316-2.793,15.578-3.32,23.393-4.53c13.817-2.136,27.376,0.073,41.208,0.046c14.418-5.915,22.044-16.313,22.044-16.313
			S338.822,323.675,311.641,318.634z"/>
		<path fill="#00BAD1" d="M281.936,343.116c1.119,0.575-12.367,6.948-11.291,7.483c5.771,1.812,62.608,2.137,67.817,0.795
			c9.008-2.318-16.703-13.498-7.723-15.365c14.768-10.443,23.065-24.11,15.068-25.816c-9.02-1.923-23.112,2.829-32.23,3.781
			c-6.946,0.727-10.97,1.193-17.565-1.105l-22.197-2.447c-22.756,4.523-27.441,12.713-27.681,12.604
			c0,3.246,16.601,9.935,31.48,17.817C279.113,341.371,280.559,342.109,281.936,343.116z"/>
		<path opacity="0.32" fill="#00547A" enable-background="new    " d="M281.936,343.116c1.119,0.575-12.367,6.948-11.291,7.483
			c5.771,1.812,62.608,2.137,67.817,0.795c9.008-2.318-16.703-13.498-7.723-15.365c14.768-10.443,23.065-24.11,15.068-25.816
			c-9.02-1.923-23.112,2.829-32.23,3.781c-6.946,0.727-10.97,1.193-17.565-1.105l-22.197-2.447
			c-22.756,4.523-27.441,12.713-27.681,12.604c0,3.246,16.601,9.935,31.48,17.817C279.113,341.371,280.559,342.109,281.936,343.116z
			"/>
		<path d="M273.451,334.383l7.217,9.771c0,0-7.835,5.474-10.023,6.445c-2.188,0.973-19.893,1.692-24.529-1.867
			c-4.159-3.188-5.59-7.373-3.458-9.347c2.715-2.516,9.274-3.315,12.546-3.749C262.398,334.688,273.451,334.383,273.451,334.383z"/>
		<path fill="#00BAD1" d="M269.086,334.739l4.158,14.729c0,0,69.881-1.039,77.185-11.766c9.372-9.68,13.168-28.706-5.72-29.089
			c-2.851-0.06-7.439,0.852-12.184,2.448C306.893,319.705,269.086,334.739,269.086,334.739z"/>
		<path opacity="0.32" fill="#00547A" enable-background="new    " d="M346.309,333.74c-4.36,0-8.002-2.18-11.58-4.344
			c-4.483-2.711-9.38-4.5-14.475-5.683c-4.417-1.024-9.035-2.573-12.579-3.782c-20.313,6.59-38.589,14.808-38.589,14.808
			l3.26,11.547c1.781,0.428,3.572,0.887,5.355,1.375c2.132,0.196,4.275,0.437,6.342,0.993c0.439,0.119,0.883,0.205,1.328,0.279
			c20.079-1.096,60.542-4.207,65.91-12.088c0.852-1.256,2.633-3.436,3.265-4.865C352.962,332.564,348.268,333.74,346.309,333.74z"/>
		<path d="M329.256,335.273l-6.057,7.678c0,0,9.887,6.017,11.942,7.01c2.058,0.994,16.345,1.662,20.875-1.592
			c4.063-2.916,5.559-6.862,3.582-8.811c-2.514-2.482-8.745-3.444-11.851-3.957C340.909,334.477,329.256,335.273,329.256,335.273z"
			/>
		<path fill="#00BAD1" d="M336.273,333.374l-6.221,17.209c0,0-85.826-6.76-92.808-18.742c-4.173-7.163-4.779-18.306,4.214-22.276
			c5.53-2.443,13.354-3.701,24.479,0.127C293.605,319.213,336.273,333.374,336.273,333.374z"/>
		<path fill="#E45940" d="M302.538,219.227h-6.077h-6.074c0,0-1.75,16.556-4.92,18.523c0,0-3.91,19.555,10.994,19.555
			c18.04,0,10.997-19.555,10.997-19.555C304.288,235.781,302.538,219.227,302.538,219.227z"/>
		<g>
			<path fill="#F88667" d="M312.263,222.466c-1.685-1.937-3.707,1.013-3.707,1.013s2.779-10.947,0-15.746
				c-2.778-4.801-11.786-2.272-11.786-2.272s-9.011-2.526-11.789,2.272s0,15.746,0,15.746s-2.021-2.947-3.703-1.013
				c-1.687,1.938,2.777,6.82,3.787,7.411c0,0,6.484,12.126,11.705,12.126s11.703-12.126,11.703-12.126
				C309.483,229.286,313.945,224.404,312.263,222.466z"/>
			<path fill="#110239" d="M294.502,209.794c0,0-6.82,1.201-7.577,4.862c-0.368,1.779,0.036,3.709,0.363,5.463
				c0.173,0.93,0.827,5.912,0.583,6.033c-0.242,0.119-0.701-0.008-0.885-0.152c-0.924-0.729-1.646-1.824-2.305-2.786
				c-1.298-1.896-3.158-1.578-3.695-0.378c0,0-1.516-17.968,6-18.6C294.502,203.605,294.502,209.794,294.502,209.794z"/>
			<path fill="#110239" d="M298.941,209.794c0,0,6.82,1.201,7.576,4.862c0.368,1.779-0.035,3.709-0.362,5.463
				c-0.173,0.93-0.829,5.912-0.583,6.033c0.24,0.119,0.701-0.008,0.885-0.152c0.924-0.729,1.646-1.824,2.305-2.786
				c1.297-1.896,3.158-1.578,3.694-0.378c0,0,1.517-17.968-5.999-18.6C298.941,203.605,298.941,209.794,298.941,209.794z"/>
			<path fill="#110239" d="M308.967,205.3c0,0,0.16-2.957-3.205-4.788c-3.365-1.832-10.06-2.653-15.365,0
				c-5.303,2.652-6.914,3.254-8.461,2.368c-1.549-0.886-0.567-1.769-0.567-1.769s-3.476-0.032-3.306,5.355
				c0.168,5.389,6.795,12.083,15.449,12.083C306.732,218.551,311.01,209.311,308.967,205.3z"/>
		</g>
		<path fill="#D0D1DE" d="M307.458,237.75c-0.639,16.624-10.999,14.909-10.999,14.909s-10.354,1.715-10.992-14.909
			c0,0-16.541,4.572-24.607,9.979c0,0,3.434,14.523,3.652,30.639l9.456,36.627l22.491-4.102l22.494,4.102l9.455-36.627
			c0.217-16.114,3.651-30.639,3.651-30.639C323.993,242.322,307.458,237.75,307.458,237.75z"/>
		<path fill="#B8B9CD" d="M326.781,257.333c-10.282,5.481-15.282,18.088-25.268,24.267c-10.332,6.392-17.644-6.521-22.668-13.235
			c-4.337-5.794-9.834-10.453-16.537-13.164c0.967,5.753,2.08,14.209,2.201,23.167l9.457,36.627l22.491-2.755l22.494,2.755
			l9.455-36.627c0.12-8.781,1.191-17.069,2.146-22.813C329.244,256.119,327.971,256.698,326.781,257.333z"/>
		<path fill="#D0D1DE" d="M260.857,247.729c0,0-18.746,44.026-18.969,50.092c-0.43,11.744,25.256,16.496,36.967,14.341l4.768-0.879
			C283.623,311.281,266.238,247.411,260.857,247.729z"/>
		<path fill="#D0D1DE" d="M332.021,247.729c0,0,18.927,44.022,18.969,50.092c0.078,11.875-25.254,16.496-36.968,14.341l-4.767-0.879
			C309.257,311.281,326.643,247.411,332.021,247.729z"/>
		<path fill="#B8B9CD" d="M268.833,263.189c-0.031,2.037-0.265,4.175-0.782,6.457c-1.811,7.987-4.658,16.326-1.67,24.438
			c2.262,6.138,5.889,12.37,9.232,18.263c1.158,0.045,2.25-0.006,3.242-0.188l4.768-0.879
			C283.623,311.281,275.65,282.003,268.833,263.189z"/>
		<path fill="#B8B9CD" d="M320.837,311.934c1.491-3.709,2.405-7.613,2.264-11.777c-0.272-8.162-0.316-16.326-0.188-24.492
			c0.057-3.53,0.149-6.949,0.354-10.296c-6.63,18.809-14.01,45.914-14.01,45.914l4.767,0.879
			C315.982,312.521,318.315,312.393,320.837,311.934z"/>
		<g>
			<rect x="266.986" y="311.789" fill="#110239" width="58.951" height="3.493"/>
			<path fill="#110239" d="M334.604,270.919h-76.285c0,0-4.119,0-3.412,4.593c0.703,4.596,10.32,36.727,12.261,36.727
				c3.606,0,29.294,0,29.294,0s25.688,0,29.298,0c1.704,0,11.558-32.131,12.263-36.727
				C338.726,270.919,334.604,270.919,334.604,270.919z"/>
			<circle fill="#FFFFFF" cx="296.462" cy="293.162" r="3.157"/>
		</g>
	</g>
	<g>
		<circle fill="#50ACFF" cx="199.512" cy="165.542" r="45.398"/>
	</g>
</g>
<polygon fill="#FFFFFF" points="199.62,128.645 210.158,149.999 233.725,153.423 216.672,170.045 220.697,193.515 199.62,182.434 
	178.542,193.515 182.568,170.045 165.516,153.423 189.082,149.999 "/>
</svg>
