<svg xmlns="http://www.w3.org/2000/svg" viewBox="0 0 500 500"><g id="Shadow--inject-72"><ellipse id="path--inject-72" cx="245" cy="416.24" rx="193.89" ry="11.32" style="fill:#f5f5f5"></ellipse></g><g id="Device--inject-72"><polygon points="310.82 134.72 310.82 243.81 214.19 243.81 214.19 108.97 285.06 108.97 310.82 134.72" style="fill:#1E8FC7"></polygon><polygon points="310.82 134.72 310.82 243.81 214.19 243.81 214.19 108.97 285.06 108.97 310.82 134.72" style="fill:#fff;opacity:0.8"></polygon><rect x="214.19" y="181.83" width="96.63" height="6.59" style="fill:#1E8FC7;opacity:0.2"></rect><polygon points="310.82 134.72 285.06 134.72 285.06 108.97 310.82 134.72" style="fill:#1E8FC7"></polygon><path d="M283.57,330.49H213.34s4.41,57.83-8.51,81.27h87.24C279.16,388.32,283.57,330.49,283.57,330.49Z" style="fill:#1E8FC7"></path><path d="M284.94,386.81c-3.71-25.71-1.37-56.32-1.37-56.32H213.34s2.1,27.56-.85,52.34Z" style="opacity:0.2"></path><path d="M302.21,409.73H194.7a3.61,3.61,0,0,0-3.6,3.6H305.81A3.61,3.61,0,0,0,302.21,409.73Z" style="fill:#1E8FC7"></path><rect x="402.5" y="298.79" width="1.03" height="7.04" style="fill:#1E8FC7"></rect><rect x="402.5" y="272.26" width="1.03" height="20.18" style="fill:#1E8FC7"></rect><rect x="96.99" y="186.78" width="302.93" height="189.03" rx="7.07" style="fill:#1E8FC7"></rect><rect x="101.45" y="191.32" width="294" height="139.17" rx="5.39" style="fill:#fff"></rect><path d="M97,335v33.72a7.09,7.09,0,0,0,7.07,7.07H392.85a7.09,7.09,0,0,0,7.07-7.07V335Z" style="fill:#fff;opacity:0.9"></path><circle cx="248.45" cy="355.42" r="6.81" style="fill:#1E8FC7;opacity:0.5"></circle><path d="M177.37,166.15V264.6h98.45ZM199,218.39,223.58,243H199Z" style="fill:#1E8FC7;opacity:0.4"></path><path d="M290.19,280.3v20.26a12.4,12.4,0,0,0,12.36,12.37H374a12.41,12.41,0,0,0,12.37-12.37V229.12A12.4,12.4,0,0,0,374,216.76H302.55a12.39,12.39,0,0,0-12.36,12.36v22.21" style="fill:#fff"></path><path d="M374,313.44h-4v-1h4.11l0,1Zm-8.08,0h-4.12v-1h4.12Zm-8.25,0h-4.12v-1h4.12Zm-8.24,0H345.3v-1h4.12Zm-8.24,0h-4.12v-1h4.12Zm-8.24,0h-4.13v-1h4.13Zm-8.25,0h-4.12v-1h4.12Zm-8.24,0h-4.12v-1h4.12Zm-8.24,0h-4.13v-1h4.13Zm-8.33-.28a12.8,12.8,0,0,1-4-1.58l.54-.88a11.53,11.53,0,0,0,3.65,1.45Zm78.48-.49-.35-1a12,12,0,0,0,3.42-1.94l.65.8A12.79,12.79,0,0,1,378.36,312.67Zm-85.69-3.87a12.82,12.82,0,0,1-2.16-3.69l1-.36a12,12,0,0,0,2,3.39Zm92.24-1.43-.87-.55a11.67,11.67,0,0,0,1.5-3.63l1,.23A12.67,12.67,0,0,1,384.91,307.37Zm-95.23-6.45c0-.12,0-.24,0-.36v-3.77h1v4.1Zm97.19-1.71h-1v-4.12h1Zm-96.17-6.55h-1v-4.12h1ZM386.87,291h-1v-4.12h1Zm-96.17-6.55h-1V280.3h1Zm96.17-1.7h-1V278.6h1Zm0-8.24h-1v-4.12h1Zm0-8.24h-1v-4.12h1Zm0-8.24h-1v-4.13h1Zm-96.17-7.28h-1v-4.13h1Zm96.17-1h-1v-4.12h1Zm-96.17-7.28h-1v-4.12h1Zm96.17-1h-1v-4.12h1Zm-96.17-7.28h-1v-4.12h1Zm96.17-1h-1v-4.13h1Zm-95.79-7.12-1-.26a12.59,12.59,0,0,1,1.76-3.9l.85.58A11.66,11.66,0,0,0,291.08,226.15Zm94.11-.88a11.5,11.5,0,0,0-1.89-3.45l.81-.64a12.86,12.86,0,0,1,2.06,3.75Zm-89.8-5.57-.63-.82a13,13,0,0,1,3.78-2l.32,1A12.06,12.06,0,0,0,295.39,219.7Zm85-.53a11.7,11.7,0,0,0-3.61-1.56l.25-1A12.87,12.87,0,0,1,381,218.3Zm-7.58-1.9H368.7v-1h4.12Zm-8.24,0h-4.12v-1h4.12Zm-8.24,0h-4.13v-1h4.13Zm-8.25,0H344v-1h4.12Zm-8.24,0h-4.12v-1h4.12Zm-8.24,0h-4.13v-1h4.13Zm-8.25,0h-4.12v-1h4.12Zm-8.24,0H311v-1h4.12Zm-8.24,0h-4.12v-1h4.12Z" style="fill:#1E8FC7"></path><path d="M290.36,266.87V254.31A24.85,24.85,0,0,0,288,264.65l1.69,1.69v1.21l-2.51,2.51a1.22,1.22,0,0,0-.33-.9c-.6-.61-1.85-.34-2.78.59s-1.2,2.17-.59,2.78,1.85.34,2.78-.59h0l3.43-3.43V274h0c0,1.32.69,2.39,1.54,2.39s1.55-1.07,1.55-2.39-.69-2.38-1.55-2.38a1.19,1.19,0,0,0-.86.41v-4.17l1.29-1.29H294a24.77,24.77,0,0,0,5.63-9Zm-4.42,4.76c-.66.67-1.56.86-2,.43s-.24-1.33.43-2,1.56-.86,2-.43S286.62,271,285.94,271.63Zm5.28.63c.62,0,1.12.76,1.12,1.71s-.5,1.72-1.12,1.72-1.11-.77-1.11-1.72S290.61,272.26,291.22,272.26Z" style="fill:#1E8FC7"></path><path d="M251.63,289.93h0a6.11,6.11,0,0,1,0-8.6l3.86-3.86a6.1,6.1,0,0,1,8.61,0h0a6.09,6.09,0,0,1,0,8.6l-3.86,3.86A6.1,6.1,0,0,1,251.63,289.93Z" style="fill:#263238"></path><path d="M232.11,316.75l23.68-23.68-7.29-7.29-23.68,23.68a1.87,1.87,0,0,0-.36,2.15h0a1.79,1.79,0,0,1,0,1.64,2.83,2.83,0,0,0,.48,3.36,2.86,2.86,0,0,0,3.37.49,1.79,1.79,0,0,1,1.64,0h0A1.86,1.86,0,0,0,232.11,316.75Z" style="fill:#fff"></path><path d="M227,318.47a3.87,3.87,0,0,1-3.41-5.71.74.74,0,0,0,0-.69,2.91,2.91,0,0,1,.55-3.34l23.68-23.68a1,1,0,0,1,1.46,0l7.28,7.29a1,1,0,0,1,0,1.46l-23.68,23.68h0a2.89,2.89,0,0,1-3.33.55.77.77,0,0,0-.69,0A3.79,3.79,0,0,1,227,318.47Zm21.53-31.23-22.95,22.95a.82.82,0,0,0-.16,1,2.82,2.82,0,0,1,0,2.59,1.81,1.81,0,0,0,2.45,2.45,2.82,2.82,0,0,1,2.59,0,.84.84,0,0,0,1-.16h0l23-22.95Z" style="fill:#1E8FC7"></path><path d="M246.57,281.88h0a3,3,0,0,1,4.23,0l8.89,8.89a3,3,0,0,1,0,4.22h0a3,3,0,0,1-4.22,0l-8.9-8.89A3,3,0,0,1,246.57,281.88Z" style="fill:#263238"></path></g><g id="pen-tool--inject-72"><rect x="334.35" y="176.78" width="26.47" height="13.96" rx="1.77" transform="translate(231.74 -191.96) rotate(45)" style="fill:#263238"></rect><path d="M386.92,144.43l-32.26,32.26-5.44-5.45c4.71-4.71,2-15.7,2-15.7l8.95-8.95c14.48-2,45-23.67,45-23.67l1,1L387,143A1,1,0,0,0,386.92,144.43Z" style="fill:#1E8FC7"></path><path d="M384.75,171.2l-8.95,9s-11-2.74-15.7,2l-5.44-5.44,32.26-32.26a1,1,0,0,0,1.43-.11l19.12-19.12,1,1S386.78,156.73,384.75,171.2Z" style="fill:#1E8FC7"></path><path d="M384.75,171.2l-8.95,9s-11-2.74-15.7,2l-5.44-5.44,32.26-32.26a1,1,0,0,0,1.43-.11l19.12-19.12,1,1S386.78,156.73,384.75,171.2Z" style="fill:#fff;opacity:0.2"></path><path d="M412,189.89l-.58-.58a49.31,49.31,0,1,0-69.73-69.73l-.58-.58A50.13,50.13,0,1,1,412,189.89Z" style="fill:#1E8FC7"></path><rect x="411.34" y="56.28" width="0.82" height="126.01" transform="translate(36.25 326.09) rotate(-45)" style="fill:#1E8FC7"></rect><rect x="409.15" y="116.69" width="5.2" height="5.2" transform="translate(204.95 -256.22) rotate(45)" style="fill:#1E8FC7"></rect><path d="M411.75,123.63l-4.34-4.34,4.34-4.34,4.35,4.34Zm-3-4.34,3,3,3-3-3-3Z" style="fill:#1E8FC7"></path><rect x="338.84" y="116.69" width="5.2" height="5.2" transform="translate(184.35 -206.5) rotate(45)" style="fill:#fff"></rect><path d="M341.44,123.63l-4.34-4.34,4.34-4.34,4.34,4.34Zm-3-4.34,3,3,3-3-3-3Z" style="fill:#1E8FC7"></path><rect x="409.31" y="187.15" width="5.2" height="5.2" transform="translate(254.82 -235.69) rotate(45)" style="fill:#fff"></rect><path d="M411.91,194.09l-4.34-4.34,4.34-4.34,4.34,4.34Zm-3-4.34,3,3,3-3-3-3Z" style="fill:#1E8FC7"></path><path d="M458.3,165.83a2.6,2.6,0,1,1,0-3.68A2.61,2.61,0,0,1,458.3,165.83Z" style="fill:#fff"></path><path d="M456.46,167.06a3.07,3.07,0,1,1,2.17-.9A3.05,3.05,0,0,1,456.46,167.06Zm0-5.2a2.13,2.13,0,1,0,1.51.62A2.15,2.15,0,0,0,456.46,161.86Z" style="fill:#1E8FC7"></path><path d="M369,76.57a2.6,2.6,0,1,1,0-3.67A2.6,2.6,0,0,1,369,76.57Z" style="fill:#fff"></path><path d="M367.2,77.8a3.07,3.07,0,1,1,3.07-3.07,3,3,0,0,1-.9,2.17h0A3,3,0,0,1,367.2,77.8Zm0-5.2a2.1,2.1,0,0,0-1.5.63,2.13,2.13,0,0,0,3,3h0a2.13,2.13,0,0,0,.63-1.51,2.15,2.15,0,0,0-2.14-2.13Z" style="fill:#1E8FC7"></path></g><g id="color-palette--inject-72"><rect x="124.32" y="127.41" width="39.84" height="163.49" style="fill:#1E8FC7"></rect><rect x="124.32" y="127.41" width="39.84" height="163.49" style="fill:#fff;opacity:0.7000000000000001"></rect><rect x="127.3" y="135.2" width="33.89" height="15.57" style="fill:#263238;opacity:0.30000000000000004"></rect><rect x="127.3" y="154.03" width="33.89" height="15.57" style="fill:#263238;opacity:0.41666699999999995"></rect><rect x="127.3" y="172.86" width="33.89" height="15.57" style="fill:#263238;opacity:0.533333"></rect><rect x="127.3" y="191.7" width="33.89" height="15.57" style="fill:#263238;opacity:0.65"></rect><rect x="127.3" y="210.53" width="33.89" height="15.57" style="fill:#263238;opacity:0.766667"></rect><rect x="127.3" y="229.36" width="33.89" height="15.57" style="fill:#263238;opacity:0.8833329999999999"></rect><rect x="127.3" y="248.2" width="33.89" height="15.57" style="fill:#263238"></rect><rect x="110.57" y="139.35" width="39.84" height="163.49" transform="translate(-36.06 25.72) rotate(-9.9)" style="fill:#1E8FC7"></rect><rect x="110.57" y="139.35" width="39.84" height="163.49" transform="translate(-36.06 25.72) rotate(-9.9)" style="fill:#fff;opacity:0.8"></rect><rect x="102.17" y="148.12" width="33.89" height="15.57" transform="translate(-25.02 22.79) rotate(-9.9)" style="fill:#1E8FC7"></rect><rect x="105.41" y="166.68" width="33.89" height="15.57" transform="translate(-28.16 23.62) rotate(-9.9)" style="fill:#1E8FC7"></rect><rect x="108.65" y="185.23" width="33.89" height="15.57" transform="translate(-31.3 24.46) rotate(-9.9)" style="fill:#1E8FC7"></rect><rect x="111.88" y="203.78" width="33.89" height="15.57" transform="translate(-34.44 25.29) rotate(-9.9)" style="fill:#1E8FC7"></rect><rect x="115.12" y="222.34" width="33.89" height="15.57" transform="translate(-37.58 26.12) rotate(-9.9)" style="fill:#1E8FC7"></rect><rect x="118.36" y="240.89" width="33.89" height="15.57" transform="matrix(0.99, -0.17, 0.17, 0.99, -40.72, 26.95)" style="fill:#1E8FC7"></rect><rect x="121.59" y="259.44" width="33.89" height="15.57" transform="translate(-43.86 27.78) rotate(-9.9)" style="fill:#1E8FC7"></rect><rect x="102.17" y="148.12" width="33.89" height="15.57" transform="translate(-25.02 22.79) rotate(-9.9)" style="opacity:0.05"></rect><rect x="105.41" y="166.68" width="33.89" height="15.57" transform="translate(-28.16 23.62) rotate(-9.9)" style="opacity:0.1"></rect><rect x="108.65" y="185.23" width="33.89" height="15.57" transform="translate(-31.3 24.46) rotate(-9.9)" style="opacity:0.2"></rect><rect x="111.88" y="203.78" width="33.89" height="15.57" transform="translate(-34.44 25.29) rotate(-9.9)" style="opacity:0.3"></rect><rect x="115.12" y="222.34" width="33.89" height="15.57" transform="translate(-37.58 26.12) rotate(-9.9)" style="opacity:0.4"></rect><rect x="118.36" y="240.89" width="33.89" height="15.57" transform="matrix(0.99, -0.17, 0.17, 0.99, -40.72, 26.95)" style="opacity:0.5"></rect><rect x="121.59" y="259.44" width="33.89" height="15.57" transform="translate(-43.86 27.78) rotate(-9.9)" style="opacity:0.6"></rect><rect x="97.69" y="153.68" width="39.84" height="163.49" transform="translate(-73.1 54.08) rotate(-19.9)" style="fill:#1E8FC7"></rect><rect x="97.69" y="153.68" width="39.84" height="163.49" transform="translate(-73.1 54.08) rotate(-19.9)" style="fill:#fff;opacity:0.9"></rect><rect x="78.15" y="165.41" width="33.89" height="15.57" transform="translate(-53.27 42.7) rotate(-19.9)" style="fill:#1E8FC7"></rect><rect x="84.56" y="183.12" width="33.89" height="15.57" transform="translate(-58.91 45.94) rotate(-19.9)" style="fill:#1E8FC7"></rect><rect x="90.96" y="200.83" width="33.89" height="15.57" transform="translate(-64.56 49.18) rotate(-19.9)" style="fill:#1E8FC7"></rect><rect x="97.37" y="218.54" width="33.89" height="15.57" transform="translate(-70.2 52.42) rotate(-19.9)" style="fill:#1E8FC7"></rect><rect x="103.78" y="236.25" width="33.89" height="15.57" transform="translate(-75.84 55.65) rotate(-19.9)" style="fill:#1E8FC7"></rect><rect x="110.19" y="253.96" width="33.89" height="15.57" transform="translate(-81.49 58.89) rotate(-19.9)" style="fill:#1E8FC7"></rect><rect x="116.6" y="271.67" width="33.89" height="15.57" transform="translate(-87.13 62.13) rotate(-19.9)" style="fill:#1E8FC7"></rect><rect x="78.15" y="165.41" width="33.89" height="15.57" transform="translate(-53.27 42.7) rotate(-19.9)" style="fill:#fff;opacity:0.6"></rect><rect x="84.56" y="183.12" width="33.89" height="15.57" transform="translate(-58.91 45.94) rotate(-19.9)" style="fill:#fff;opacity:0.5"></rect><rect x="90.96" y="200.83" width="33.89" height="15.57" transform="translate(-64.56 49.18) rotate(-19.9)" style="fill:#fff;opacity:0.4"></rect><rect x="97.37" y="218.54" width="33.89" height="15.57" transform="translate(-70.2 52.42) rotate(-19.9)" style="fill:#fff;opacity:0.3"></rect><rect x="103.78" y="236.25" width="33.89" height="15.57" transform="translate(-75.84 55.65) rotate(-19.9)" style="fill:#fff;opacity:0.2"></rect><rect x="110.19" y="253.96" width="33.89" height="15.57" transform="translate(-81.49 58.89) rotate(-19.9)" style="fill:#fff;opacity:0.1"></rect></g></svg>
