<?xml version="1.0" encoding="utf-8"?>
<!-- Generator: Adobe Illustrator 16.0.0, SVG Export Plug-In . SVG Version: 6.00 Build 0)  -->
<!DOCTYPE svg PUBLIC "-//W3C//DTD SVG 1.1//EN" "http://www.w3.org/Graphics/SVG/1.1/DTD/svg11.dtd">
<svg version="1.1" id="Layer_1" xmlns="http://www.w3.org/2000/svg" xmlns:xlink="http://www.w3.org/1999/xlink" x="0px" y="0px"
	 width="400px" height="400px" viewBox="0 0 400 400" enable-background="new 0 0 400 400" xml:space="preserve">
<g>
	<g>
		<g>
			<path fill="#4CC1EC" d="M362.018,253.228v7.345c0,1.139-0.381,2.276-1.141,3.361c-0.757,1.057-1.896,2.06-3.387,2.952
				l-89.899,51.903l-89.901,51.903c-3.036,1.734-6.993,2.6-10.95,2.6c-3.958,0-7.914-0.865-10.95-2.6l-49.165-28.377l-49.192-28.352
				c-1.599-0.921-2.792-2.005-3.523-3.172c-0.759-1.164-1.057-2.384-0.976-3.603v-6.856l34.258-5.231L362.018,253.228z"/>
			<path fill="#0098CA" d="M155.791,363.345v7.348l-49.165-28.377l-49.192-28.352c-1.599-0.921-2.792-2.005-3.523-3.172
				c-0.759-1.164-1.057-2.384-0.976-3.603v-6.856l34.258-5.231l65.887,23.201L155.791,363.345z"/>
			<path fill="#26ADDB" d="M357.481,259.539L177.676,363.35c-6.041,3.488-15.835,3.488-21.875,0l-98.355-56.724
				c-6.042-3.488-6.042-9.142,0-12.631l179.806-103.81c6.041-3.488,15.835-3.488,21.876,0l98.354,56.723
				c3.021,1.746,4.532,4.031,4.532,6.316C362.014,255.511,360.503,257.796,357.481,259.539z"/>
			<path opacity="0.1" fill="#FFFFFF" d="M327.258,237.786L139.983,345.918c0,0-17.503-10.1-29.805-17.201
				c-12.317-7.087-24.62-14.19-33.854-19.521c-1.786-1.022-3.443-1.988-4.97-2.866l187.275-108.116
				c2.68,1.542,6.973,4.02,12.275,7.074C280.137,210.617,314.942,230.685,327.258,237.786z"/>
			<polygon opacity="0.1" fill="#FFFFFF" points="204.729,312.497 269.547,275.077 294.018,289.35 229.201,326.773 			"/>
			<polygon opacity="0.1" fill="#FFFFFF" points="64.364,294.165 237.233,194.364 247.846,200.609 74.979,300.415 			"/>
			<path fill="#26ADDB" d="M244.254,51.148l-2.927,3.658v112.803c0,7.263-5.881,16.505-13.118,20.679L56.296,287.539l-3.551,2.06
				c-0.135,0.082-0.271,0.136-0.407,0.218l-3.578,4.443l-6.016-3.522c-1.925-1.164-3.117-3.441-3.117-6.667V170.698
				c0-7.236,5.881-16.478,13.118-20.679L228.209,48.735c4.038-2.331,7.645-2.602,10.056-1.138L244.254,51.148z"/>
			<path fill="#0098CA" d="M77.3,197.937l-21.004,89.603l-3.551,2.06c-0.135,0.082-0.271,0.136-0.407,0.218l-3.578,4.443
				l-6.016-3.522c-1.925-1.164-3.117-3.441-3.117-6.667V170.698l10.407,5.828L77.3,197.937z"/>
			<path fill="#4CC1EC" d="M234.283,191.874L58.82,293.176c-7.24,4.182-13.109,1.7-13.109-5.54V174.283
				c0-7.241,5.869-16.499,13.109-20.678L234.283,52.301c7.239-4.18,13.108-1.7,13.108,5.541v113.354
				C247.392,178.436,241.522,187.693,234.283,191.874z"/>
			<path fill="#FFFEFF" d="M52.275,290.886c-0.727,0-2.242,0-2.242-3.25V174.283c0-5.655,5.116-13.569,10.948-16.937L236.444,56.042
				c1.62-0.935,3.178-1.45,4.383-1.45c0.728,0,2.243,0,2.243,3.25v113.354c0,5.656-5.115,13.569-10.947,16.937L56.66,289.436
				C55.038,290.369,53.481,290.886,52.275,290.886z"/>
		</g>
		<g>
			<path fill="#A7D0F9" d="M59.895,108.496v143.744l141.234-81.543V26.955L59.895,108.496z M75.606,118.84
				c-3.641,2.103-6.581,0.86-6.581-2.773c0-3.641,2.94-8.279,6.581-10.381c3.633-2.097,6.572-0.854,6.572,2.787
				C82.179,112.105,79.239,116.743,75.606,118.84z M103.053,102.995c-3.633,2.097-6.574,0.854-6.574-2.778
				c0-3.642,2.941-8.279,6.574-10.376c3.641-2.103,6.582-0.859,6.582,2.782C109.635,96.255,106.694,100.893,103.053,102.995z
				 M130.507,87.144c-3.634,2.097-6.582,0.86-6.582-2.773c0-3.641,2.948-8.284,6.582-10.381c3.641-2.103,6.581-0.86,6.581,2.781
				C137.088,80.404,134.148,85.042,130.507,87.144z M157.961,71.293c-3.633,2.097-6.581,0.86-6.581-2.773
				c0-3.641,2.948-8.284,6.581-10.381s6.582-0.86,6.582,2.782C164.543,64.553,161.594,69.196,157.961,71.293z M185.416,55.442
				c-3.632,2.097-6.581,0.859-6.581-2.773c0-3.642,2.949-8.284,6.581-10.381c3.633-2.097,6.582-0.86,6.582,2.781
				C191.998,48.702,189.048,53.345,185.416,55.442z"/>
			<path fill="#E1EDF9" d="M61.587,109.436v143.742l141.233-81.541V27.894L61.587,109.436z M77.299,119.781
				c-3.642,2.103-6.582,0.86-6.582-2.773c0-3.642,2.94-8.279,6.582-10.381c3.633-2.098,6.573-0.855,6.573,2.787
				C83.872,113.046,80.932,117.684,77.299,119.781z M104.744,103.936c-3.633,2.097-6.572,0.854-6.572-2.778
				c0-3.643,2.939-8.279,6.572-10.376c3.642-2.103,6.582-0.861,6.582,2.782C111.326,97.195,108.386,101.833,104.744,103.936z
				 M132.199,88.083c-3.633,2.098-6.582,0.861-6.582-2.772c0-3.642,2.949-8.284,6.582-10.381c3.643-2.103,6.582-0.861,6.582,2.781
				C138.781,81.344,135.841,85.982,132.199,88.083z M159.653,72.233c-3.632,2.097-6.582,0.86-6.582-2.773
				c0-3.642,2.95-8.284,6.582-10.381c3.633-2.098,6.582-0.861,6.582,2.782C166.235,65.493,163.286,70.135,159.653,72.233z
				 M187.108,56.383c-3.633,2.097-6.582,0.859-6.582-2.773c0-3.643,2.949-8.284,6.582-10.381c3.632-2.099,6.581-0.861,6.581,2.781
				C193.689,49.643,190.741,54.285,187.108,56.383z"/>
			<polygon fill="#FFFEFF" points="198.379,142.15 198.379,169.071 166.582,187.432 166.582,160.509 			"/>
			<polygon fill="#FFFEFF" points="198.379,114.669 198.379,139.077 166.582,157.437 166.582,133.029 			"/>
			<polygon fill="#FFFEFF" points="198.379,85.731 198.379,111.596 166.582,129.955 166.582,104.09 			"/>
			<polygon fill="#FFFEFF" points="198.379,59.174 198.379,82.658 166.582,101.017 166.582,77.533 			"/>
			<polygon fill="#FFFEFF" points="163.917,79.069 163.917,102.554 133.505,120.114 133.505,96.629 			"/>
			<polygon fill="#FFFEFF" points="97.772,200.239 97.772,227.152 66.028,245.484 66.028,218.571 			"/>
			<polygon fill="#FFFEFF" points="97.772,172.758 97.772,197.157 66.028,215.49 66.028,191.09 			"/>
			<polygon fill="#FFFEFF" points="97.772,143.82 97.772,169.685 66.028,188.008 66.028,162.152 			"/>
			<polygon fill="#FFFEFF" points="97.772,117.263 97.772,140.747 66.028,159.071 66.028,135.586 			"/>
			<polygon fill="#FFFEFF" points="130.841,98.166 130.841,121.651 100.437,139.201 100.437,115.727 			"/>
			<polygon fill="#FFFEFF" points="130.841,181.142 130.841,208.064 100.437,225.615 100.437,198.703 			"/>
			<polygon fill="#FFFEFF" points="163.917,162.046 163.917,188.968 133.505,206.527 133.505,179.605 			"/>
			<polygon fill="#A7D0F9" points="61.587,253.178 59.895,252.239 59.895,108.496 61.587,109.436 			"/>
			<polygon fill="#BBDAF9" points="202.82,27.892 81.482,97.953 77.619,100.182 68.417,105.494 64.554,107.723 61.587,109.438 
				59.89,108.496 63.665,106.32 67.529,104.09 76.58,98.859 80.479,96.612 201.125,26.959 			"/>
			<path fill="#0098CA" d="M81.482,97.953c-0.319-0.453-0.648-0.906-1.004-1.341c-1.767-2.247-3.917-4.202-6.27-5.561
				c-3.597-2.078-7.16-2.406-9.762-0.905c-2.282,1.324-3.544,3.828-3.544,7.052c0,2.913,1.04,6.137,2.762,9.122l3.864-2.229
				c-1.359-2.309-2.185-4.76-2.185-6.892c0-1.11,0.23-2.576,1.324-3.207c0.399-0.231,0.888-0.338,1.447-0.338
				c1.092,0,2.451,0.426,3.873,1.244c1.67,0.958,3.25,2.353,4.592,3.961c0.364,0.426,0.71,0.87,1.039,1.323
				c1.235,1.732,2.204,3.616,2.745,5.436c0.32,1.075,0.498,2.123,0.498,3.1c0,1.11-0.23,2.566-1.324,3.198
				c-1.182,0.684-3.171,0.346-5.329-0.906c-0.329-0.188-0.657-0.392-0.977-0.622c-0.924,1.243-1.643,2.612-2.07,3.961
				c0.267,0.178,0.551,0.347,0.827,0.507c2.114,1.217,4.21,1.838,6.111,1.838c1.208,0,2.327-0.249,3.322-0.754
				c0.116-0.054,0.231-0.116,0.337-0.178c2.283-1.314,3.543-3.82,3.543-7.043C85.301,105.254,83.837,101.355,81.482,97.953z"/>
			<path fill="#0098CA" d="M108.955,82.062c-0.32-0.453-0.648-0.906-1.003-1.341c-1.768-2.247-3.917-4.201-6.271-5.56
				c-3.597-2.079-7.159-2.407-9.762-0.906c-2.282,1.324-3.543,3.828-3.543,7.052c0,2.913,1.051,6.159,2.774,9.144l3.861-2.229
				c-1.359-2.309-2.194-4.783-2.194-6.915c0-1.11,0.231-2.576,1.323-3.207c0.399-0.231,0.888-0.338,1.447-0.338
				c1.093,0,2.453,0.427,3.873,1.244c1.67,0.958,3.252,2.353,4.593,3.96c0.364,0.426,0.71,0.871,1.04,1.324
				c1.234,1.732,2.203,3.615,2.744,5.436c0.321,1.075,0.498,2.123,0.498,3.1c0,1.11-0.231,2.566-1.323,3.198
				c-1.182,0.684-3.171,0.347-5.33-0.906c-0.328-0.188-0.658-0.392-0.977-0.622c-0.924,1.243-1.643,2.611-2.069,3.961
				c0.266,0.177,0.55,0.346,0.825,0.507c2.115,1.217,4.211,1.838,6.112,1.838c1.208,0,2.327-0.249,3.322-0.754
				c0.115-0.054,0.23-0.115,0.337-0.178c2.283-1.315,3.544-3.82,3.544-7.043C112.774,89.364,111.309,85.464,108.955,82.062z"/>
			<path fill="#0098CA" d="M136.363,66.263c-0.319-0.453-0.647-0.906-1.002-1.341c-1.768-2.247-3.918-4.202-6.271-5.561
				c-3.597-2.078-7.159-2.406-9.762-0.905c-2.282,1.324-3.543,3.828-3.543,7.052c0,2.913,1.038,6.137,2.762,9.122l3.864-2.229
				c-1.359-2.309-2.186-4.76-2.186-6.892c0-1.11,0.231-2.576,1.324-3.207c0.399-0.231,0.888-0.338,1.447-0.338
				c1.093,0,2.452,0.426,3.873,1.244c1.67,0.958,3.252,2.353,4.592,3.961c0.364,0.426,0.71,0.87,1.04,1.323
				c1.234,1.732,2.203,3.616,2.744,5.436c0.32,1.075,0.498,2.123,0.498,3.1c0,1.11-0.231,2.566-1.324,3.197
				c-1.181,0.685-3.171,0.347-5.33-0.905c-0.329-0.188-0.651-0.387-0.97-0.619c-0.924,1.244-1.635,2.618-2.061,3.968
				c0.266,0.178,0.535,0.336,0.81,0.496c2.114,1.217,4.21,1.838,6.111,1.838c1.208,0,2.327-0.249,3.323-0.754
				c0.115-0.054,0.23-0.116,0.337-0.178c2.283-1.315,3.544-3.82,3.544-7.043C140.183,73.564,138.717,69.665,136.363,66.263z"/>
			<path fill="#0098CA" d="M163.853,50.379c-0.319-0.454-0.647-0.907-1.002-1.342c-1.768-2.247-3.918-4.201-6.271-5.56
				c-3.597-2.079-7.16-2.407-9.761-0.906c-2.284,1.324-3.544,3.828-3.544,7.052c0,2.913,1.047,6.146,2.77,9.13l3.864-2.229
				c-1.359-2.31-2.192-4.769-2.192-6.901c0-1.11,0.23-2.576,1.324-3.207c0.399-0.231,0.888-0.338,1.447-0.338
				c1.092,0,2.452,0.426,3.873,1.244c1.67,0.959,3.25,2.353,4.592,3.962c0.364,0.426,0.71,0.869,1.04,1.322
				c1.234,1.732,2.203,3.616,2.744,5.436c0.319,1.075,0.497,2.123,0.497,3.1c0,1.11-0.23,2.567-1.324,3.197
				c-1.18,0.685-3.17,0.347-5.329-0.905c-0.329-0.187-0.657-0.392-0.977-0.622c-0.925,1.244-1.644,2.612-2.07,3.962
				c0.267,0.178,0.551,0.346,0.826,0.506c2.114,1.217,4.21,1.839,6.111,1.839c1.208,0,2.327-0.25,3.323-0.755
				c0.115-0.054,0.23-0.115,0.337-0.178c2.283-1.314,3.544-3.82,3.544-7.043C167.673,57.68,166.208,53.781,163.853,50.379z"/>
			<path fill="#0098CA" d="M191.322,34.532c-0.319-0.453-0.648-0.906-1.004-1.341c-1.767-2.248-3.917-4.202-6.27-5.561
				c-3.598-2.078-7.16-2.407-9.762-0.906c-2.283,1.324-3.544,3.829-3.544,7.052c0,2.914,1.04,6.138,2.764,9.123l3.863-2.229
				c-1.359-2.309-2.185-4.761-2.185-6.893c0-1.109,0.23-2.576,1.324-3.207c0.399-0.23,0.888-0.336,1.447-0.336
				c1.092,0,2.451,0.426,3.873,1.243c1.67,0.959,3.25,2.354,4.591,3.962c0.365,0.426,0.711,0.871,1.04,1.323
				c1.235,1.731,2.203,3.615,2.745,5.436c0.319,1.074,0.497,2.122,0.497,3.099c0,1.11-0.23,2.567-1.324,3.198
				c-1.182,0.685-3.171,0.347-5.329-0.906c-0.329-0.186-0.674-0.402-0.994-0.633c-0.924,1.243-1.643,2.61-2.07,3.961
				c0.267,0.178,0.568,0.358,0.844,0.518c2.113,1.217,4.209,1.839,6.111,1.839c1.208,0,2.327-0.249,3.322-0.755
				c0.116-0.053,0.231-0.115,0.338-0.178c2.282-1.313,3.543-3.818,3.543-7.043C195.141,41.833,193.675,37.933,191.322,34.532z"/>
			<polygon fill="#FFFEFF" points="130.841,124.724 130.841,150.588 100.437,168.14 100.437,142.284 			"/>
			<polygon fill="#FFFEFF" points="130.841,153.662 130.841,178.069 100.437,195.62 100.437,171.221 			"/>
			<polygon fill="#FFFEFF" points="163.917,134.564 163.917,158.973 133.505,176.524 133.505,152.125 			"/>
			<polygon fill="#FFFEFF" points="163.917,105.627 163.917,131.492 133.505,149.052 133.505,123.187 			"/>
		</g>
		<g>
			<polygon fill="#FA4F47" points="112.671,130.741 106.308,123.718 109.817,119.601 114.158,124.392 121.234,104.29 
				124.97,103.785 116.294,128.43 			"/>
		</g>
		<g>
			<polygon fill="#A7D0F9" points="269.785,114.924 195.944,158.425 195.187,157.994 195.187,95.857 269.785,52.789 270.543,53.221 
							"/>
			<polygon fill="#E1EDF9" points="270.543,115.356 195.944,158.425 195.944,96.29 270.543,53.221 			"/>
			<g>
				<g>
					<path fill="#4CC1EC" d="M206.205,107.979c0,1.285-1.039,2.925-2.324,3.666c-1.287,0.744-2.327,0.305-2.327-0.98
						c0-1.288,1.04-2.928,2.327-3.671C205.166,106.252,206.205,106.691,206.205,107.979z"/>
					<polygon fill="#4CC1EC" points="252.636,83.495 208.272,109.109 208.272,104.457 252.636,78.844 					"/>
				</g>
				<g>
					<path fill="#4CC1EC" d="M206.205,122.422c0,1.285-1.039,2.925-2.324,3.666c-1.287,0.744-2.327,0.305-2.327-0.98
						c0-1.288,1.04-2.928,2.327-3.671C205.166,120.695,206.205,121.135,206.205,122.422z"/>
					<polygon fill="#4CC1EC" points="252.636,97.94 208.272,123.553 208.272,118.901 252.636,93.288 					"/>
				</g>
				<g>
					<path fill="#4CC1EC" d="M206.205,136.867c0,1.284-1.039,2.923-2.324,3.666c-1.287,0.743-2.327,0.303-2.327-0.981
						c0-1.287,1.04-2.927,2.327-3.67C205.166,135.139,206.205,135.579,206.205,136.867z"/>
					<polygon fill="#4CC1EC" points="252.636,112.383 208.272,137.997 208.272,133.345 252.636,107.731 					"/>
				</g>
				<g>
					<polygon fill="#FA4F47" points="259.544,79.963 256.776,76.909 258.302,75.118 260.191,77.202 263.27,68.459 264.892,68.239 
						261.119,78.958 					"/>
				</g>
			</g>
			<polygon fill="#BBDAF9" points="269.785,52.789 270.543,53.221 195.944,96.29 195.187,95.857 			"/>
		</g>
	</g>
	<g>
		<g opacity="0.1">
			<path fill="#607080" d="M197.674,289.42c11.439,6.604,11.439,17.313,0,23.916c-11.439,6.604-29.986,6.604-41.425,0
				c-11.439-6.603-11.439-17.312,0-23.916C167.688,282.815,186.234,282.815,197.674,289.42z"/>
		</g>
		<g>
			<path fill="#110812" d="M176.804,310.797c-0.659,0.68-2.896,2.187-4.988,2.113c-0.304,0-0.618-0.043-0.911-0.125
				c-2.311-0.658-14.444-6.529-15.354-8.514c-0.91-1.979-2.313-7.177-1.821-7.847c0.492-0.658,1.737-1.316,2.646-1.067
				c0.899,0.241,8.337,3.224,11.391,3.057c0.565-0.033,1.192,0.135,1.862,0.438c2.929,1.296,6.401,5.092,6.401,5.092
				S177.558,310.013,176.804,310.797z"/>
			<g opacity="0.5">
				<path fill="#582F5C" d="M171.816,312.91c-0.304,0-0.618-0.043-0.911-0.125c-2.311-0.658-14.444-6.529-15.354-8.514
					c-0.91-1.979-2.313-7.177-1.821-7.847c0.492-0.658,1.737-1.316,2.646-1.067c0.899,0.241,8.337,3.224,11.391,3.057
					c0.565-0.033,1.192,0.135,1.862,0.438c-1.203,2.312-2.301,4.33-2.301,4.33l-0.44,0.082l2.092,4.729
					C168.98,307.994,169.461,310.767,171.816,312.91z"/>
			</g>
			<path fill="#110812" d="M201.027,297.295c0.033,0.208-0.01,0.406-0.094,0.594c-0.345,0.733-1.422,2.544-3.65,2.606
				c-1.432,0.04-2.625,0.04-3.838-0.261c-1.161-0.295-2.342-0.858-3.807-1.915c-1.381-0.995-3.452-4.477-5.638-5.962
				c-2.175-1.476-6.119-4.235-6.119-4.235s0.084-2.219,0.283-2.668c0.208-0.45,6.087-0.043,7.321,0.322
				c1.046,0.314,5.648,2.764,7.06,3.525c0.261,0.138,0.418,0.22,0.418,0.22l7.363,2.596L201.027,297.295z"/>
			<g opacity="0.5">
				<path fill="#582F5C" d="M193.445,300.234c-1.161-0.295-2.342-0.858-3.807-1.915c-1.381-0.995-3.452-4.477-5.638-5.962
					c-2.175-1.476-6.119-4.235-6.119-4.235s0.084-2.219,0.283-2.668c0.208-0.45,6.087-0.043,7.321,0.322
					c1.046,0.314,5.648,2.764,7.06,3.525l-2.354,3.59C190.192,292.892,190.307,296.636,193.445,300.234z"/>
			</g>
			<path fill="#FACE92" d="M208.402,231.212c-0.252,1.256-7.363,6.454-7.363,6.454l-0.649-1.339l-2.102-4.299l4.853-12.562
				l3.682,0.616l1.036,1.046C207.858,221.129,208.663,229.946,208.402,231.212z"/>
			<polygon opacity="0.75" fill="#F5C48F" points="206.822,220.083 206.372,230.563 200.39,236.327 198.288,232.028 
				203.141,219.467 			"/>
			<path fill="#48B2F9" d="M211.163,220.188c-0.094,0.723-0.606,1.444-1.559,1.998c-1.558,0.9-3.828,1.13-5.741,0.69
				c-0.66-0.156-1.276-0.376-1.811-0.69c-1.045-0.606-1.558-1.391-1.558-2.175c0-0.094,0-0.199,0.021-0.293
				c0.031-0.21,0.104-0.408,0.209-0.607c0.084-0.239,0.178-0.543,0.293-0.909c0.439-1.328,1.098-3.462,1.777-5.993
				c1.402-5.229,2.908-12.195,2.73-17.582s-1.841-10.031-3.295-13.137c-1.234-2.583-2.322-4.11-2.322-4.11v-18.534
				c0.105,0.031,0.733,0.251,1.59,0.743c0.597,0.345,1.286,0.805,1.977,1.433c1.788,1.621,10.501,23.836,11.285,29.307
				S211.163,220.188,211.163,220.188z"/>
			<g opacity="0.25">
				<path fill="#BD221E" d="M208.455,193.36c0.082,6.715-3.473,24.192-4.592,29.516c-0.66-0.156-1.276-0.376-1.811-0.69
					c-1.045-0.606-1.558-1.391-1.558-2.175c0-0.094,0-0.199,0.021-0.293c0.031-0.21,0.104-0.408,0.209-0.607
					c0.084-0.239,0.178-0.543,0.293-0.909c0.439-1.328,1.098-3.462,1.777-5.993c1.402-5.229,2.908-12.195,2.73-17.582
					s-1.841-10.031-3.295-13.137c-1.234-2.583-2.322-4.11-2.322-4.11v-4.393l2.845,4.162
					C202.754,177.148,208.359,185.39,208.455,193.36z"/>
			</g>
			<path fill="#421D46" d="M203.131,222.468c0,0-1.393,19.371-1.287,26.41c0.094,7.05,0.513,11.296,0.722,12.844
				c0.208,1.558-0.669,30.051-0.669,30.051c0,0.93-0.617,1.859-1.852,2.582c-1.883,1.076-4.654,1.339-6.956,0.775
				c-0.721-0.179-1.401-0.431-1.997-0.775c-1.234-0.723-1.851-1.652-1.851-2.582c-0.042,0,0.271-27.771-0.042-32.225
				c-0.219-3.138-2.124-14.09-3.221-20.251l-9.173,23.982v41.053c0,0.942-0.617,1.872-1.851,2.584
				c-1.779,1.035-4.362,1.319-6.59,0.867c-0.868-0.176-1.673-0.46-2.364-0.867c-1.234-0.712-1.851-1.642-1.851-2.584l-1.349-41.521
				c0,0,0.282-30.155,5.542-47.769l6.59-0.962l25.908-3.808C200.84,210.272,203.811,218.19,203.131,222.468z"/>
			<g opacity="0.5">
				<path fill="#582F5C" d="M193.498,261.722l-0.409,33.408c-0.721-0.179-1.401-0.431-1.997-0.775
					c-1.234-0.723-1.851-1.652-1.851-2.582c-0.042,0,0.271-27.771-0.042-32.225c-0.219-3.138-2.124-14.09-3.221-20.251l4.037-7.227
					L193.498,261.722z"/>
			</g>
			<g opacity="0.5">
				<path fill="#582F5C" d="M168.416,259.128c-0.533,6.715-0.198,37.549-0.052,48.655c-0.868-0.176-1.673-0.46-2.364-0.867
					c-1.234-0.712-1.851-1.642-1.851-2.584l-1.349-41.521c0,0,0.282-30.155,5.542-47.769l6.59-0.962l2.082,6.475
					C177.014,220.555,169.064,250.907,168.416,259.128z"/>
			</g>
			<path fill="#FACE92" d="M128.326,151.209l-4.958,9.215l-0.815-1.58c0-0.011-3.975-7.771-3.975-7.771
				c-0.304-0.585-0.889-0.983-1.547-1.004c-0.283-0.011-0.627-0.042-1.057-0.115c-1.6-0.261-2.595-6.631-2.291-8.147
				c0.095-0.471,0.607-1.119,1.276-1.799c1.297-1.318,3.168-2.74,3.651-3.106l0.115-0.084c0,0-3.254-4.476-3.859-6.244
				c-0.179-0.523-0.157-0.889-0.011-1.13c0.324-0.596,1.265-0.543,1.611-0.47c0.428,0.104,8.126,7.792,10.124,9.79
				c0.304,0.314,0.502,0.711,0.543,1.15c0.179,1.631,0.576,5.763,0.314,6.998C127.112,148.459,128.158,151.105,128.326,151.209z"/>
			<path fill="#2A91DD" d="M203.371,216.643c0,0-0.774,0.68-2.354,1.559c-2.918,1.632-8.598,3.974-17.289,4.058
				c-4.32,0.042-7.636-0.25-10.146-0.742c-5.281-1.036-7.007-2.949-7.112-4.456c-0.136-2.207,3.431-14.903,2.458-20.51
				c-0.376-2.176-1.778-5.419-2.981-9.069c-0.344-1.057-0.669-2.145-0.94-3.252c-0.89-3.546-1.287-7.279-0.199-10.71
				c0.429-1.36,1.088-2.678,2.05-3.912c0,0,4.571-4.361,14.005-7.53c2.363-0.806,5.031-1.528,8.011-2.082
				c3.295-0.627,6.977-1.046,11.035-1.15c0.053,0.073,0.241,0.355,0.512,0.816c1.047,1.841,3.337,6.652,2.804,12.969
				c-0.262,3.075-0.648,5.972-0.994,8.859c-0.596,4.77-1.099,9.519-0.836,15.062c0.251,5.376,0.92,11.589,1.4,15.657
				C203.119,214.885,203.371,216.643,203.371,216.643z"/>
			<g opacity="0.25">
				<path fill="#BD221E" d="M173.583,221.517c-5.281-1.036-7.007-2.949-7.112-4.456c-0.136-2.207,3.431-14.903,2.458-20.51
					c-0.376-2.176-1.778-5.419-2.981-9.069c-0.344-1.057-0.669-2.145-0.94-3.252l8.241-0.461c0,0,0.962,9.676,1.967,16.213
					C176.01,205.116,174.347,216.758,173.583,221.517z"/>
			</g>
			<path fill="#48B2F9" d="M175.186,179.293c-0.529,7.493-3.747,8.197-8.198,8.197h-1.036c-6.082-0.154-25.343-1.322-27.149-2.49
				c-1.807-1.169-16.13-22.875-18.092-25.85c-0.088-0.088-0.154-0.221-0.221-0.33c-0.265-0.463-0.396-1.036-0.396-1.72
				c0-0.705,0.154-1.476,0.418-2.248c0.308-0.881,0.771-1.785,1.365-2.6c0.088-0.155,0.177-0.288,0.288-0.42
				c0.837-1.079,1.872-2.027,2.974-2.667c2.16-1.255,4.011-0.947,4.716,0.595l14.875,21.288c0.574,0.265,3.724,1.631,7.801,1.674
				c4.452,0.066,8.837-0.881,12.869-2.755c0.463-0.219,0.948-0.33,1.455-0.374c0.705-0.022,1.411,0.11,2.05,0.418
				c0.616,0.287,1.3,0.683,2.004,1.168C173.136,172.726,175.472,175.326,175.186,179.293z"/>
			<g opacity="0.25">
				<path fill="#BD221E" d="M138.796,185.003c-1.81-1.161-16.128-22.874-18.085-25.844c-0.083-0.105-0.157-0.221-0.23-0.336
					c-0.251-0.459-0.386-1.035-0.386-1.715c0-1.673,0.815-3.629,2.07-5.27C122.165,151.838,141.902,184.659,138.796,185.003z"/>
			</g>
			<g opacity="0.25">
				<path fill="#BD221E" d="M183.76,162.589c-9.071,6.791-7.393,6.356-12.854,8.598c-1.548,0.638-3.556,1.412-6.098,2.333
					c-0.45,0.156-0.92,0.324-1.412,0.491c-8.127,2.845-17.666-2.374-18.597-2.907c0.512,0.219,3.651,1.569,7.729,1.622
					c4.445,0.062,8.838-0.89,12.865-2.751c0.471-0.22,0.963-0.335,1.464-0.366c0,0,4.571-4.361,14.005-7.53L183.76,162.589z"/>
			</g>
			<g opacity="0.25">
				<path fill="#BD221E" d="M201.499,159.587c-0.294,0.021-0.659,0.042-1.078,0.073c-0.167,0.021-0.333,0.031-0.512,0.042
					c-3.493,0.314-9.549,1.057-9.549,1.057l-1.486-0.764c3.295-0.627,6.977-1.046,11.035-1.15
					C200.014,158.876,200.642,159.096,201.499,159.587z"/>
			</g>
			<path opacity="0.75" fill="#F5C48F" d="M114.865,130.573c-0.179-0.523-0.157-0.889-0.011-1.13l5.24,6.643l-1.37,0.731
				C118.725,136.817,115.471,132.341,114.865,130.573z"/>
			<path opacity="0.75" fill="#F5C48F" d="M121.877,152.254c-0.595,0.814-1.058,1.718-1.365,2.6l-1.94-3.79
				c-0.308-0.573-0.881-0.969-1.542-0.992c-0.287-0.021-0.618-0.044-1.058-0.109c-1.608-0.265-2.601-6.634-2.292-8.154
				c0.088-0.462,0.616-1.124,1.278-1.807c0.683,0.683,1.96,2.093,2.82,3.68C118.572,145.158,120.601,149.521,121.877,152.254z"/>
			<path fill="#FACE92" d="M191.938,157.664c-0.031,0.836-0.041,1.819-0.052,2.729c-0.011,1.141-0.031,0.89-0.031,0.639
				c-0.021,0.408-0.188,1.328-1.36,1.977c-2.343,1.297-5.355,1.579-7.833,1.527c-0.524-0.011-1.015-0.073-1.475-0.177
				c-1.757-0.388-2.96-1.245-3.086-1.267c0.042-0.24,0.147-1.736,0.283-4.696c0.021-0.366-0.21-0.711-0.554-0.815
				c-1.077-0.335-3.159-1.13-4.424-3.755c-0.9-1.862-1.423-11.338-1.434-11.453c-0.01-0.146,0.168-0.114,0.513,0.053
				c0.449,0.219,1.161,0.68,2.061,1.307c0.146,0.104,0.302,0.22,0.47,0.334C180.602,148.051,191.938,157.349,191.938,157.664z"/>
			<path opacity="0.75" fill="#F5C48F" d="M181.187,157.746v6.611c-1.757-0.388-2.96-1.245-3.086-1.267
				c0.042-0.24,0.147-1.736,0.283-4.696c0.021-0.366-0.21-0.711-0.554-0.815c-1.077-0.335-3.159-1.13-4.424-3.755
				c-0.9-1.862-1.423-11.338-1.434-11.453c-0.01-0.146,0.168-0.114,0.513,0.053c0.805,0.764,1.621,1.391,2.061,1.307
				c0.051,0,0.104-0.021,0.146-0.052c0.125-0.095,0.23,0.063,0.324,0.386c0.543,1.946,1.846,1.499,2.965,2.514
				C179.278,147.75,181.187,157.746,181.187,157.746z"/>
			<path fill="#110812" d="M196.562,145.75c-0.356,1.454-1.799,4.717-2.071,6.193c-0.23,1.286-2.552,5.721-2.552,5.721
				c-2.133,1.307-5.71,1.757-7.521,1.651c-0.417-0.031-0.742-0.083-0.931-0.156c-0.104-0.042-0.302-0.126-0.543-0.241
				c-1.935-0.889-3.357-2.615-3.859-4.686l-0.115-0.481c-0.178-0.722-0.209-1.464-0.156-2.196c0.031-0.387,0.041-0.815,0.021-1.296
				c-0.126-2.532-1.287-2.898-2.165-3.064c-0.899-0.199-1.046,2.562-1.046,2.562l-1.213-0.388l-0.178-3.933
				c0-0.407-0.146-0.794-0.408-1.108c-0.952-1.088-4.299-1.789-4.289-5.992c0-1.915,2.04-8.599,12.207-8.703
				c1.349-0.01,2.845,0.084,4.498,0.334C197.252,131.608,197.44,142.078,196.562,145.75z"/>
			<g opacity="0.5">
				<path fill="#582F5C" d="M184.418,159.315c-0.417-0.031-0.742-0.083-0.931-0.156c-0.104-0.042-0.302-0.126-0.543-0.241
					c-1.935-0.889-3.357-2.615-3.859-4.686l-0.115-0.481c-0.178-0.722-0.209-1.464-0.156-2.196c0.031-0.387,0.041-0.815,0.021-1.296
					c-0.126-2.532-1.287-2.898-2.165-3.064c-0.899-0.199-1.046,2.562-1.046,2.562l-1.213-0.388l-0.178-3.933
					c0-0.407-0.146-0.794-0.408-1.108c-0.952-1.088-4.299-1.789-4.289-5.992c0-1.915,2.04-8.599,12.207-8.703
					c-3.211,1.664-8.859,5.198-6.098,8.535c3.765,4.549,4.429,9.272,4.738,13.671C180.706,156.45,182.474,157.726,184.418,159.315z"
					/>
			</g>
		</g>
	</g>
</g>
</svg>
