<?xml version="1.0" encoding="utf-8"?>
<!-- Generator: Adobe Illustrator 16.0.0, SVG Export Plug-In . SVG Version: 6.00 Build 0)  -->
<!DOCTYPE svg PUBLIC "-//W3C//DTD SVG 1.1//EN" "http://www.w3.org/Graphics/SVG/1.1/DTD/svg11.dtd">
<svg version="1.1" id="Layer_1" xmlns="http://www.w3.org/2000/svg" xmlns:xlink="http://www.w3.org/1999/xlink" x="0px" y="0px"
	 width="80px" height="40px" viewBox="0 0 80 40" enable-background="new 0 0 80 40" xml:space="preserve">
<g>
	<path fill="#067FFF" d="M29.726,23.435c0,1.396-1.03,3.032-3.088,4.911c-2.15,1.969-4.756,3.502-7.818,4.597
		c-2.906,1.031-5.883,1.546-8.932,1.546c-4.144,0-6.216-1.244-6.216-3.733c0-1.485,1.166-2.84,3.499-4.065
		c2.032-1.081,3.883-1.622,5.551-1.622c0.534,0,0.801,0.163,0.801,0.488c0,0.222-0.273,0.372-0.819,0.45
		c-1.587,0.247-3.12,0.703-4.603,1.368c-2.08,0.912-3.12,1.935-3.12,3.068c0,1.382,1.608,2.071,4.824,2.071
		c2.617,0,5.422-0.521,8.417-1.564c3.06-1.068,5.566-2.432,7.52-4.088c1.9-1.616,2.851-2.829,2.851-3.638
		c0-0.795-1.283-1.344-3.85-1.644c-4.248-0.496-6.626-0.802-7.134-0.92c-2.567-0.625-3.85-1.733-3.85-3.325
		c0-2.021,1.505-3.944,4.515-5.77c2.463-1.499,5.597-2.764,9.401-3.794c3.335-0.899,6.007-1.35,8.014-1.35
		c2.567,0,3.85,0.795,3.85,2.384c0,1.369-1.192,2.978-3.577,4.828c-2.306,1.785-4.189,2.677-5.648,2.677
		c-1.172,0-1.759-0.404-1.759-1.212c0-0.677,0.671-1.472,2.013-2.384c1.277-0.86,2.274-1.291,2.991-1.291
		c0.247,0,0.371,0.078,0.371,0.235l-2.013,1.094c-1.342,0.73-2.04,1.264-2.092,1.603c0.065,0.091,0.176,0.137,0.333,0.137
		c0.94,0,2.488-0.625,4.644-1.876c2.286-1.329,3.428-2.424,3.428-3.284c0-0.755-0.913-1.134-2.739-1.134
		c-2.086,0-5.027,0.601-8.822,1.802c-2.557,0.809-4.799,1.67-6.729,2.584c-3.339,1.566-5.008,2.982-5.008,4.249
		c0,0.809,1.055,1.409,3.167,1.801l6.274,0.809c2.449,0.366,3.941,0.9,4.476,1.605C29.432,21.844,29.726,22.64,29.726,23.435z"/>
</g>
<g>
	<path fill="#067FFF" d="M39.903,14.299l5.924,12.703h-1.372l-1.998-4.18h-5.472l-1.979,4.18H33.59l6.001-12.703H39.903z
		 M39.743,16.999l-2.177,4.598h4.342L39.743,16.999z"/>
	<path fill="#067FFF" d="M46.793,14.299h1.46l3.251,5.239l3.199-5.239h1.468l-4.024,6.631v6.072h-1.251V20.93L46.793,14.299z"/>
	<path fill="#067FFF" d="M56.947,24.636l1.08-0.648c0.76,1.398,1.638,2.099,2.634,2.099c0.426,0,0.825-0.1,1.2-0.299
		c0.373-0.198,0.658-0.464,0.854-0.798c0.195-0.334,0.294-0.688,0.294-1.063c0-0.426-0.145-0.843-0.433-1.251
		c-0.396-0.564-1.122-1.243-2.175-2.038c-1.06-0.8-1.719-1.379-1.978-1.737c-0.45-0.598-0.673-1.245-0.673-1.941
		c0-0.553,0.131-1.057,0.396-1.512s0.638-0.813,1.119-1.075c0.479-0.262,1.003-0.393,1.566-0.393c0.6,0,1.158,0.149,1.68,0.445
		c0.521,0.296,1.072,0.842,1.653,1.637l-1.035,0.786c-0.478-0.633-0.886-1.051-1.223-1.252c-0.336-0.202-0.703-0.302-1.101-0.302
		c-0.513,0-0.932,0.155-1.256,0.466c-0.326,0.311-0.488,0.694-0.488,1.148c0,0.276,0.058,0.544,0.172,0.804
		c0.116,0.258,0.326,0.541,0.631,0.845c0.167,0.161,0.714,0.584,1.641,1.27c1.1,0.812,1.854,1.533,2.263,2.166
		c0.409,0.634,0.613,1.271,0.613,1.91c0,0.92-0.351,1.721-1.049,2.399c-0.7,0.679-1.551,1.019-2.552,1.019
		c-0.772,0-1.472-0.205-2.099-0.617C58.056,26.291,57.478,25.603,56.947,24.636z"/>
	<path fill="#067FFF" d="M67.111,14.299h1.27v7.667c0,0.91,0.017,1.477,0.052,1.701c0.063,0.501,0.211,0.92,0.44,1.257
		s0.585,0.618,1.063,0.847c0.478,0.228,0.958,0.341,1.441,0.341c0.421,0,0.823-0.09,1.209-0.268c0.386-0.18,0.708-0.427,0.967-0.743
		c0.259-0.317,0.45-0.699,0.57-1.148c0.087-0.322,0.13-0.985,0.13-1.986v-7.667h1.269v7.667c0,1.135-0.11,2.051-0.332,2.751
		c-0.221,0.699-0.665,1.308-1.329,1.826c-0.665,0.518-1.471,0.776-2.415,0.776c-1.023,0-1.902-0.244-2.633-0.733
		c-0.731-0.489-1.221-1.137-1.468-1.942c-0.156-0.495-0.233-1.388-0.233-2.678V14.299z"/>
</g>
<g>
	<path fill="#067FFF" d="M33.684,32.436l0.425-0.255c0.299,0.551,0.646,0.826,1.038,0.826c0.167,0,0.326-0.039,0.473-0.117
		c0.147-0.079,0.26-0.183,0.337-0.314c0.077-0.132,0.116-0.271,0.116-0.418c0-0.168-0.057-0.333-0.17-0.494
		c-0.157-0.223-0.442-0.489-0.857-0.803c-0.417-0.315-0.677-0.543-0.779-0.684C34.088,29.94,34,29.686,34,29.411
		c0-0.218,0.052-0.416,0.156-0.596c0.104-0.179,0.251-0.319,0.441-0.423s0.395-0.154,0.617-0.154c0.236,0,0.457,0.058,0.662,0.175
		c0.205,0.116,0.422,0.331,0.651,0.645l-0.409,0.31c-0.188-0.25-0.349-0.414-0.481-0.494c-0.133-0.079-0.277-0.118-0.434-0.118
		c-0.202,0-0.367,0.061-0.495,0.184c-0.128,0.122-0.192,0.273-0.192,0.452c0,0.108,0.023,0.214,0.068,0.316
		c0.045,0.103,0.128,0.213,0.248,0.334c0.066,0.063,0.281,0.229,0.646,0.499c0.433,0.32,0.73,0.604,0.891,0.854
		s0.242,0.5,0.242,0.752c0,0.362-0.138,0.678-0.413,0.945c-0.276,0.269-0.611,0.401-1.005,0.401c-0.304,0-0.58-0.081-0.827-0.243
		C34.12,33.089,33.892,32.816,33.684,32.436z"/>
	<path fill="#067FFF" d="M40.75,28.238c0.758,0,1.393,0.252,1.902,0.758c0.511,0.506,0.767,1.129,0.767,1.868
		c0,0.731-0.255,1.354-0.765,1.863c-0.51,0.511-1.131,0.766-1.863,0.766c-0.742,0-1.369-0.254-1.879-0.762
		c-0.511-0.509-0.766-1.123-0.766-1.844c0-0.481,0.116-0.927,0.349-1.337c0.232-0.411,0.55-0.731,0.951-0.964
		C39.848,28.354,40.283,28.238,40.75,28.238z M40.772,28.724c-0.37,0-0.721,0.097-1.053,0.29c-0.332,0.192-0.59,0.453-0.777,0.779
		c-0.186,0.327-0.279,0.69-0.279,1.093c0,0.595,0.206,1.097,0.618,1.507c0.413,0.41,0.909,0.614,1.491,0.614
		c0.388,0,0.748-0.094,1.079-0.282c0.33-0.188,0.588-0.446,0.773-0.773c0.186-0.326,0.277-0.689,0.277-1.089
		c0-0.397-0.092-0.757-0.277-1.078s-0.445-0.578-0.781-0.771C41.506,28.82,41.149,28.724,40.772,28.724z"/>
	<path fill="#067FFF" d="M45.119,28.363h0.5v4.521h1.926v0.482h-2.426V28.363z"/>
	<path fill="#067FFF" d="M49.051,28.363h0.5v3.021c0,0.359,0.007,0.582,0.021,0.67c0.025,0.198,0.083,0.362,0.174,0.496
		c0.091,0.132,0.229,0.243,0.418,0.333c0.188,0.089,0.378,0.135,0.568,0.135c0.166,0,0.324-0.035,0.477-0.105
		c0.151-0.07,0.278-0.168,0.381-0.293c0.102-0.125,0.176-0.275,0.225-0.452c0.034-0.127,0.051-0.388,0.051-0.783v-3.021h0.5v3.021
		c0,0.447-0.044,0.809-0.131,1.084c-0.088,0.275-0.263,0.516-0.524,0.719c-0.262,0.205-0.578,0.307-0.95,0.307
		c-0.404,0-0.75-0.096-1.038-0.288c-0.288-0.194-0.48-0.448-0.578-0.767c-0.062-0.194-0.092-0.547-0.092-1.055V28.363z"/>
	<path fill="#067FFF" d="M53.795,28.853v-0.489h2.742v0.489h-1.115v4.515h-0.511v-4.515H53.795z"/>
	<path fill="#067FFF" d="M57.885,28.363h0.5v5.004h-0.5V28.363z"/>
	<path fill="#067FFF" d="M62.61,28.238c0.759,0,1.393,0.252,1.903,0.758s0.767,1.129,0.767,1.868c0,0.731-0.255,1.354-0.765,1.863
		c-0.509,0.511-1.13,0.766-1.863,0.766c-0.742,0-1.368-0.254-1.879-0.762c-0.512-0.509-0.767-1.123-0.767-1.844
		c0-0.481,0.116-0.927,0.349-1.337c0.232-0.411,0.55-0.731,0.952-0.964C61.709,28.354,62.144,28.238,62.61,28.238z M62.634,28.724
		c-0.371,0-0.723,0.097-1.053,0.29c-0.332,0.192-0.592,0.453-0.777,0.779c-0.187,0.327-0.279,0.69-0.279,1.093
		c0,0.595,0.206,1.097,0.617,1.507c0.413,0.41,0.91,0.614,1.492,0.614c0.388,0,0.747-0.094,1.078-0.282
		c0.33-0.188,0.588-0.446,0.773-0.773c0.185-0.326,0.278-0.689,0.278-1.089c0-0.397-0.094-0.757-0.278-1.078
		c-0.186-0.321-0.446-0.578-0.782-0.771C63.366,28.82,63.011,28.724,62.634,28.724z"/>
	<path fill="#067FFF" d="M66.983,33.367v-5.004h0.108l3.33,3.836v-3.836h0.494v5.004h-0.112L67.5,29.578v3.789H66.983z"/>
	<path fill="#067FFF" d="M72.313,32.436l0.425-0.255c0.3,0.551,0.646,0.826,1.038,0.826c0.168,0,0.325-0.039,0.474-0.117
		c0.146-0.079,0.26-0.183,0.337-0.314s0.115-0.271,0.115-0.418c0-0.168-0.057-0.333-0.17-0.494
		c-0.157-0.223-0.443-0.489-0.857-0.803c-0.418-0.315-0.678-0.543-0.779-0.684c-0.178-0.236-0.266-0.491-0.266-0.766
		c0-0.218,0.053-0.416,0.157-0.596c0.104-0.179,0.251-0.319,0.44-0.423c0.188-0.104,0.396-0.154,0.617-0.154
		c0.236,0,0.456,0.058,0.661,0.175c0.205,0.116,0.423,0.331,0.651,0.645l-0.408,0.31c-0.188-0.25-0.349-0.414-0.48-0.494
		c-0.134-0.079-0.277-0.118-0.434-0.118c-0.202,0-0.367,0.061-0.496,0.184c-0.128,0.122-0.191,0.273-0.191,0.452
		c0,0.108,0.022,0.214,0.068,0.316c0.045,0.103,0.128,0.213,0.248,0.334c0.065,0.063,0.281,0.229,0.646,0.499
		c0.434,0.32,0.73,0.604,0.892,0.854s0.242,0.5,0.242,0.752c0,0.362-0.139,0.678-0.414,0.945c-0.274,0.269-0.61,0.401-1.005,0.401
		c-0.305,0-0.579-0.081-0.827-0.243C72.75,33.089,72.522,32.816,72.313,32.436z"/>
</g>
</svg>
