<?xml version="1.0" encoding="utf-8"?>
<!-- Generator: Adobe Illustrator 16.0.0, SVG Export Plug-In . SVG Version: 6.00 Build 0)  -->
<!DOCTYPE svg PUBLIC "-//W3C//DTD SVG 1.1//EN" "http://www.w3.org/Graphics/SVG/1.1/DTD/svg11.dtd">
<svg version="1.1" id="Layer_1" xmlns="http://www.w3.org/2000/svg" xmlns:xlink="http://www.w3.org/1999/xlink" x="0px" y="0px"
	 width="400px" height="400px" viewBox="0 0 400 400" enable-background="new 0 0 400 400" xml:space="preserve">
<g>
	<g>
		<path fill="#01C7E2" d="M166.435,279.671c-12.419-14.015-49.102-33.071-39.463-54.927c8.197-18.59,47.541-16.299,42.805-38.714
			c-2.799-13.256-6.434-24.572,2.125-39.645c9.323-16.42,37.188-7.481,46.849-22.729c8.3-13.097-2.49-33.335,14.652-42.083
			c15.221-7.767,33.609,7.406,36.352,20.854c3.433,16.814-13.221,24.718-15.357,39.354c-1.361,9.317,7.126,12.564,11.988,19.087
			c4.655,6.247,8.84,15.23,9.148,22.967c0.924,23.25-24.557,26.26-36.636,41.043c-11.189,13.689,9.445,22.513,6.353,37.399
			c-3.338,16.065-26.207,24.838-42.305,24.6C191.784,286.712,174.132,288.356,166.435,279.671z"/>
		<g>
			<path fill="#FFFFFF" d="M182.657,287.331c-0.1-0.019-0.2-0.046-0.29-0.093c-0.527-0.244-0.702-0.813-0.39-1.266
				c0.222-0.334,22.969-34.543,24.285-77.533c0.871-28.661,12.781-46.999,22.551-62.045c5.903-9.084,11.046-17.01,11.836-24.953
				c0.068-0.647,0.661-1.153,1.332-1.125c0.695,0.023,1.16,0.583,1.099,1.228c-0.861,8.508-6.163,16.647-12.238,25.978
				c-9.626,14.786-21.371,32.82-22.27,60.89c-1.398,43.518-24.479,78.111-24.707,78.446
				C183.615,287.231,183.116,287.413,182.657,287.331z"/>
		</g>
		<g>
			<path fill="#FFFFFF" d="M208.206,208.551c-0.546-0.11-0.917-0.567-0.852-1.094c0.065-0.573,0.637-1.014,1.272-0.973
				c9.636,0.576,22.511-5.057,26.401-14.447c0.468-1.129,0.937-2.381,1.429-3.694c2.354-6.306,5.312-14.221,11.502-17.07
				c3.029-1.392,6.537-1.395,10.375-0.073c0.596,0.209,0.861,0.836,0.599,1.402c-0.262,0.566-0.917,0.832-1.547,0.657
				c-3.296-1.136-6.057-1.152-8.497-0.035c-5.245,2.417-8.022,9.813-10.234,15.709c-0.503,1.337-0.983,2.612-1.457,3.758
				c-4.435,10.654-18.379,16.503-28.819,15.881C208.318,208.57,208.259,208.563,208.206,208.551z"/>
		</g>
		<g>
			<path fill="#FFFFFF" d="M201.369,207.469c-4.474-1.008-7.869-2.968-10.122-5.866c-3.576-4.596-4.138-11.522-1.579-20.079
				c0.256-0.848,0.577-1.83,0.933-2.904c2.006-6.114,5.074-15.449,2.053-20.63c-1.001-1.721-2.599-2.836-4.88-3.409
				c-0.637-0.163-1.011-0.783-0.824-1.387c0.184-0.599,0.845-0.959,1.482-0.807c0.003,0,0.009,0.001,0.013,0.003
				c2.893,0.731,5.023,2.239,6.328,4.484c3.485,5.999,0.225,15.87-1.91,22.329c-0.346,1.053-0.665,2.014-0.914,2.848
				c-2.381,7.908-1.947,14.219,1.22,18.297c2.699,3.479,7.429,5.408,14.029,5.762c0.665,0.029,1.099,0.533,1.039,1.107
				c-0.068,0.578-0.63,1.021-1.267,0.988C204.945,208.098,203.079,207.853,201.369,207.469z"/>
		</g>
		<g>
			<path fill="#FFFFFF" d="M195.887,273.784c-1.339-0.243-2.593-0.68-3.707-1.351c-0.493-0.298-0.599-0.891-0.234-1.328
				c0.365-0.438,1.042-0.56,1.551-0.256c5.766,3.479,17.499-1.04,22.488-4.56c2.081-1.469,3.95-4.02,5.929-6.729
				c3.551-4.844,7.238-9.889,13.07-10.052c0.64-0.046,1.102,0.405,1.077,0.945c-0.022,0.544-0.534,0.999-1.146,1.013
				c-4.597,0.133-7.938,4.691-11.152,9.067c-2.09,2.854-4.063,5.539-6.449,7.219C212.843,270.908,203.063,275.095,195.887,273.784z"
				/>
		</g>
		<g>
			<path fill="#FFFFFF" d="M186.442,271.677c-1.364-0.248-2.693-0.718-3.991-1.407c-7.264-3.861-11.573-13.754-12.697-19.518
				c-0.599-3.096,0.328-7.185,1.311-11.535c1.576-6.954,3.22-14.212-1.308-17.52c-0.486-0.357-0.549-1.008-0.14-1.455
				c0.409-0.443,1.139-0.503,1.629-0.153c5.57,4.079,3.694,12.302,2.053,19.479c-0.952,4.164-1.841,8.074-1.311,10.809
				c1.004,5.216,5.064,14.724,11.676,18.248c2.564,1.365,5.292,1.689,8.091,0.966c0.59-0.148,1.198,0.135,1.354,0.642
				c0.15,0.509-0.206,1.04-0.795,1.195C190.305,271.94,188.342,272.024,186.442,271.677z"/>
		</g>
	</g>
	<g>
		<path fill="#E5E6ED" d="M255.441,326.87c-21.309-5.262-38.187-10.021-38.646-32.596c-0.24-11.681,4.975-19.742,17.296-26.224
			c9.967-5.238,15.081-7.041,17.374-17.383c3.667-16.549-4.321-32.865,6.104-48.869c11.63-17.854,37.871-9.712,49.984-25.901
			c10.865-14.524,16.825-33.353,39.79-33.085c19.327,0.225,27.213,20.412,18.938,34.417c-4.655,7.882-12.809,13.436-16.113,21.875
			c-3.154,8.052,0.309,14.633,3.41,21.987c6.85,16.248,8.519,32.994-10.128,43.731c-11.146,6.415-19.736,12.049-15.721,24.082
			c4.222,12.647,6.113,19.861-9.242,29.381c-11.479,7.114-21.945,6.537-35.125,7.085c-12.356,0.515-28.866,3.9-40.53-1.452
			L255.441,326.87z"/>
		<g>
			<path fill="#FFFFFF" d="M262.356,315.16c-1.801-2.031-3.009-4.158-3.607-6.354c-2.574-9.471,6.434-18.959,14.594-27.558
				c4.115-4.327,8.041-8.467,9.885-11.997c5.033-9.614,6.534-18.193,5.467-31.642c-1.276-15.945,3.008-22.471,16.023-33.015
				c10.971-8.902,21.816-18.705,24.872-28.412c0.233-0.758,1.197-1.164,2.152-0.913c0.952,0.247,1.538,1.064,1.298,1.819
				c-3.267,10.327-14.496,20.433-25.82,29.563c-12.605,10.146-16.506,16.035-15.323,31.205c0.898,11.463,0.24,21.385-5.748,32.752
				c-1.976,3.764-6.016,7.99-10.241,12.413c-7.885,8.252-16.6,17.367-14.3,25.847c0.886,3.271,3.342,6.271,7.52,9.168
				c0.677,0.491,0.911,1.243,0.478,1.699c-0.434,0.455-1.345,0.434-2.038-0.051C265.479,318.232,263.741,316.724,262.356,315.16z"/>
		</g>
		<g>
			<path fill="#FFFFFF" d="M289.325,252.701c-0.219-0.242-0.359-0.526-0.375-0.822c-0.028-0.709,0.655-1.208,1.535-1.114
				c7.711,0.841,13.405-5.174,19.54-11.653c5.436-5.736,11.143-11.762,18.955-13.406c0.89-0.188,1.907,0.262,2.247,0.992
				c0.353,0.736-0.078,1.48-0.971,1.666c-6.849,1.426-12.287,7.132-17.467,12.564c-6.366,6.674-12.815,13.452-22.18,12.414
				C290.096,253.281,289.631,253.034,289.325,252.701z"/>
		</g>
		<g>
			<path fill="#FFFFFF" d="M283.175,272.327c-0.122-0.136-0.222-0.288-0.287-0.45c-0.755-1.907-1.067-3.532-1.37-5.114
				c-0.486-2.548-0.917-4.754-3.16-7.553c-1.192-1.48-2.524-2.768-3.811-4.015c-2.695-2.645-5.491-5.336-6.746-9.668
				c-1.791-6.191-1.676-13.894,0.365-22.967c0.284-1.268,0.939-3.038,1.638-4.923c1.002-2.718,2.884-7.801,2.26-8.935
				c-0.375-0.681-0.115-1.456,0.64-1.709c0.745-0.254,1.676,0.025,2.091,0.678c1.288,1.934,0.105,5.491-1.976,11.066
				c-0.68,1.818-1.316,3.537-1.579,4.67c-1.366,6.025-2.54,14.669-0.437,21.955c1.042,3.64,3.313,5.842,5.96,8.401
				c1.36,1.316,2.768,2.693,4.103,4.341c2.715,3.366,3.236,6.109,3.742,8.755c0.277,1.477,0.57,3.004,1.244,4.701
				c0.278,0.692-0.165,1.329-0.985,1.415C284.245,273.045,283.574,272.771,283.175,272.327z"/>
		</g>
	</g>
	<g>
		<path fill="#D0D1DE" d="M127.328,323.841c-23.593-4.284-45.685-2.468-55.233-28.297c-7.557-20.438,10.06-39.698-7.673-53.744
			c-10.668-8.451-27.502-13.522-31.225-27.972c-3.875-15.053,15.383-24.593,11.92-39.036c-2.858-11.935-19.424-12.728-15.103-28.271
			c3.835-13.789,15.964-17.263,25.605-14.511c12.893,3.682,13.96,15.478,22.516,23.666c5.71,5.465,13.801-0.027,22.179-1.035
			c8.347-1.005,19.031-0.26,26.098,3.42c22.953,11.957,4.559,37.28,8.728,57.893c4.032,19.93,32.089,7.884,46.586,22.852
			c16.934,17.483,4.159,47.716-12.525,61.985C158.084,310.297,143.272,326.738,127.328,323.841z"/>
		<g>
			<path fill="#FFFFFF" d="M150.097,318.636c-0.113,0.064-0.241,0.117-0.378,0.146c-0.761,0.18-1.554-0.274-1.763-1.005
				c-0.159-0.532-15.511-51.846-52.893-85.639c-21.046-19.019-26.048-38.665-29.958-54.019c-2.278-8.958-4.225-16.584-8.703-20.711
				c-0.356-0.333-0.318-1.006,0.09-1.507c0.424-0.521,1.042-0.637,1.404-0.309c4.827,4.42,6.843,12.28,9.211,21.516
				c3.888,15.147,8.855,34.537,29.618,53.156c38.133,34.2,53.826,86.327,53.981,86.868
				C150.886,317.732,150.621,318.34,150.097,318.636z"/>
		</g>
		<g>
			<path fill="#FFFFFF" d="M96.574,230.65c-0.487,0.365-1.129,0.352-1.507-0.056c-0.409-0.444-0.349-1.2,0.144-1.683
				c7.564-7.457,12.479-21.829,7.551-30.882c-0.581-1.067-1.257-2.202-1.966-3.389c-3.351-5.609-7.445-12.467-5.317-19.148
				c1.045-3.269,3.517-6.228,7.305-8.81c0.596-0.404,1.295-0.309,1.56,0.21c0.269,0.52,0.009,1.22-0.583,1.668
				c-3.273,2.215-5.251,4.544-6.1,7.19c-1.816,5.693,2.056,12.132,5.22,17.395c0.727,1.209,1.42,2.37,2.019,3.456
				c5.654,10.324,0.081,25.822-8.185,33.927C96.67,230.574,96.621,230.617,96.574,230.65z"/>
		</g>
		<g>
			<path fill="#FFFFFF" d="M90.754,235.372c-3.972,2.831-7.86,4.132-11.592,3.896c-5.785-0.36-11.058-4.486-15.273-11.826
				c-0.409-0.713-0.865-1.56-1.361-2.483c-2.79-5.18-6.93-12.876-12-13.585c-1.651-0.23-3.273,0.307-4.952,1.629
				c-0.471,0.367-1.058,0.289-1.311-0.178c-0.247-0.463-0.081-1.135,0.381-1.507c0.003-0.001,0.006-0.005,0.009-0.008
				c2.125-1.679,4.291-2.392,6.447-2.102c5.882,0.796,10.288,8.934,13.258,14.419c0.493,0.903,0.942,1.733,1.348,2.438
				c3.925,6.788,8.703,10.583,13.842,10.881c4.487,0.257,9.311-2.134,14.325-7.14c0.505-0.514,1.227-0.522,1.645-0.086
				c0.415,0.445,0.362,1.2-0.128,1.688C93.834,232.96,92.29,234.279,90.754,235.372z"/>
		</g>
		<g>
			<path fill="#FFFFFF" d="M147.56,293.844c-1.491,0.9-3.102,1.538-4.83,1.83c-0.758,0.126-1.479-0.353-1.61-1.077
				c-0.131-0.724,0.347-1.408,1.126-1.546c9.03-1.569,15-16.052,15.761-23.693c0.312-3.177-0.777-7.108-1.928-11.243
				c-2.025-7.303-4.103-14.776,1.048-20.196c0.54-0.622,1.46-0.685,2.035-0.229c0.58,0.458,0.608,1.295,0.053,1.867
				c-4.094,4.295-2.187,11.099-0.331,17.735c1.226,4.381,2.39,8.544,2.028,12.204C160.234,276.387,155.685,288.94,147.56,293.844z"
				/>
		</g>
		<g>
			<path fill="#FFFFFF" d="M136.794,299.729c-1.463,0.885-3.117,1.525-4.955,1.929c-10.05,2.183-22.825-3.565-28.834-7.823
				c-3.146-2.237-5.917-6.451-8.812-10.853c-4.515-6.867-9.089-13.822-14.85-12.946c-0.611,0.093-1.148-0.355-1.201-1.001
				c-0.05-0.64,0.418-1.234,1.023-1.337c7.102-1.106,12.31,6.762,17.006,13.858c2.79,4.221,5.457,8.252,8.256,10.216
				c5.451,3.835,17.676,9.343,26.813,7.32c3.632-0.807,6.381-2.752,8.125-5.777c0.371-0.63,1.208-0.875,1.881-0.525
				c0.671,0.358,0.915,1.164,0.54,1.807C140.52,296.771,138.848,298.488,136.794,299.729z"/>
		</g>
	</g>
	<g>
		<g>
			<path fill="#110239" d="M305.734,341.458H95.597c-2.827,0-5.118-2.29-5.118-5.116V198.814c0-2.826,2.291-5.116,5.118-5.116
				h210.137c2.824,0,5.114,2.29,5.114,5.116v137.527C310.849,339.168,308.559,341.458,305.734,341.458z"/>
			<rect x="100.63" y="203.487" fill="#FFFFFF" width="189.98" height="126.651"/>
			<circle fill="#FFFFFF" cx="300.012" cy="267.578" r="3.984"/>
		</g>
		<g>
			<g>
				<path fill="#E5E6ED" d="M247.956,306.504H143.338c-2.89,0-5.233-2.342-5.233-5.23v-67.39c0-2.89,2.343-5.231,5.233-5.231
					h104.618c2.889,0,5.232,2.342,5.232,5.231v67.39C253.188,304.162,250.845,306.504,247.956,306.504z"/>
				<rect x="143.338" y="234.854" fill="#007CFF" width="104.618" height="65.449"/>
			</g>
			<polygon fill="#FFFFFF" points="176.22,246.945 176.22,289.987 218.119,268.466 			"/>
		</g>
	</g>
	<g>
		<g>
			<path fill="#110239" d="M197.307,192.878c0,0-26.594-0.148-35.93-6.373s-10.968-30.976,2.593-41.091
				c13.561-10.115,16.373-13.227,16.968-19.897c0.596-6.669,0.456-21.803,18.017-21.869c17.228-0.064,15.742,14.046,17.053,23.028
				c0.911,6.253,9.514,15.483,17.046,21.238C242.723,155.306,253.538,199.104,197.307,192.878z"/>
			<path fill="#E45940" d="M194.236,121.067l5.779,0.181l5.782,0.183c0,0,1.17,15.803,4.129,17.771c0,0,3.136,18.724-11.046,18.277
				c-17.165-0.538-9.879-18.934-9.879-18.934C192.077,136.766,194.236,121.067,194.236,121.067z"/>
			<path fill="#007CFF" d="M174.906,193.594h46.643l3.919-15.118c0.614-15.327,0.83-30.971,0.83-30.971
				c-6.675-5.385-17.384-9.256-17.384-9.256c-5.619,4.256-14.169,4.645-19.542,0c0,0-10.6,4.353-17.562,9.256
				c0,0-1.404,6.479-0.708,16.7C171.776,174.084,173.071,183.904,174.906,193.594z"/>
			<path fill="#76A7FF" d="M242.892,193.594c-3.566-17.964-6.884-29.352-9.811-36.105c-3.822-8.826-6.783-9.983-6.783-9.983
				c-3.404-0.309-5.988,28.27-11.832,46.089H242.892z"/>
			<path fill="#0072D8" d="M221.377,167.646c-0.914,2.52-2.55,4.571-4.141,6.832c-1.441,2.052-5.401,13.411-20.922,12.333
				c-6.415-0.445-12.353-6.788-15.002-13.214c-1.089-2.638-1.588-5.205-2.166-7.995c-0.412-1.999-0.546-4.593-1.576-6.353
				c-1.938,0.49-2.153,3.392-2.836,5.069c-0.421,1.033-3.229,4.927-3.451,2.006c0.699,9.166,1.925,18.272,3.626,27.27h50.131
				C224.085,183.071,221.293,170.856,221.377,167.646z"/>
			<path fill="#F88667" d="M212.868,123.86c-1.66-1.792-3.495,1.072-3.495,1.072s0.702-3.197,0.864-6.813
				c-3.832-2.122-7.701-4.597-11.327-5.712v-0.026c-0.009,0.003-0.022,0.009-0.034,0.014c-0.009-0.004-0.022-0.011-0.035-0.014
				v0.026c-3.625,1.115-7.495,3.59-11.327,5.712c0.166,3.616,0.868,6.813,0.868,6.813s-1.835-2.864-3.498-1.072
				c-1.66,1.792,2.44,6.573,3.386,7.164c0,0,3.376,8.231,7.635,10.968c1.104,0.711,4.481,0.901,6.119-0.158
				c4.257-2.752,7.458-10.811,7.458-10.811C210.428,130.433,214.527,125.652,212.868,123.86z"/>
			<g>
				<path fill="#110239" d="M210.219,115.173c0,0-5.826,10.303-20.245,9.32c0,0,0.705,1.22-0.156,3.433c0,0-1.036-4.06-3.27-2.793
					c-1.17,0.663-1.195,2.347,0.022,4.125c0.549,0.8-3.539-0.675-3.539-0.675s-1.688-15.677,8.7-19.242
					C202.115,105.776,210.219,115.173,210.219,115.173z"/>
				<path fill="#110239" d="M205.41,109.792c-0.128,0.752-0.228,1.502-0.219,2.24c0.022,1.601-2.283,2.736-2.343,4.328
					c0.318,0.346,0.633,0.722,0.945,1.114c1.935,2.431,2.783,3.819,3.473,6.849c0.19,0.839-0.28,1.445,1.033,3.736
					c0,0,1.005-4.078,3.498-3.471c0.486,0.119,1.46,0.855,0.602,2.891c-0.312,0.736,2.584-3.035,2.584-3.035
					S214.881,109.471,205.41,109.792z"/>
			</g>
		</g>
		<path fill="#F88667" d="M185.237,262.633c0.552,1.259,3.423,3.183,2.406,4.89c-0.508,0.856-3.104-0.953-3.676-1.693
			c-0.808-1.042-6.387-9.702-7.264-12.2c-0.686-1.957-1.332-3.861-2.1-5.655c2.028-1.202,3.881-2.759,5.579-4.47
			c2.852,1.311,5.878,3.134,8.684,4.365c1.501,0.658,3.155,1.12,4.681,1.687c0.967,0.358,3.023,0.882,3.111,2.175
			c0.1,1.418-1.972,1-2.787,0.836c-1.179-0.237-3.345-1.361-4.178-0.011c-1.214,1.963,2.458,4.24,3.691,5.581
			c1.145,1.241,5.342,5.067,2.271,5.374c-0.646,0.064-5.002-3.68-5.686-4.177c0.141,0.179,2.937,2.882,3.074,3.067
			c0.721,0.976,2.818,3.002,2.19,4.004c-1.338,2.142-5.938-3.508-6.64-4.263c-0.006-0.009,1.754,2.234,1.748,2.227
			c1.492,1.689,2.428,3.119,1.17,3.65C189.927,268.69,186.623,264.054,185.237,262.633z"/>
		<path fill="#76A7FF" d="M184.617,245.321l-9.533,6.351c0,0-30.027-38.891-26.763-53.577c3.863-17.375,13.936-36.798,19.496-45.836
			c2.15-3.496,3.994-4.754,3.994-4.754c5.729,5.507,9.002,13.196,8.266,20.103c-0.331,3.086-1.826,5.094-3.479,8.234
			c-5.067,9.615-11.264,26.286-11.062,27.979C165.863,206.545,184.617,245.321,184.617,245.321z"/>
	</g>
</g>
</svg>
