<?xml version="1.0" encoding="utf-8"?>
<!-- Generator: Adobe Illustrator 16.0.0, SVG Export Plug-In . SVG Version: 6.00 Build 0)  -->
<!DOCTYPE svg PUBLIC "-//W3C//DTD SVG 1.1//EN" "http://www.w3.org/Graphics/SVG/1.1/DTD/svg11.dtd">
<svg version="1.1" id="Layer_1" xmlns="http://www.w3.org/2000/svg" xmlns:xlink="http://www.w3.org/1999/xlink" x="0px" y="0px"
	 width="400px" height="400px" viewBox="0 0 400 400" enable-background="new 0 0 400 400" xml:space="preserve">
<circle fill="#FFFFFF" cx="199.592" cy="199.624" r="199.949"/>
<g>
	<path fill="#00AFD8" d="M333.854,306.291l-8.161-47.116c-2.159-12.465-13.515-24.325-25.887-26.99l-57.878-12.479
		c8.108-10.088,14.509-22.338,19.031-34.597c7.472-2.78,14.949-9.522,17.05-18.219c2.794-11.545-0.331-21.828-7.508-26.268
		l-0.063-8.165c6.38-19.725,9.522-51.91-20.266-69.022c-13.34-7.652-24.365-8.06-32.658-5.291c-1.332-3.358,2.499-8.283,2.499-8.283
		c-6.837-0.178-10.388,3.487-11.879,5.555c-9.15-4.127-21.104-5.839-36.38-2.518c-48.978,10.674-54.74,74.976-45.664,88.978
		c-6.963,4.575-9.869,14.792-6.91,26.181c2.244,8.712,9.879,15.367,17.415,17.996c4.56,12.016,10.958,23.943,19.001,33.819
		l-19.397,3.989l0,0l0,0l-35.877,7.389c-12.401,2.557-23.891,14.304-26.149,26.748l-8.599,47.027
		c-1.177,6.466,0.328,12.622,4.241,17.345c3.904,4.695,9.678,7.303,16.223,7.351l227.127,1.049l0.306-0.003
		c6.466-0.05,12.172-2.618,16.061-7.264C333.455,318.819,334.959,312.713,333.854,306.291z M194.717,255.694l-6.713,27.537
		l-44.809-51.397l19.748-4.064c8.139,7.692,17.617,13.165,28.343,14.957l-5.373,4.866L194.717,255.694z M210.694,283.465
		l-6.48-27.726l8.874-8.038l-5.612-5.16c10.284-1.99,19.367-7.417,27.226-14.952l20.413,4.406L210.694,283.465z M144.374,176.814
		c-3.975,0.878-13.209-4.065-15.091-11.314c-1.923-7.419-0.204-14.375,3.83-15.542c1.188-0.334,2.439-0.096,3.68,0.544
		l-0.086-11.091c0.019-0.036,0.049-0.054,0.068-0.09c-0.028-0.15-0.052-0.361-0.072-0.528l-0.029-3.805
		c0.93-9.417,9.674-27.338,58.786-11.668c16.917,5.412,27.253-3.45,32.397-15.084c16.676,1.729,27.912,20.525,32.257,32.142
		l0.069,9.198c0.592-0.33,1.24-0.573,1.835-0.683c-0.018,0.077-0.008,0.234-0.034,0.289c0.146,0.148,0.379,0.051,0.7-0.253
		c0.388-0.021,0.787-0.083,1.164,0.028c4.059,1.104,5.869,8.034,4.06,15.482c-1.732,7.223-10.843,12.271-14.79,11.543
		c-4.255,13.22-11.949,29.437-22.786,41.198c-1.28,1.355-2.552,2.672-3.902,3.89c-1.452,1.355-2.975,2.586-4.533,3.747
		c-6.707,4.986-14.321,8.148-22.78,8.213c-8.642,0.065-16.384-2.995-23.226-7.92c-1.601-1.161-3.143-2.411-4.637-3.745
		c-1.366-1.241-2.688-2.54-3.965-3.908C156.527,205.98,148.769,190.14,144.374,176.814z M313.205,321.525l-44.35-0.21l0.12-24.294
		c-0.001-2.533-2.072-4.618-4.598-4.653c-0.019-0.001-0.036,0-0.054,0c-2.525,0.019-4.583,2.092-4.583,4.599l-0.12,24.294
		l-119.907-0.563l0.107-24.303c0.007-2.515-2.047-4.638-4.595-4.635c-0.022,0.001-0.041,0-0.058,0.001
		c-2.521,0.019-4.574,2.063-4.583,4.589l-0.106,24.302l-44.381-0.211c-3.778-0.025-7.026-1.442-9.16-3.997
		c-2.135-2.571-2.936-6.055-2.266-9.783l8.599-47.028c1.583-8.698,10.252-17.592,18.927-19.37l30.607-6.312l63.243,72.502
		c0.887,0.984,2.153,1.587,3.491,1.578c0,0,0.011-0.002,0.019-0.002c1.331-0.01,2.593-0.595,3.459-1.593l62.393-72.248l32.444,6.992
		c8.662,1.864,17.217,10.835,18.742,19.543l8.152,47.125c0.643,3.674-0.159,7.123-2.305,9.685c-2.092,2.513-5.335,3.936-9.042,3.965
		l0.034,4.599L313.205,321.525z"/>
</g>
</svg>
