<?xml version="1.0" encoding="utf-8"?>
<!-- Generator: Adobe Illustrator 16.0.0, SVG Export Plug-In . SVG Version: 6.00 Build 0)  -->
<!DOCTYPE svg PUBLIC "-//W3C//DTD SVG 1.1//EN" "http://www.w3.org/Graphics/SVG/1.1/DTD/svg11.dtd">
<svg version="1.1" id="Layer_1" xmlns="http://www.w3.org/2000/svg" xmlns:xlink="http://www.w3.org/1999/xlink" x="0px" y="0px"
	 width="600px" height="500px" viewBox="0 0 600 500" enable-background="new 0 0 600 500" xml:space="preserve">
<g>
	<linearGradient id="SVGID_1_" gradientUnits="userSpaceOnUse" x1="493.333" y1="251.0166" x2="63.8486" y2="251.0166">
		<stop  offset="0" style="stop-color:#6CD2F2"/>
		<stop  offset="0.1724" style="stop-color:#45CAF5"/>
		<stop  offset="0.3153" style="stop-color:#44C9F5"/>
		<stop  offset="0.4877" style="stop-color:#3FC5F5"/>
		<stop  offset="0.7143" style="stop-color:#29ABE2"/>
		<stop  offset="1" style="stop-color:#0071BC"/>
	</linearGradient>
	<circle fill="url(#SVGID_1_)" cx="278.591" cy="251.017" r="214.742"/>
	<linearGradient id="SVGID_2_" gradientUnits="userSpaceOnUse" x1="586.0039" y1="245.3613" x2="586.0039" y2="245.3613">
		<stop  offset="0" style="stop-color:#6CD2F2"/>
		<stop  offset="0.1429" style="stop-color:#45CAF5"/>
		<stop  offset="0.3448" style="stop-color:#3FC5F5"/>
		<stop  offset="0.7291" style="stop-color:#29ABE2"/>
		<stop  offset="1" style="stop-color:#0071BC"/>
	</linearGradient>
	<path fill="url(#SVGID_2_)" d="M586.004,245.361"/>
	<g>
		<g>
			<path fill="#FFFFFF" d="M220.439,250.316c3.396,10.79-0.588,25.954-11.95,45.489c-11.846,20.463-28.287,38.659-49.317,54.585
				c-19.981,15.044-41.769,26.278-65.365,33.704c-32.067,10.091-51.128,5.519-57.184-13.726
				c-3.615-11.484,2.112-24.801,17.183-39.952c13.1-13.313,26.102-21.999,39.011-26.062c4.133-1.301,6.598-0.691,7.391,1.826
				c0.539,1.714-1.209,3.536-5.246,5.47c-11.673,5.778-22.435,13.04-32.286,21.786c-13.88,12.119-19.438,22.56-16.68,31.325
				c3.36,10.679,17.484,12.102,42.371,4.271c20.25-6.373,40.693-17.239,61.331-32.599c21.075-15.718,37.156-32.357,48.241-49.918
				c10.776-17.129,15.18-28.82,13.212-35.073c-1.936-6.149-13.202-7.257-33.795-3.326c-34.082,6.517-53.229,9.938-57.448,10.266
				c-21.389,1.415-34.018-4.029-37.889-16.33c-4.918-15.627,2.049-34.163,20.901-55.608c15.41-17.591,36.584-35.001,63.523-52.234
				c23.623-15.08,43.202-25.063,58.732-29.951c19.865-6.251,31.733-3.232,35.601,9.058c3.33,10.578-1.981,25.925-15.934,46.037
				c-13.504,19.42-25.906,30.906-37.198,34.459c-9.075,2.856-14.596,1.163-16.563-5.086c-1.648-5.236,1.609-13.017,9.777-23.338
				c7.79-9.759,14.457-15.511,20.004-17.256c1.915-0.603,3.064-0.301,3.445,0.908l-12.917,13.365
				c-8.611,8.913-12.707,14.741-12.285,17.485c0.729,0.548,1.696,0.629,2.911,0.247c7.275-2.289,17.731-10.894,31.366-25.815
				c14.454-15.841,20.635-27.088,18.542-33.736c-1.838-5.841-9.825-6.541-23.954-2.095c-16.147,5.081-37.446,16.886-63.892,35.413
				c-17.813,12.482-33.074,24.603-45.788,36.368c-22.027,20.24-31.5,35.253-28.419,45.041c1.969,6.256,11.599,8.328,28.887,6.214
				l50.522-9.026c19.846-3.141,32.693-2.641,38.542,1.503C214.299,238.731,218.504,244.169,220.439,250.316z"/>
		</g>
		<g id="Shape_2_1_">
			<g>
				<path fill="#FFFFFF" d="M121.271,279.733c0,0-24.138,5.949-54.308,5.949c-30.172,0-54.308-5.949-54.308-5.949
					s6.999,17.644,6.999,25.948c0,8.303-6.999,25.946-6.999,25.946s24.136-5.947,54.308-5.947c30.17,0,54.308,5.947,54.308,5.947
					s-7-17.644-7-25.946C114.27,297.377,121.271,279.733,121.271,279.733z"/>
			</g>
		</g>
		<g>
			<path fill="#4591FF" d="M30.568,303.497l1.313-0.783c0.923,1.692,1.991,2.538,3.202,2.538c0.518,0,1.004-0.12,1.459-0.36
				c0.455-0.24,0.801-0.562,1.04-0.966c0.238-0.404,0.357-0.832,0.357-1.285c0-0.516-0.175-1.021-0.525-1.515
				c-0.483-0.683-1.365-1.505-2.646-2.467c-1.288-0.967-2.089-1.668-2.404-2.099c-0.546-0.726-0.819-1.509-0.819-2.352
				c0-0.668,0.161-1.278,0.483-1.828c0.322-0.551,0.775-0.984,1.359-1.301c0.584-0.317,1.22-0.476,1.906-0.476
				c0.728,0,1.408,0.18,2.042,0.538c0.633,0.358,1.303,1.019,2.01,1.98l-1.26,0.95c-0.581-0.767-1.076-1.271-1.485-1.515
				c-0.41-0.244-0.856-0.366-1.338-0.366c-0.623,0-1.132,0.188-1.528,0.564s-0.593,0.839-0.593,1.39
				c0,0.334,0.069,0.658,0.209,0.972s0.396,0.655,0.767,1.024c0.203,0.194,0.868,0.707,1.995,1.535
				c1.337,0.981,2.253,1.856,2.75,2.622c0.497,0.767,0.745,1.536,0.745,2.31c0,1.114-0.425,2.083-1.275,2.904
				c-0.85,0.822-1.884,1.232-3.102,1.232c-0.938,0-1.789-0.248-2.551-0.747C31.915,305.502,31.211,304.668,30.568,303.497z"/>
			<path fill="#4591FF" d="M51.693,290.991l7.202,15.368h-1.667l-2.429-5.056h-6.653l-2.405,5.056h-1.722l7.296-15.368H51.693z
				 M51.499,294.256l-2.646,5.563h5.28L51.499,294.256z"/>
			<path fill="#4591FF" d="M62.583,290.991h1.775l3.951,6.338l3.89-6.338h1.784l-4.892,8.024v7.344H67.57v-7.344L62.583,290.991z"/>
			<path fill="#4591FF" d="M77.441,303.497l1.313-0.783c0.924,1.692,1.991,2.538,3.202,2.538c0.518,0,1.004-0.12,1.459-0.36
				s0.801-0.562,1.039-0.966s0.357-0.832,0.357-1.285c0-0.516-0.175-1.021-0.525-1.515c-0.483-0.683-1.365-1.505-2.646-2.467
				c-1.288-0.967-2.089-1.668-2.404-2.099c-0.546-0.726-0.819-1.509-0.819-2.352c0-0.668,0.161-1.278,0.483-1.828
				c0.322-0.551,0.775-0.984,1.359-1.301c0.584-0.317,1.22-0.476,1.906-0.476c0.728,0,1.408,0.18,2.042,0.538
				c0.633,0.358,1.304,1.019,2.01,1.98l-1.26,0.95c-0.581-0.767-1.076-1.271-1.485-1.515c-0.409-0.244-0.855-0.366-1.338-0.366
				c-0.623,0-1.132,0.188-1.527,0.564c-0.396,0.376-0.593,0.839-0.593,1.39c0,0.334,0.07,0.658,0.21,0.972s0.396,0.655,0.766,1.024
				c0.203,0.194,0.868,0.707,1.995,1.535c1.336,0.981,2.253,1.856,2.75,2.622c0.497,0.767,0.746,1.536,0.746,2.31
				c0,1.114-0.425,2.083-1.275,2.904c-0.85,0.822-1.885,1.232-3.102,1.232c-0.938,0-1.789-0.248-2.551-0.747
				C78.789,305.502,78.085,304.668,77.441,303.497z"/>
			<path fill="#4591FF" d="M92.31,290.991h1.543v9.278c0,1.1,0.021,1.785,0.063,2.057c0.077,0.606,0.255,1.113,0.536,1.521
				c0.28,0.406,0.71,0.748,1.291,1.023s1.166,0.413,1.753,0.413c0.51,0,1-0.108,1.47-0.324c0.468-0.216,0.86-0.515,1.176-0.898
				c0.315-0.384,0.546-0.847,0.692-1.39c0.105-0.39,0.158-1.191,0.158-2.402v-9.278h1.543v9.278c0,1.371-0.134,2.48-0.404,3.327
				c-0.269,0.846-0.808,1.583-1.616,2.21c-0.808,0.626-1.787,0.939-2.934,0.939c-1.246,0-2.313-0.296-3.202-0.888
				c-0.889-0.592-1.484-1.376-1.785-2.351c-0.189-0.6-0.284-1.679-0.284-3.238V290.991z"/>
		</g>
		<g>
			<path fill="#4591FF" d="M28.238,318.561l0.737-0.441c0.519,0.954,1.118,1.432,1.797,1.432c0.291,0,0.563-0.068,0.819-0.203
				c0.255-0.136,0.45-0.317,0.583-0.545c0.134-0.229,0.201-0.47,0.201-0.725c0-0.291-0.099-0.576-0.295-0.855
				c-0.271-0.385-0.766-0.849-1.485-1.39c-0.723-0.546-1.173-0.941-1.35-1.185c-0.307-0.408-0.459-0.852-0.459-1.326
				c0-0.377,0.09-0.722,0.271-1.031c0.181-0.311,0.435-0.555,0.763-0.733c0.328-0.179,0.684-0.269,1.069-0.269
				c0.408,0,0.791,0.102,1.146,0.304c0.355,0.202,0.731,0.574,1.128,1.117l-0.707,0.536c-0.326-0.433-0.604-0.718-0.834-0.855
				c-0.23-0.137-0.48-0.206-0.751-0.206c-0.349,0-0.635,0.106-0.857,0.318s-0.333,0.474-0.333,0.783
				c0,0.189,0.039,0.372,0.118,0.549s0.222,0.369,0.43,0.577c0.114,0.11,0.487,0.399,1.12,0.866c0.75,0.555,1.265,1.047,1.544,1.479
				c0.279,0.432,0.418,0.866,0.418,1.302c0,0.629-0.239,1.175-0.716,1.639c-0.478,0.464-1.058,0.695-1.742,0.695
				c-0.526,0-1.003-0.141-1.432-0.421C28.995,319.691,28.6,319.221,28.238,318.561z"/>
			<path fill="#4591FF" d="M40.924,311.289c1.313,0,2.412,0.438,3.296,1.314c0.885,0.876,1.327,1.954,1.327,3.234
				c0,1.27-0.441,2.346-1.324,3.23c-0.883,0.884-1.959,1.325-3.229,1.325c-1.286,0-2.371-0.44-3.255-1.32s-1.327-1.944-1.327-3.194
				c0-0.832,0.202-1.604,0.604-2.315c0.403-0.711,0.952-1.268,1.648-1.67C39.361,311.49,40.114,311.289,40.924,311.289z
				 M40.962,312.132c-0.641,0-1.249,0.167-1.824,0.501c-0.575,0.335-1.023,0.784-1.346,1.352c-0.323,0.565-0.484,1.196-0.484,1.893
				c0,1.029,0.357,1.9,1.071,2.609c0.714,0.71,1.575,1.064,2.582,1.064c0.673,0,1.295-0.163,1.868-0.489s1.019-0.772,1.34-1.339
				c0.321-0.565,0.481-1.195,0.481-1.888c0-0.688-0.161-1.31-0.481-1.866s-0.772-1.001-1.355-1.336
				C42.233,312.299,41.616,312.132,40.962,312.132z"/>
			<path fill="#4591FF" d="M48.937,311.507h0.866v7.832h3.335v0.837h-4.202V311.507z"/>
			<path fill="#4591FF" d="M56.193,311.507h0.866v5.232c0,0.621,0.012,1.009,0.035,1.161c0.043,0.342,0.144,0.628,0.301,0.858
				c0.157,0.229,0.398,0.422,0.725,0.577c0.326,0.154,0.654,0.232,0.984,0.232c0.286,0,0.562-0.061,0.825-0.183
				s0.483-0.29,0.66-0.507c0.177-0.216,0.307-0.477,0.389-0.784c0.059-0.22,0.088-0.671,0.088-1.355v-5.232h0.866v5.232
				c0,0.774-0.075,1.399-0.227,1.878c-0.151,0.477-0.454,0.893-0.907,1.246c-0.454,0.354-1.003,0.53-1.647,0.53
				c-0.699,0-1.298-0.167-1.797-0.501s-0.833-0.775-1.002-1.326c-0.106-0.338-0.159-0.947-0.159-1.827V311.507z"/>
			<path fill="#4591FF" d="M64.857,312.356v-0.85h4.75v0.85h-1.933v7.819H66.79v-7.819H64.857z"/>
			<path fill="#4591FF" d="M72.384,311.507h0.866v8.669h-0.866V311.507z"/>
			<path fill="#4591FF" d="M81.016,311.289c1.313,0,2.412,0.438,3.296,1.314c0.885,0.876,1.327,1.954,1.327,3.234
				c0,1.27-0.442,2.346-1.324,3.23c-0.883,0.884-1.958,1.325-3.229,1.325c-1.286,0-2.371-0.44-3.255-1.32s-1.327-1.944-1.327-3.194
				c0-0.832,0.202-1.604,0.604-2.315c0.402-0.711,0.952-1.268,1.648-1.67C79.453,311.49,80.206,311.289,81.016,311.289z
				 M81.054,312.132c-0.641,0-1.25,0.167-1.824,0.501c-0.575,0.335-1.023,0.784-1.346,1.352c-0.323,0.565-0.484,1.196-0.484,1.893
				c0,1.029,0.357,1.9,1.071,2.609c0.714,0.71,1.575,1.064,2.583,1.064c0.673,0,1.295-0.163,1.868-0.489
				c0.572-0.326,1.019-0.772,1.339-1.339c0.321-0.565,0.481-1.195,0.481-1.888c0-0.688-0.161-1.31-0.481-1.866
				s-0.772-1.001-1.354-1.336C82.325,312.299,81.708,312.132,81.054,312.132z"/>
			<path fill="#4591FF" d="M89.035,320.176v-8.669h0.188l5.769,6.645v-6.645h0.854v8.669h-0.194l-5.722-6.564v6.564H89.035z"/>
			<path fill="#4591FF" d="M98.712,318.561l0.737-0.441c0.519,0.954,1.118,1.432,1.797,1.432c0.291,0,0.564-0.068,0.819-0.203
				c0.255-0.136,0.45-0.317,0.583-0.545c0.134-0.229,0.201-0.47,0.201-0.725c0-0.291-0.098-0.576-0.294-0.855
				c-0.271-0.385-0.767-0.849-1.485-1.39c-0.723-0.546-1.172-0.941-1.349-1.185c-0.307-0.408-0.46-0.852-0.46-1.326
				c0-0.377,0.09-0.722,0.271-1.031c0.181-0.311,0.435-0.555,0.763-0.733s0.685-0.269,1.069-0.269c0.409,0,0.791,0.102,1.146,0.304
				s0.732,0.574,1.128,1.117l-0.707,0.536c-0.326-0.433-0.604-0.718-0.834-0.855c-0.23-0.137-0.48-0.206-0.751-0.206
				c-0.35,0-0.635,0.106-0.857,0.318c-0.222,0.212-0.333,0.474-0.333,0.783c0,0.189,0.039,0.372,0.118,0.549s0.222,0.369,0.43,0.577
				c0.114,0.11,0.487,0.399,1.12,0.866c0.75,0.555,1.265,1.047,1.544,1.479c0.279,0.432,0.418,0.866,0.418,1.302
				c0,0.629-0.239,1.175-0.716,1.639c-0.477,0.464-1.058,0.695-1.741,0.695c-0.526,0-1.004-0.141-1.432-0.421
				C99.469,319.691,99.074,319.221,98.712,318.561z"/>
		</g>
	</g>
	<g>
		<path fill-rule="evenodd" clip-rule="evenodd" fill="#9FB2D9" d="M350.757,275.801c0-0.251-0.203-0.455-0.455-0.455
			s-0.456,0.204-0.456,0.455v1.072h-1.07c-0.252,0-0.456,0.203-0.456,0.455s0.204,0.455,0.456,0.455h1.07v1.071
			c0,0.251,0.204,0.456,0.456,0.456s0.455-0.205,0.455-0.456v-1.071h1.071c0.252,0,0.456-0.203,0.456-0.455
			s-0.204-0.455-0.456-0.455h-1.071V275.801z"/>
		<g>
			<path fill-rule="evenodd" clip-rule="evenodd" fill="#E1E8F6" d="M235.63,402.574h-29.131h-0.758
				c-16.086,0-29.247,13.161-29.247,29.248l0,0c0,16.086,13.161,29.247,29.247,29.247h85.385h14.706h152.637
				c26.049,0,47.359-21.313,47.359-47.359v-0.001c0-26.048-21.311-47.358-47.359-47.359l0,0c-11.013,0-20.023-9.012-20.023-20.025
				l0,0c0-11.014,9.011-20.024,20.023-20.024h24.101c11.451,0,20.818-9.368,20.818-20.819l0,0c0-11.451-9.367-20.819-20.818-20.819
				h-30.476c-4.457,0-8.104-3.647-8.104-8.105l0,0c0-4.458,3.647-8.105,8.104-8.105h5.373c3.076,0,5.593-2.517,5.593-5.593l0,0
				c0-3.077-2.518-5.595-5.593-5.595h-20.135c0,0-7.693,0-15.117,0s-8.251,8.771-27.004,8.771c-28.989,0-14.494,0-43.483,0
				c-4.015,0-7.299,3.285-7.299,7.299l0,0c0,4.015,3.284,7.3,7.299,7.3h7.01c5.816,0,10.576,4.76,10.576,10.576v0.001
				c0,5.816-4.76,10.575-10.576,10.575H337.64c-28.488,0-32.512,7.444-37.501,22.253c-4.989,14.807-30.901,16-30.901,16h-35.432
				c-8.766,0-15.938,7.173-15.938,15.938l0,0c0,8.767,7.173,15.938,15.938,15.938h1.825c8.431,0,15.33,6.897,15.33,15.33l0,0
				C250.96,395.676,244.061,402.574,235.63,402.574L235.63,402.574z M473.164,268.45c-3.09,0-5.595-2.504-5.595-5.593
				c0-3.09,2.505-5.595,5.595-5.595s5.594,2.505,5.594,5.595C478.758,265.946,476.254,268.45,473.164,268.45z"/>
			<g>
				<g>
					<path fill-rule="evenodd" clip-rule="evenodd" fill="#B4C5E6" d="M434.175,354.29c3.028-4.393,9.377-11.697,21.512-18.968
						c19.195-11.502,33.738-26.745,27.347-35.764c-6.271-8.852-34.384,8.243-57.73,50.973
						C428.735,352.327,431.669,353.539,434.175,354.29z"/>
					<path fill-rule="evenodd" clip-rule="evenodd" fill="#FFFFFF" d="M430.426,350.385c0.531-0.026,1.938-0.025,3.786,0.518
						c0.129,0.038,0.265-0.035,0.303-0.164s-0.036-0.265-0.164-0.303c-1.617-0.477-2.927-0.55-3.636-0.545
						c0.415-0.703,0.831-1.398,1.245-2.082c0.848-0.019,3.58-0.073,4.606-0.017c0.134,0.008,0.25-0.096,0.257-0.23
						c0.008-0.135-0.095-0.249-0.229-0.257c-0.943-0.052-3.261-0.013-4.334,0.008c0.778-1.274,1.558-2.513,2.335-3.719
						c0.82,0.015,3.363,0.089,6.176,0.468c0.134,0.018,0.258-0.076,0.275-0.21c0.018-0.133-0.075-0.256-0.209-0.274
						c-2.55-0.342-4.886-0.438-5.934-0.465c0.786-1.212,1.573-2.388,2.357-3.529c1.125,0.02,4.78,0.122,8.82,0.665
						c0.134,0.018,0.257-0.076,0.274-0.21c0.018-0.133-0.076-0.256-0.209-0.274c-3.738-0.503-7.145-0.631-8.553-0.663
						c1.033-1.493,2.063-2.928,3.087-4.306c1.175-0.051,6.048-0.176,9.707,0.998c0.128,0.042,0.267-0.028,0.307-0.157
						c0.042-0.128-0.027-0.266-0.156-0.307c-3.41-1.094-7.833-1.084-9.488-1.034c1.262-1.684,2.513-3.277,3.753-4.793
						c1.604,0.091,8.055,0.58,11.073,2.717c0.109,0.077,0.261,0.052,0.339-0.06c0.077-0.11,0.051-0.262-0.059-0.339
						c-2.929-2.073-8.892-2.645-10.969-2.783c1.318-1.595,2.621-3.1,3.905-4.516c1.171,0.266,6.065,1.456,10.668,3.767
						c0.121,0.062,0.267,0.013,0.328-0.106c0.06-0.121,0.012-0.268-0.107-0.327c-4.361-2.19-8.976-3.384-10.514-3.746
						c0.761-0.832,1.515-1.632,2.262-2.404c1.121,0.229,5.891,1.32,12.202,4.375c0.121,0.059,0.268,0.008,0.326-0.113
						c0.059-0.122,0.008-0.268-0.112-0.325c-5.891-2.852-10.463-4.007-12.012-4.348c1.774-1.813,3.504-3.463,5.176-4.957
						c1.416,0.468,8.59,2.897,12.362,5.296c0.113,0.072,0.264,0.039,0.337-0.075c0.072-0.113,0.038-0.264-0.074-0.335
						c-3.624-2.305-10.3-4.622-12.202-5.259c0.976-0.861,1.933-1.672,2.865-2.433c1.214,0.412,6.773,2.368,11.847,5.309
						c0.116,0.067,0.266,0.028,0.332-0.088c0.068-0.117,0.028-0.266-0.088-0.334c-4.78-2.77-9.984-4.673-11.644-5.249
						c2.186-1.756,4.242-3.244,6.14-4.498c1.199,0.283,6.617,1.64,10.684,3.999c0.116,0.068,0.265,0.028,0.333-0.089
						c0.067-0.115,0.028-0.264-0.087-0.333c-3.74-2.168-8.589-3.498-10.37-3.942c0.785-0.509,1.539-0.975,2.265-1.405
						c0.969,0.099,4.569,0.563,9.227,2.35c0.126,0.048,0.268-0.015,0.315-0.14c0.049-0.126-0.015-0.268-0.141-0.316
						c-3.975-1.524-7.203-2.099-8.708-2.301c5.842-3.373,9.471-4.23,9.501-4.238c0.195-0.049,0.314-0.248,0.265-0.443
						c-0.049-0.196-0.247-0.314-0.444-0.266c-0.021,0.005-1.615,0.383-4.387,1.608c0.759-0.957,1.835-2.279,2.12-2.454
						c0.115-0.068,0.151-0.219,0.081-0.334c-0.07-0.114-0.22-0.15-0.335-0.081c-0.44,0.27-2.223,2.529-2.834,3.311
						c-1.123,0.527-2.4,1.178-3.817,1.979l2.407-4.785c0.061-0.12,0.012-0.267-0.107-0.327c-0.12-0.061-0.267-0.012-0.327,0.108
						l-2.74,5.445c-0.971,0.568-2.001,1.204-3.081,1.913l2.596-5.673c0.057-0.123,0.003-0.267-0.118-0.323
						c-0.123-0.056-0.268-0.003-0.324,0.119l-2.924,6.39c-1.619,1.091-3.345,2.342-5.162,3.783l2.251-5.879
						c0.047-0.126-0.016-0.267-0.142-0.315c-0.126-0.048-0.266,0.014-0.315,0.14l-2.549,6.663c-0.828,0.673-1.674,1.379-2.537,2.132
						l1.907-5.298c0.046-0.127-0.02-0.267-0.146-0.313c-0.127-0.046-0.268,0.019-0.313,0.146l-2.209,6.131
						c-1.597,1.42-3.249,2.979-4.939,4.688l1.438-5.173c0.035-0.13-0.041-0.265-0.171-0.301c-0.129-0.035-0.264,0.04-0.299,0.17
						l-1.673,6.021c-0.671,0.689-1.349,1.404-2.029,2.142l0.806-3.95c0.026-0.132-0.059-0.26-0.19-0.288
						c-0.132-0.026-0.26,0.059-0.288,0.19l-0.966,4.742c-1.269,1.393-2.555,2.87-3.854,4.434l0.751-4.403
						c0.023-0.132-0.066-0.258-0.199-0.28s-0.259,0.066-0.28,0.199l-0.894,5.234c-1.139,1.391-2.286,2.853-3.443,4.383l0.49-3.911
						c0.017-0.135-0.077-0.257-0.212-0.273c-0.134-0.017-0.255,0.078-0.273,0.211l-0.594,4.761c-1.01,1.354-2.021,2.762-3.039,4.227
						l0.024-3.53c0-0.135-0.107-0.245-0.242-0.247c-0.134,0-0.245,0.107-0.245,0.242l-0.031,4.246
						c-0.735,1.07-1.472,2.173-2.21,3.304l-0.379-3.01c-0.017-0.133-0.139-0.229-0.272-0.211c-0.133,0.017-0.227,0.138-0.211,0.271
						l0.45,3.585c-0.677,1.051-1.357,2.126-2.037,3.229l-0.354-1.945c-0.024-0.133-0.152-0.221-0.284-0.196s-0.22,0.151-0.195,0.284
						l0.45,2.48c-0.506,0.83-1.013,1.678-1.52,2.537l-0.807-1.596c-0.061-0.12-0.207-0.168-0.327-0.107
						c-0.119,0.062-0.168,0.207-0.107,0.327l0.948,1.876c-0.413,0.705-0.826,1.42-1.238,2.146c0.226,0.103,0.449,0.204,0.671,0.302
						C429.636,351.744,430.03,351.061,430.426,350.385z"/>
				</g>
				<g>
					<path fill-rule="evenodd" clip-rule="evenodd" fill="#9FB2D9" d="M430.695,356.776c3.243-2.05,8.966-4.798,17.609-6.03
						c14.668-2.091,27.761-8.104,26.769-16.122c-0.954-7.725-21.746-4.751-47.624,16.209l3.232,5.921L430.695,356.776z"/>
					<path fill-rule="evenodd" clip-rule="evenodd" fill="#B4C5E6" d="M471.115,335.819c0.277-0.002,0.502-0.229,0.5-0.506
						c-0.002-0.278-0.229-0.502-0.507-0.5c-0.019,0.001-1.651-0.005-4.445,0.373l2.394-1.615c0.153-0.104,0.193-0.312,0.091-0.465
						c-0.104-0.153-0.313-0.194-0.466-0.09l-3.555,2.4c-1.302,0.214-2.782,0.502-4.414,0.892l2.514-2.399
						c0.134-0.128,0.14-0.341,0.01-0.475c-0.126-0.135-0.339-0.14-0.473-0.012l-3.369,3.218c-1.696,0.442-3.531,0.991-5.477,1.674
						l2.104-2.164c0.129-0.133,0.126-0.345-0.007-0.475c-0.132-0.128-0.345-0.126-0.473,0.007l-3.072,3.16
						c-2.034,0.765-4.174,1.672-6.39,2.753l1.777-2.285c0.114-0.146,0.089-0.356-0.057-0.47c-0.146-0.114-0.356-0.089-0.47,0.058
						l-2.643,3.396c-2.076,1.068-4.209,2.287-6.377,3.68l0.729-1.554c0.079-0.167,0.006-0.366-0.161-0.445
						c-0.168-0.079-0.367-0.006-0.445,0.161l-1.191,2.539c-1.645,1.095-3.303,2.288-4.969,3.595l0.667-1.581
						c0.072-0.172-0.008-0.368-0.179-0.439c-0.17-0.072-0.367,0.008-0.438,0.179l-1.148,2.719c-0.811,0.659-1.622,1.344-2.434,2.057
						l0.495,0.907c0.812-0.718,1.622-1.406,2.432-2.067c0.83,0.053,2.816,0.222,3.652,0.66c0.163,0.087,0.365,0.023,0.453-0.14
						c0.087-0.163,0.023-0.366-0.14-0.453c-0.739-0.388-2.191-0.585-3.205-0.68c0.642-0.51,1.281-1.005,1.92-1.482
						c0.815,0.136,2.814,0.528,4.146,1.282c0.161,0.091,0.365,0.034,0.456-0.127s0.035-0.366-0.127-0.456
						c-1.142-0.648-2.723-1.042-3.741-1.246c1.321-0.963,2.634-1.857,3.933-2.689c1.117,0.462,4.651,1.965,6.039,3.105
						c0.142,0.117,0.353,0.097,0.471-0.047c0.118-0.142,0.098-0.353-0.045-0.471c-1.302-1.07-4.333-2.415-5.772-3.024
						c1.394-0.87,2.772-1.67,4.127-2.401c1.116,0.429,4.747,1.901,7.142,3.797c0.145,0.115,0.355,0.09,0.471-0.056
						c0.114-0.146,0.09-0.356-0.056-0.471c-2.156-1.707-5.272-3.075-6.781-3.684c0.671-0.353,1.336-0.689,1.995-1.01
						c1.157,0.367,5.072,1.728,8.699,4.354c0.149,0.108,0.358,0.076,0.468-0.074c0.109-0.148,0.077-0.358-0.073-0.467
						c-3.174-2.301-6.569-3.651-8.225-4.229c2.39-1.124,4.682-2.046,6.836-2.8c1.279,0.793,6.24,3.91,8.41,5.973
						c0.133,0.128,0.347,0.122,0.474-0.012s0.121-0.347-0.013-0.474c-2.008-1.909-6.298-4.669-8.053-5.769
						c1.612-0.543,3.142-0.991,4.567-1.361c1.151,0.88,5.403,4.134,6.389,4.984c0.139,0.121,0.351,0.105,0.472-0.033
						c0.122-0.141,0.106-0.352-0.033-0.473c-0.903-0.779-4.462-3.513-5.998-4.688c1.867-0.459,3.542-0.785,4.979-1.015
						c1.034,0.898,3.521,3.068,4.104,3.65c0.13,0.132,0.343,0.132,0.474,0c0.131-0.131,0.131-0.343,0-0.475
						c-0.519-0.518-2.525-2.275-3.707-3.306C469.347,335.814,471.096,335.819,471.115,335.819z"/>
				</g>
				<path fill-rule="evenodd" clip-rule="evenodd" fill="#9FB2D9" d="M357.317,363.82c-0.214-2.923-0.312-5.759-0.301-8.512
					c0.01-2.796,0.134-5.492,0.365-8.089c0.865-9.714,3.227-18.095,6.743-25.253c3.806-7.747,8.965-14.062,15.057-19.089
					c5.644-4.658,12.081-8.204,18.976-10.755c7.396-2.734,15.321-4.325,23.359-4.914c2.713-0.199,5.449-0.282,8.19-0.258
					c2.774,0.024,5.544,0.163,8.292,0.407v-0.002c0.312,0.027,0.583,0.179,0.771,0.403c0.187,0.222,0.288,0.513,0.261,0.824
					l-0.011,0.079c-0.112,1.07-2.583,24.019-13.764,44.754c-11.31,20.975-31.492,39.693-67.063,31.449
					c-0.254-0.059-0.469-0.2-0.622-0.388C357.421,364.295,357.33,364.065,357.317,363.82L357.317,363.82L357.317,363.82z
					 M437.78,289.156c-1.332,0.52-6.801,2.743-14.476,7.076c2.992,0.533,9.777,1.793,12.823,2.766
					C437.139,294.124,437.613,290.557,437.78,289.156L437.78,289.156z M435.902,300.065l-0.013-0.004
					c-3.519-1.148-12.695-2.75-14.063-2.985c-3.817,2.211-8.117,4.914-12.686,8.156l23.811,6.262
					C434.221,307.306,435.183,303.413,435.902,300.065L435.902,300.065z M432.633,312.532l-24.639-6.48
					c-4.248,3.07-8.709,6.601-13.218,10.626c4.887,1.49,28.247,8.65,32.205,10.651C429.311,322.286,431.166,317.238,432.633,312.532
					L432.633,312.532z M426.521,328.309c-3.982-2.039-29.769-9.898-32.686-10.785c-3.601,3.269-7.224,6.854-10.785,10.775
					l36.697,11.715c0.045,0.014,0.088,0.034,0.127,0.059c1.579-2.346,3.023-4.763,4.345-7.213
					C425.033,331.352,425.8,329.831,426.521,328.309L426.521,328.309z M419.245,340.993l-36.992-11.81
					c-2.77,3.098-5.496,6.399-8.141,9.914c5.978,2.022,36.605,11.551,36.696,11.579c0.086,0.027,0.16,0.073,0.219,0.131
					C414.098,347.804,416.823,344.485,419.245,340.993L419.245,340.993z M410.184,351.617c-3.243-1.01-31.908-9.938-36.753-11.606
					c-2.267,3.061-4.468,6.279-6.581,9.663c7.235,3.573,31.559,9.887,31.633,9.905c0.145,0.038,0.262,0.131,0.331,0.251
					C403.034,357.585,406.811,354.791,410.184,351.617L410.184,351.617z M397.577,360.466c-3.898-1.025-24.707-6.575-31.302-9.866
					c-1.347,2.193-2.656,4.456-3.922,6.788c2.777,1.096,15.221,5.871,23.258,6.693c0.23,0.022,0.411,0.185,0.471,0.393
					C390.231,363.58,394.055,362.213,397.577,360.466L397.577,360.466z M383.705,364.926c-8.233-1.285-19.498-5.639-21.867-6.578
					c-0.956,1.794-1.885,3.628-2.784,5.504C368.298,365.924,376.477,366.13,383.705,364.926L383.705,364.926z M358.418,362.668
					c0.835-1.717,1.693-3.398,2.575-5.046c-1.109-3.08-1.934-8.414-2.335-11.405c-0.037,0.366-0.073,0.734-0.106,1.104
					c-0.229,2.564-0.351,5.226-0.361,7.987C358.182,357.678,358.256,360.131,358.418,362.668L358.418,362.668z M358.99,343.422
					c0.244,0.03,0.443,0.224,0.473,0.479c0.002,0.024,0.865,7.856,2.24,12.41c1.223-2.23,2.488-4.399,3.787-6.504
					c-0.438-1.492-2.795-9.846-3.59-19.242C360.602,334.531,359.617,338.813,358.99,343.422L358.99,343.422z M362.521,328.761
					c0.199,0.068,0.348,0.25,0.364,0.474c0.586,8.542,2.58,16.436,3.377,19.329c2.049-3.248,4.179-6.345,6.368-9.294
					c-0.64-1.888-4.345-13.137-4.861-21.496c-0.923,1.506-1.788,3.075-2.59,4.709C364.199,324.478,363.311,326.568,362.521,328.761
					L362.521,328.761z M368.562,316.517c0.146,0.093,0.247,0.254,0.255,0.439c0.289,7.564,3.55,18.037,4.605,21.256
					c2.609-3.453,5.298-6.7,8.025-9.751c-4.876-10.331-5.61-18.747-5.721-20.842C373.09,310.282,370.686,313.242,368.562,316.517
					L368.562,316.517z M376.637,306.723c0.094,0.095,0.154,0.226,0.156,0.371c0.001,0.026,0.102,8.972,5.442,20.493
					c3.57-3.932,7.204-7.529,10.817-10.81c-2.188-4.926-4.301-17.19-4.584-18.868c-3.006,1.714-5.865,3.667-8.541,5.876
					C378.798,304.719,377.699,305.697,376.637,306.723L376.637,306.723z M389.445,297.364c0.029,0.054,0.052,0.114,0.062,0.178
					c0.007,0.039,2.158,13.105,4.397,18.467c4.562-4.083,9.08-7.665,13.383-10.776c-1.583-6.313-1.546-13.159-1.529-14.262
					c-2.443,0.639-4.847,1.391-7.195,2.259C395.414,294.395,392.363,295.769,389.445,297.364L389.445,297.364z M406.83,290.697
					c0.012,0.046,0.018,0.094,0.017,0.143c-0.001,0.022-0.188,7.096,1.39,13.711c4.65-3.314,9.029-6.076,12.92-8.334
					c-0.48-3.507-0.206-7.158-0.154-7.787C416.202,288.812,411.448,289.558,406.83,290.697L406.83,290.697z M422.092,288.349
					c0.001,0.028,0.001,0.057-0.002,0.086c-0.001,0.011-0.342,3.618,0.084,7.196c7.067-4.032,12.374-6.333,14.508-7.203
					c-2.317-0.18-4.648-0.281-6.984-0.302C427.173,288.104,424.633,288.177,422.092,288.349z"/>
			</g>
			<g>
				<path fill-rule="evenodd" clip-rule="evenodd" fill="#9FB2D9" d="M271.44,432.489c0,0-10.796-5.568-8.817-19.239
					c1.979-13.672-6.381-17.994-8.502-22.062c-2.122-4.066,2.633-10.625,2.093-16.368c-0.541-5.742-7.164-7.279-4.061-15.156
					s0.478-10.869-3.608-19.308c-4.086-8.438,1.969-21.334,4.846-21.263c2.878,0.071-0.63,3.087,1.899,8.697
					c2.53,5.608,13.198,7.316,16.537,12.007c3.338,4.69-2.529,10.903,1.28,17.235c3.809,6.331,15.16,4.367,18.161,10.511
					c3.001,6.145-4.154,13.507-2.073,19.948c2.081,6.441,9.747,10.091,12.973,15.267c3.226,5.174,9.268,15.087-0.626,26.923
					C291.646,441.517,271.44,432.489,271.44,432.489z"/>
				<g>
					<path fill-rule="evenodd" clip-rule="evenodd" fill="#B4C5E6" d="M252.208,330.799c-0.139-0.362,0.041-0.769,0.402-0.908
						c0.362-0.139,0.769,0.04,0.908,0.402l44.658,116.012l-1.681-0.457L252.208,330.799z"/>
					<path fill-rule="evenodd" clip-rule="evenodd" fill="#B4C5E6" d="M262.49,418.624c-0.057-0.54-0.092-1.097-0.104-1.671
						l29.333,16.485l-2.595-6.742c-0.013-0.027-0.024-0.058-0.033-0.086l-1.33-3.457l-24.838-13.958
						c-0.002-0.567-0.023-1.117-0.062-1.646l24.106,13.548l-2.347-6.098l-22.945-12.895c-0.295-0.775-0.63-1.496-0.993-2.17
						l23.146,13.007l-1.166-3.027c-0.014-0.03-0.026-0.061-0.036-0.092l-5.097-13.242l-22.968-12.907
						c0.135-0.455,0.276-0.914,0.416-1.378l21.761,12.229l-2.545-6.61l-18.095-10.169c0.077-0.511,0.129-1.022,0.149-1.528
						l17.154,9.641l-1.914-4.973c-0.011-0.023-0.02-0.047-0.028-0.07l-5.562-14.447l-13.429-7.547
						c0.169-0.472,0.315-0.925,0.441-1.364l12.196,6.854l-4.856-12.614c-0.011-0.024-0.021-0.049-0.028-0.074l-8.016-20.822
						c-0.139-0.362,0.041-0.769,0.402-0.908c0.362-0.139,0.769,0.04,0.908,0.402l7.283,18.922l4.163-14.22
						c0.43,0.217,0.856,0.433,1.275,0.652l-4.605,15.73l5.473,14.218c0.008,0.018,0.016,0.037,0.022,0.057l5.062,13.147
						l7.992-17.133c0.45,0.144,0.903,0.281,1.358,0.415l-8.648,18.542l1.929,5.012l10.53-22.398
						c0.453,0.155,0.895,0.319,1.322,0.496l-11,23.399l0.167,0.094c0.339,0.189,0.459,0.617,0.27,0.956
						c-0.055,0.099-0.13,0.179-0.217,0.237l2.843,7.386c0.009,0.022,0.018,0.043,0.025,0.064l4.603,11.956l7.8-16.59
						c0.307,0.419,0.634,0.827,0.978,1.228l-8.078,17.182l1.184,3.075l8.649-18.398c0.353,0.345,0.712,0.685,1.076,1.021
						l-9.026,19.196l3.019,7.842c0.009,0.021,0.016,0.039,0.023,0.061l0.836,2.17l11.08-23.569c0.347,0.411,0.67,0.831,0.964,1.26
						l-11.344,24.129l3.193,8.292c0.008,0.019,0.016,0.038,0.022,0.058l0.01,0.024c-0.554,0.174-1.113,0.321-1.676,0.444
						L262.49,418.624z"/>
				</g>
			</g>
			<g>
				<path fill-rule="evenodd" clip-rule="evenodd" fill="#C0CDEA" d="M266.418,461.149c-2.97-2.311-6.023-3.358-7.639-4.854
					c-3.217-2.977-1.049-10.407-3.383-15.399c-2.335-4.994-8.788-4.244-8.53-12.33c0.257-8.086-3.068-9.933-9.46-16.21
					c-6.391-6.276-5.093-19.826-2.481-20.688c2.611-0.862,0.426,2.98,4.506,7.214c4.081,4.231,14.229,2.336,18.742,5.48
					c4.513,3.145,1.233,10.624,6.698,15.094c5.464,4.472,15.044-0.948,19.721,3.613c4.677,4.562,0.609,13.488,4.554,18.614
					c3.945,5.125,12.016,5.942,16.584,9.56c2.568,2.033,6.419,5.129,8.393,9.906H266.418z"/>
				<path fill-rule="evenodd" clip-rule="evenodd" fill="#E1E8F6" d="M288.066,461.149l-6.49-7.536l-24.817-4.222
					c-0.024-0.453-0.045-0.911-0.069-1.374l23.513,4l-4.417-5.128l-19.552-3.326c-0.096-0.485-0.213-0.962-0.358-1.423l18.536,3.154
					l-3.322-3.859c-0.017-0.017-0.032-0.036-0.047-0.056l-9.653-11.207l-14.51-2.468c0-0.479-0.014-0.935-0.042-1.37l13.178,2.241
					l-8.428-9.785c-0.018-0.019-0.034-0.037-0.049-0.058l-13.912-16.154c-0.242-0.28-0.21-0.704,0.07-0.946
					c0.28-0.242,0.704-0.21,0.946,0.071l12.642,14.679l-0.831-14.133c0.457,0.056,0.91,0.113,1.357,0.176l0.919,15.635l9.499,11.029
					c0.013,0.015,0.026,0.03,0.038,0.045l8.785,10.2l1.676-17.986c0.451-0.014,0.903-0.037,1.355-0.063l-1.814,19.464l3.348,3.888
					l2.266-23.538c0.458-0.007,0.908-0.002,1.35,0.021l-2.367,24.591l0.181,0.031c0.365,0.061,0.612,0.406,0.55,0.773
					c-0.018,0.105-0.06,0.201-0.118,0.283l4.934,5.729c0.015,0.017,0.029,0.033,0.043,0.05l7.382,8.571H288.066L288.066,461.149z
					 M290.511,461.149l1.611-16.731c0.411,0.278,0.838,0.541,1.275,0.79l-1.535,15.941H290.511L290.511,461.149z M294.146,461.149
					l1.428-14.835c0.428,0.197,0.861,0.387,1.297,0.573l-1.374,14.262H294.146L294.146,461.149z M302.979,461.149l1.063-11.043
					c0.444,0.259,0.869,0.532,1.272,0.823l-0.984,10.22H302.979z"/>
			</g>
			<path fill-rule="evenodd" clip-rule="evenodd" fill="#00000F" d="M176.161,465.268h-2.712c-1.133,0-2.059-0.927-2.059-2.059l0,0
				c0-1.132,0.926-2.06,2.059-2.06h2.712c1.132,0,2.059,0.928,2.059,2.06l0,0C178.22,464.341,177.293,465.268,176.161,465.268z"/>
			<path fill-rule="evenodd" clip-rule="evenodd" fill="#00000F" d="M182.773,465.268h298.493c1.134,0,2.06-0.927,2.06-2.059l0,0
				c0-1.132-0.926-2.06-2.06-2.06H182.773c-1.132,0-2.059,0.928-2.059,2.06l0,0C180.714,464.341,181.641,465.268,182.773,465.268z"
				/>
			<path fill-rule="evenodd" clip-rule="evenodd" fill="#C0CDEA" d="M202.967,389.33L202.967,389.33L202.967,389.33z
				 M204.69,382.769c0.6-0.6,1.429-0.971,2.344-0.971c0.915,0,1.744,0.371,2.344,0.971c0.6,0.6,0.971,1.429,0.971,2.345
				s-0.371,1.744-0.971,2.344c-0.6,0.6-1.429,0.971-2.344,0.971c-0.916,0-1.744-0.371-2.344-0.971c-0.6-0.6-0.971-1.428-0.971-2.344
				S204.09,383.368,204.69,382.769L204.69,382.769z M205.406,379.483c-0.459,0.132-0.896,0.319-1.299,0.554
				c-0.415,0.239-0.798,0.528-1.14,0.858c-0.067,0.064-0.166,0.074-0.243,0.03l-1.541-0.89l-0.008-0.006
				c-0.088-0.047-0.188-0.057-0.281-0.031c-0.094,0.025-0.18,0.086-0.231,0.176l-0.007,0.012l-1.083,1.876
				c-0.052,0.092-0.063,0.196-0.038,0.291c0.026,0.094,0.087,0.179,0.177,0.231l0.011,0.007l1.528,0.882
				c0.08,0.046,0.116,0.139,0.096,0.225l0,0c-0.056,0.228-0.099,0.462-0.128,0.701c-0.028,0.233-0.043,0.471-0.043,0.714
				s0.015,0.48,0.043,0.714c0.029,0.239,0.072,0.474,0.128,0.7c0.023,0.095-0.023,0.189-0.107,0.231l-1.528,0.882l0,0
				c-0.09,0.053-0.151,0.138-0.177,0.231c-0.025,0.096-0.015,0.2,0.038,0.29l1.09,1.889l0,0c0.052,0.091,0.137,0.151,0.231,0.177
				c0.095,0.025,0.199,0.015,0.29-0.038l0.012-0.005l1.53-0.884c0.08-0.046,0.178-0.031,0.242,0.029
				c0.342,0.331,0.725,0.619,1.14,0.859c0.407,0.234,0.845,0.423,1.308,0.556c0.089,0.026,0.148,0.107,0.148,0.196v1.776
				c0,0.104,0.043,0.201,0.112,0.271c0.069,0.068,0.165,0.11,0.269,0.11h2.181c0.104,0,0.2-0.042,0.269-0.11
				c0.069-0.069,0.112-0.166,0.112-0.271v-1.777c0-0.096,0.067-0.176,0.156-0.198c0.459-0.132,0.895-0.318,1.299-0.553
				c0.416-0.24,0.798-0.528,1.14-0.859c0.07-0.066,0.175-0.074,0.253-0.022l1.53,0.883c0.09,0.052,0.195,0.063,0.29,0.037
				c0.094-0.025,0.179-0.086,0.231-0.177l0.007-0.012l1.084-1.877h-0.001c0.052-0.091,0.063-0.194,0.038-0.29
				c-0.025-0.094-0.087-0.179-0.176-0.231l-1.54-0.889c-0.08-0.045-0.117-0.138-0.096-0.224l0,0
				c0.056-0.228,0.099-0.462,0.128-0.701c0.028-0.233,0.043-0.471,0.043-0.714s-0.015-0.481-0.043-0.715
				c-0.029-0.239-0.072-0.473-0.128-0.7c-0.024-0.095,0.023-0.188,0.107-0.23l1.528-0.883c0.089-0.053,0.151-0.138,0.176-0.231
				c0.025-0.095,0.015-0.199-0.038-0.289l-0.005-0.011l-1.084-1.879h0c-0.053-0.09-0.137-0.15-0.231-0.176
				c-0.095-0.025-0.199-0.016-0.29,0.036v0.001l-1.54,0.89c-0.082,0.047-0.184,0.031-0.248-0.034
				c-0.341-0.328-0.722-0.616-1.136-0.854c-0.406-0.236-0.845-0.423-1.307-0.556c-0.09-0.026-0.148-0.107-0.148-0.196v-1.776
				c0-0.105-0.043-0.201-0.112-0.271c-0.069-0.068-0.165-0.11-0.269-0.11h-2.181c-0.104,0-0.2,0.042-0.269,0.11
				c-0.069,0.069-0.112,0.165-0.112,0.271v1.776C205.563,379.382,205.496,379.462,205.406,379.483z"/>
			<path fill-rule="evenodd" clip-rule="evenodd" fill="#C0CDEA" d="M181.446,350.481c0.718-0.718,1.579-1.299,2.537-1.695
				c0.921-0.382,1.93-0.593,2.986-0.593c1.055,0,2.063,0.211,2.985,0.593c0.958,0.396,1.819,0.978,2.538,1.695
				c0.718,0.719,1.298,1.579,1.695,2.537c0.382,0.921,0.592,1.93,0.592,2.985s-0.21,2.064-0.592,2.986
				c-0.397,0.958-0.977,1.818-1.695,2.536c-0.718,0.719-1.579,1.299-2.536,1.695c-0.921,0.382-1.93,0.593-2.986,0.593
				s-2.065-0.211-2.986-0.592c-0.958-0.397-1.819-0.978-2.537-1.696c-0.718-0.718-1.299-1.578-1.696-2.536
				c-0.381-0.921-0.592-1.931-0.592-2.986s0.21-2.064,0.592-2.985C180.147,352.061,180.728,351.2,181.446,350.481L181.446,350.481z
				 M184.257,349.453c-0.864,0.358-1.644,0.886-2.299,1.54s-1.182,1.435-1.54,2.3c-0.346,0.833-0.536,1.75-0.536,2.711
				c0,0.962,0.19,1.878,0.536,2.712c0.358,0.864,0.885,1.645,1.54,2.3c0.655,0.654,1.435,1.181,2.3,1.539
				c0.833,0.346,1.75,0.536,2.711,0.536c0.961,0,1.876-0.19,2.709-0.536c0.866-0.358,1.646-0.885,2.301-1.539
				c0.655-0.655,1.182-1.436,1.54-2.3c0.345-0.834,0.536-1.75,0.536-2.712c0-0.961-0.191-1.878-0.536-2.711
				c-0.358-0.865-0.885-1.646-1.54-2.3c-0.655-0.654-1.435-1.182-2.3-1.54c-0.833-0.346-1.749-0.536-2.711-0.536
				S185.09,349.107,184.257,349.453L184.257,349.453z M183.394,343.706c-0.489,0.142-0.969,0.313-1.439,0.513
				c-0.477,0.203-0.939,0.434-1.382,0.69c-0.451,0.261-0.886,0.55-1.303,0.863c-0.418,0.315-0.816,0.655-1.189,1.016
				c-0.133,0.127-0.298,0.202-0.468,0.223c-0.173,0.021-0.353-0.015-0.509-0.104c-1.146-0.662-2.353-1.318-3.476-2.008
				c-0.055-0.028-0.112-0.045-0.168-0.052c-0.065-0.008-0.13-0.002-0.192,0.016c-0.063,0.016-0.124,0.045-0.176,0.085
				c-0.049,0.038-0.093,0.087-0.126,0.144c-0.836,1.266-1.675,2.899-2.449,4.242c-0.034,0.058-0.054,0.118-0.062,0.18
				c-0.008,0.064-0.003,0.132,0.015,0.197c0.017,0.063,0.045,0.123,0.085,0.176c0.039,0.05,0.087,0.093,0.145,0.127
				c1.032,0.682,2.361,1.365,3.455,1.996c0.16,0.092,0.277,0.229,0.345,0.388c0.023,0.054,0.041,0.11,0.051,0.17l0.071,0.023
				l-0.08,0.322c-0.063,0.253-0.118,0.507-0.164,0.759c-0.045,0.246-0.084,0.503-0.116,0.771c-0.032,0.262-0.056,0.521-0.071,0.777
				c-0.016,0.25-0.023,0.513-0.023,0.785s0.007,0.535,0.023,0.784c0.015,0.257,0.04,0.517,0.071,0.778
				c0.032,0.268,0.071,0.524,0.116,0.771c0.046,0.252,0.102,0.506,0.164,0.759c0.047,0.188,0.024,0.377-0.052,0.54
				c-0.074,0.162-0.203,0.298-0.37,0.383l-3.06,1.768h0.001l-0.363,0.21c-0.058,0.033-0.106,0.077-0.145,0.127
				c-0.039,0.051-0.068,0.111-0.085,0.175c-0.018,0.065-0.023,0.134-0.015,0.198c0.008,0.061,0.028,0.122,0.062,0.18l2.265,3.925
				l0.001-0.001l0.183,0.317c0.033,0.058,0.077,0.106,0.126,0.144c0.052,0.04,0.113,0.069,0.176,0.086
				c0.065,0.018,0.132,0.022,0.197,0.015c0.061-0.007,0.122-0.027,0.179-0.061c1.096-0.688,2.333-1.347,3.463-1.999
				c0.162-0.092,0.338-0.123,0.505-0.104c0.174,0.021,0.339,0.097,0.468,0.221l0.002,0.002c0.374,0.36,0.771,0.7,1.19,1.016
				c0.416,0.313,0.851,0.602,1.301,0.862c0.447,0.258,0.912,0.49,1.392,0.694c0.472,0.2,0.961,0.375,1.465,0.519
				c0.178,0.051,0.325,0.157,0.429,0.294c0.105,0.14,0.165,0.313,0.165,0.494l0.001,3.992c0,0.067,0.013,0.132,0.038,0.188
				c0.024,0.059,0.062,0.114,0.108,0.16c0.045,0.047,0.101,0.084,0.161,0.109c0.057,0.023,0.12,0.037,0.188,0.037h4.899
				c0.066,0,0.13-0.014,0.188-0.037c0.061-0.025,0.116-0.063,0.162-0.108c0.046-0.047,0.084-0.103,0.108-0.161
				c0.024-0.057,0.037-0.121,0.037-0.188v-3.993c0-0.189,0.066-0.366,0.177-0.506c0.112-0.143,0.272-0.248,0.453-0.29
				c0.489-0.143,0.969-0.313,1.439-0.514c0.477-0.203,0.939-0.435,1.383-0.69c0.45-0.261,0.886-0.549,1.301-0.862
				c0.419-0.315,0.816-0.655,1.19-1.017c0.139-0.132,0.313-0.208,0.492-0.224c0.182-0.017,0.368,0.027,0.525,0.132l3.418,1.973
				c0.057,0.033,0.119,0.054,0.181,0.062c0.064,0.008,0.131,0.002,0.197-0.016c0.063-0.017,0.123-0.046,0.175-0.086
				c0.05-0.037,0.094-0.086,0.127-0.144c0.812-1.416,1.636-2.826,2.449-4.242c0.033-0.057,0.053-0.118,0.061-0.18
				c0.008-0.064,0.003-0.132-0.015-0.197c-0.017-0.064-0.046-0.124-0.085-0.176c-0.037-0.052-0.085-0.094-0.142-0.126l-3.458-1.997
				c-0.16-0.092-0.278-0.229-0.345-0.387c-0.019-0.042-0.033-0.086-0.043-0.131l-0.091-0.019l0.091-0.367
				c0.063-0.253,0.118-0.507,0.164-0.759c0.045-0.245,0.084-0.503,0.116-0.771c0.032-0.262,0.057-0.521,0.071-0.778
				c0.016-0.25,0.023-0.512,0.023-0.784s-0.008-0.534-0.023-0.784c-0.015-0.256-0.039-0.517-0.07-0.777
				c-0.034-0.271-0.072-0.528-0.117-0.772c-0.046-0.252-0.101-0.506-0.164-0.758c-0.046-0.188-0.023-0.378,0.052-0.54
				s0.204-0.298,0.368-0.382l3.424-1.978c0.057-0.032,0.104-0.075,0.143-0.127c0.039-0.05,0.068-0.11,0.085-0.176
				c0.018-0.065,0.022-0.132,0.015-0.196c-0.008-0.063-0.028-0.123-0.061-0.181c-0.836-1.243-1.674-2.905-2.449-4.242
				c-0.034-0.057-0.077-0.105-0.127-0.144c-0.051-0.04-0.112-0.069-0.175-0.085c-0.065-0.018-0.133-0.023-0.197-0.016
				c-0.061,0.007-0.123,0.027-0.181,0.063l-3.46,1.996c-0.163,0.096-0.346,0.128-0.519,0.104c-0.174-0.023-0.339-0.104-0.468-0.23
				c-0.375-0.362-0.772-0.699-1.185-1.011c-0.411-0.309-0.844-0.597-1.297-0.858c-0.447-0.258-0.911-0.49-1.392-0.694
				c-0.472-0.2-0.961-0.374-1.464-0.518c-0.178-0.052-0.326-0.157-0.429-0.295c-0.105-0.139-0.166-0.313-0.166-0.493l-0.001-3.993
				c0-0.067-0.013-0.131-0.037-0.188c-0.024-0.059-0.063-0.114-0.109-0.16c-0.045-0.048-0.1-0.085-0.161-0.109
				c-0.057-0.024-0.121-0.037-0.188-0.037h-4.899c-0.068,0-0.131,0.013-0.188,0.037c-0.061,0.024-0.116,0.062-0.162,0.107
				c-0.089,0.092-0.145,0.215-0.145,0.35v3.993c0,0.19-0.066,0.366-0.176,0.506C183.733,343.559,183.575,343.664,183.394,343.706
				L183.394,343.706z M181.671,343.555c-0.503,0.214-0.992,0.459-1.461,0.73c-0.479,0.276-0.939,0.581-1.376,0.911
				c-0.438,0.331-0.858,0.688-1.255,1.071c-0.015,0.015-0.034,0.023-0.055,0.025c-0.02,0.003-0.042-0.001-0.059-0.011
				c-1.164-0.672-2.329-1.341-3.49-2.016c-0.139-0.075-0.287-0.12-0.437-0.138c-0.155-0.018-0.311-0.006-0.459,0.034
				c-0.152,0.042-0.299,0.112-0.427,0.21c-0.124,0.095-0.232,0.214-0.313,0.356c-0.843,1.365-1.643,2.845-2.449,4.241
				c-0.083,0.142-0.132,0.296-0.152,0.451c-0.021,0.161-0.009,0.323,0.032,0.475c0.041,0.153,0.112,0.299,0.21,0.427
				c0.095,0.124,0.214,0.231,0.356,0.313c1.112,0.688,2.319,1.339,3.457,1.996c0.019,0.011,0.032,0.027,0.04,0.045
				c0.008,0.02,0.01,0.042,0.005,0.061l-0.079,0.324l0.004,0.001c-0.035,0.157-0.066,0.315-0.097,0.478
				c-0.05,0.276-0.092,0.549-0.125,0.815c-0.032,0.266-0.057,0.538-0.074,0.82c-0.017,0.281-0.025,0.559-0.025,0.827
				c0,0.27,0.008,0.545,0.025,0.827c0.018,0.281,0.042,0.556,0.074,0.82c0.032,0.267,0.075,0.538,0.125,0.815
				c0.051,0.274,0.108,0.542,0.172,0.802c0.005,0.021,0.003,0.043-0.007,0.063c-0.009,0.021-0.024,0.037-0.042,0.047
				c-1.271,0.679-2.561,1.477-3.816,2.202l0.045,0.057l-0.039,0.048c-0.098,0.129-0.169,0.274-0.21,0.427
				c-0.041,0.152-0.052,0.314-0.032,0.475c0.02,0.156,0.069,0.31,0.152,0.451l2.632,4.559l0.049-0.028
				c0.026,0.023,0.053,0.046,0.082,0.067c0.128,0.098,0.274,0.169,0.427,0.21c0.152,0.04,0.313,0.052,0.474,0.031
				c0.151-0.02,0.301-0.066,0.439-0.145c1.152-0.61,2.337-1.349,3.474-2.005c0.017-0.01,0.038-0.013,0.058-0.012
				c0.021,0.003,0.042,0.013,0.057,0.027c0.396,0.382,0.816,0.74,1.254,1.07c0.437,0.329,0.897,0.634,1.375,0.91
				c0.473,0.274,0.964,0.52,1.471,0.734c0.503,0.215,1.021,0.398,1.549,0.55c0.021,0.006,0.039,0.019,0.051,0.034
				c0.013,0.018,0.021,0.038,0.019,0.059v3.992c0,0.163,0.033,0.32,0.094,0.465c0.063,0.15,0.153,0.284,0.266,0.396
				c0.111,0.112,0.246,0.203,0.394,0.265c0.145,0.061,0.301,0.093,0.465,0.093h4.899c0.163,0,0.32-0.032,0.464-0.093
				c0.148-0.062,0.282-0.152,0.396-0.265c0.111-0.111,0.202-0.245,0.264-0.396c0.06-0.145,0.093-0.302,0.093-0.465v-3.993
				c0-0.023,0.007-0.044,0.019-0.06c0.013-0.016,0.032-0.028,0.055-0.032l0.016-0.007c0.532-0.153,1.045-0.336,1.54-0.546
				c0.503-0.216,0.991-0.46,1.461-0.731c0.479-0.276,0.938-0.581,1.375-0.91c0.438-0.331,0.858-0.689,1.255-1.072
				c0.017-0.017,0.037-0.025,0.057-0.026c0.021-0.002,0.043,0.003,0.062,0.016l3.458,1.996c0.142,0.082,0.295,0.131,0.449,0.15
				c0.16,0.021,0.322,0.009,0.475-0.031c0.152-0.041,0.298-0.111,0.427-0.21c0.121-0.092,0.226-0.209,0.308-0.347
				c0.908-1.46,1.767-3.06,2.633-4.561l-0.046-0.027c0.009-0.038,0.015-0.077,0.021-0.114c0.021-0.161,0.009-0.322-0.031-0.475
				c-0.042-0.153-0.112-0.299-0.211-0.427c-0.094-0.125-0.214-0.231-0.355-0.313l-3.458-1.996c-0.018-0.011-0.031-0.026-0.04-0.046
				c-0.008-0.019-0.011-0.041-0.005-0.062l0.089-0.366h-0.005c0.031-0.142,0.06-0.288,0.086-0.435
				c0.051-0.275,0.093-0.548,0.125-0.815c0.032-0.265,0.057-0.539,0.074-0.82c0.017-0.282,0.025-0.558,0.025-0.827
				c0-0.269-0.008-0.545-0.025-0.827c-0.017-0.28-0.042-0.555-0.074-0.822c-0.032-0.264-0.074-0.536-0.125-0.814
				c-0.051-0.274-0.108-0.542-0.172-0.8c-0.005-0.022-0.002-0.043,0.007-0.064c0.009-0.02,0.024-0.036,0.044-0.045l3.454-1.995
				c0.142-0.082,0.262-0.189,0.355-0.313c0.098-0.13,0.169-0.275,0.21-0.427c0.04-0.151,0.052-0.313,0.031-0.474
				c-0.019-0.151-0.068-0.3-0.146-0.44c-0.823-1.524-1.767-3.062-2.637-4.57l-0.05,0.029c-0.026-0.023-0.054-0.046-0.082-0.068
				c-0.128-0.098-0.274-0.168-0.427-0.21c-0.152-0.04-0.313-0.052-0.474-0.031c-0.156,0.021-0.309,0.069-0.449,0.149l-0.256,0.146
				l0,0.003l-3.207,1.852c-0.019,0.011-0.041,0.015-0.062,0.012c-0.02-0.003-0.04-0.012-0.055-0.027l-0.008-0.009
				c-0.393-0.377-0.811-0.734-1.252-1.066c-0.438-0.329-0.896-0.634-1.368-0.906c-0.473-0.273-0.964-0.519-1.471-0.734
				c-0.503-0.214-1.021-0.397-1.549-0.549c-0.021-0.006-0.039-0.019-0.05-0.035c-0.014-0.018-0.021-0.038-0.02-0.058v-3.993
				c0-0.163-0.034-0.32-0.093-0.465c-0.063-0.149-0.153-0.284-0.266-0.395c-0.112-0.112-0.247-0.203-0.395-0.266
				c-0.145-0.06-0.302-0.093-0.464-0.093h-4.899c-0.164,0-0.32,0.033-0.465,0.093c-0.148,0.063-0.283,0.153-0.396,0.266
				c-0.221,0.22-0.358,0.524-0.358,0.859v3.993c0,0.022-0.008,0.044-0.02,0.061c-0.013,0.016-0.031,0.027-0.053,0.033l-0.017,0.005
				C182.68,343.162,182.165,343.345,181.671,343.555z"/>
			<path fill-rule="evenodd" clip-rule="evenodd" fill="#C0CDEA" d="M319.046,295.374L319.046,295.374L319.046,295.374z
				 M320.77,288.813c0.6-0.601,1.429-0.971,2.344-0.971s1.744,0.37,2.345,0.971c0.6,0.6,0.97,1.428,0.97,2.344
				c0,0.915-0.37,1.745-0.97,2.345c-0.601,0.6-1.43,0.97-2.345,0.97s-1.744-0.37-2.344-0.97s-0.972-1.43-0.972-2.345
				C319.798,290.24,320.17,289.412,320.77,288.813L320.77,288.813z M321.485,285.526c-0.459,0.132-0.895,0.319-1.3,0.553
				c-0.414,0.24-0.797,0.528-1.14,0.859c-0.066,0.064-0.165,0.074-0.242,0.029l-1.541-0.889l-0.009-0.006
				c-0.088-0.047-0.188-0.056-0.28-0.031c-0.095,0.024-0.179,0.086-0.231,0.177l-0.008,0.011l-1.083,1.877
				c-0.052,0.091-0.063,0.194-0.037,0.29c0.024,0.095,0.086,0.18,0.178,0.232l0.01,0.006l1.528,0.883
				c0.08,0.046,0.116,0.138,0.096,0.224l0,0c-0.056,0.227-0.1,0.462-0.128,0.701c-0.028,0.232-0.044,0.471-0.044,0.714
				c0,0.242,0.016,0.48,0.044,0.714c0.028,0.239,0.072,0.474,0.129,0.7c0.022,0.095-0.024,0.189-0.108,0.231l-1.526,0.882l0,0
				c-0.092,0.053-0.153,0.139-0.178,0.232c-0.025,0.095-0.015,0.198,0.037,0.29l1.09,1.888h0.001
				c0.053,0.09,0.137,0.151,0.231,0.178c0.095,0.024,0.198,0.014,0.289-0.038l0.012-0.006l1.529-0.884
				c0.08-0.045,0.179-0.031,0.242,0.03c0.343,0.33,0.726,0.619,1.14,0.858c0.407,0.235,0.846,0.423,1.309,0.556
				c0.089,0.025,0.147,0.107,0.148,0.196v1.776c0,0.104,0.042,0.2,0.111,0.27c0.069,0.068,0.165,0.112,0.27,0.112h2.181
				c0.104,0,0.199-0.044,0.268-0.112c0.07-0.069,0.113-0.165,0.113-0.27v-1.776c0-0.096,0.066-0.178,0.156-0.198
				c0.46-0.132,0.896-0.319,1.299-0.554c0.415-0.239,0.798-0.528,1.141-0.858c0.07-0.067,0.175-0.075,0.253-0.023l1.53,0.883
				c0.089,0.052,0.194,0.063,0.289,0.038c0.095-0.026,0.18-0.088,0.231-0.178l0.007-0.012l1.085-1.877l-0.001-0.001
				c0.052-0.09,0.063-0.193,0.038-0.288c-0.026-0.095-0.088-0.181-0.177-0.232l-1.539-0.889c-0.08-0.045-0.117-0.138-0.097-0.225
				l0,0c0.057-0.227,0.1-0.461,0.128-0.7c0.029-0.233,0.043-0.471,0.043-0.714s-0.014-0.481-0.043-0.714
				c-0.028-0.239-0.071-0.475-0.128-0.701c-0.023-0.095,0.024-0.189,0.107-0.23l1.528-0.882c0.089-0.053,0.15-0.138,0.177-0.232
				c0.024-0.095,0.014-0.199-0.038-0.289l-0.006-0.012l-1.084-1.877h-0.001c-0.052-0.091-0.137-0.152-0.231-0.177
				c-0.095-0.025-0.198-0.015-0.289,0.037l0,0l-1.541,0.889c-0.081,0.048-0.184,0.031-0.246-0.033
				c-0.342-0.328-0.723-0.616-1.137-0.855c-0.406-0.234-0.846-0.423-1.308-0.555c-0.089-0.026-0.146-0.107-0.147-0.196v-1.777
				c0-0.104-0.043-0.199-0.113-0.269c-0.068-0.069-0.163-0.112-0.268-0.112h-2.181c-0.104,0-0.2,0.043-0.27,0.112
				s-0.111,0.165-0.111,0.269v1.777C321.643,285.425,321.575,285.505,321.485,285.526z"/>
			<path fill-rule="evenodd" clip-rule="evenodd" fill="#C0CDEA" d="M480.637,358.465L480.637,358.465L480.637,358.465z
				 M482.359,351.903c0.601-0.6,1.429-0.972,2.345-0.972c0.915,0,1.743,0.372,2.344,0.972c0.599,0.6,0.971,1.429,0.971,2.344
				c0,0.916-0.372,1.745-0.971,2.345c-0.601,0.6-1.429,0.971-2.344,0.971c-0.916,0-1.744-0.371-2.345-0.971
				c-0.6-0.6-0.97-1.429-0.97-2.345C481.39,353.332,481.76,352.503,482.359,351.903L482.359,351.903z M483.075,348.617
				c-0.459,0.132-0.895,0.319-1.299,0.554c-0.414,0.239-0.797,0.528-1.14,0.859c-0.067,0.063-0.167,0.073-0.243,0.029l-1.54-0.89
				l-0.008-0.005c-0.089-0.048-0.188-0.057-0.281-0.032c-0.096,0.025-0.181,0.087-0.232,0.177l-0.007,0.011l-1.083,1.877
				c-0.052,0.091-0.063,0.195-0.038,0.29c0.026,0.095,0.088,0.18,0.178,0.232l0.011,0.007l1.527,0.881
				c0.08,0.047,0.117,0.14,0.097,0.226l0,0c-0.057,0.227-0.1,0.461-0.13,0.7c-0.026,0.233-0.041,0.471-0.041,0.714
				s0.015,0.48,0.041,0.714c0.03,0.24,0.073,0.474,0.13,0.701c0.022,0.095-0.023,0.188-0.107,0.23l-1.527,0.882v0.001
				c-0.09,0.053-0.151,0.138-0.178,0.231c-0.025,0.095-0.014,0.199,0.038,0.29l1.09,1.888l0,0c0.052,0.09,0.137,0.151,0.232,0.177
				c0.095,0.025,0.198,0.015,0.289-0.037l0.012-0.006l1.529-0.884c0.081-0.045,0.179-0.031,0.242,0.03
				c0.343,0.33,0.725,0.619,1.14,0.859c0.407,0.234,0.845,0.422,1.308,0.555c0.09,0.026,0.148,0.108,0.148,0.196v1.776
				c0,0.105,0.044,0.2,0.113,0.27c0.068,0.069,0.163,0.112,0.268,0.112h2.182c0.104,0,0.198-0.043,0.269-0.112
				c0.069-0.069,0.112-0.164,0.112-0.27v-1.776c0-0.096,0.066-0.177,0.156-0.198c0.459-0.132,0.896-0.319,1.299-0.553
				c0.415-0.24,0.798-0.529,1.141-0.859c0.069-0.067,0.175-0.075,0.253-0.023l1.529,0.883c0.091,0.053,0.194,0.063,0.29,0.037
				c0.094-0.025,0.179-0.087,0.231-0.177l0.007-0.011l1.084-1.878l0,0c0.052-0.091,0.063-0.194,0.037-0.289s-0.087-0.18-0.177-0.231
				l-1.539-0.889c-0.08-0.046-0.118-0.139-0.096-0.225l0,0c0.056-0.228,0.1-0.461,0.128-0.7c0.028-0.233,0.043-0.472,0.043-0.715
				s-0.015-0.48-0.043-0.714c-0.028-0.239-0.072-0.474-0.128-0.7c-0.023-0.095,0.022-0.189,0.107-0.231l1.527-0.882
				c0.09-0.052,0.151-0.138,0.177-0.232s0.015-0.198-0.037-0.289l-0.007-0.012l-1.083-1.877l0,0
				c-0.054-0.09-0.139-0.151-0.232-0.177c-0.096-0.025-0.199-0.016-0.29,0.037l0,0l-1.54,0.89c-0.081,0.047-0.184,0.03-0.247-0.034
				c-0.341-0.329-0.722-0.616-1.136-0.854c-0.407-0.235-0.845-0.424-1.308-0.556c-0.089-0.026-0.147-0.107-0.147-0.196v-1.776
				c0-0.104-0.043-0.2-0.112-0.27c-0.07-0.069-0.165-0.111-0.269-0.111h-2.182c-0.104,0-0.199,0.042-0.268,0.111
				c-0.069,0.069-0.113,0.165-0.113,0.27v1.776C483.232,348.516,483.166,348.596,483.075,348.617z"/>
			<path fill-rule="evenodd" clip-rule="evenodd" fill="#9FB2D9" d="M494.849,371.452c0-0.313-0.255-0.567-0.568-0.567
				c-0.314,0-0.568,0.254-0.568,0.567v1.338h-1.338c-0.314,0-0.568,0.255-0.568,0.568c0,0.314,0.254,0.569,0.568,0.569h1.338v1.337
				c0,0.313,0.254,0.568,0.568,0.568c0.313,0,0.568-0.255,0.568-0.568v-1.337h1.336c0.314,0,0.569-0.255,0.569-0.569
				c0-0.313-0.255-0.568-0.569-0.568h-1.336V371.452z"/>
			<g>
				<g>
					<g>
						<path fill-rule="evenodd" clip-rule="evenodd" fill="#00000F" d="M372.086,364.49h-33.88c-1.229,0-2.235,1.006-2.235,2.236
							l0,0c0,1.229,1.007,2.236,2.235,2.236h33.88c1.23,0,2.236-1.007,2.236-2.236l0,0
							C374.322,365.496,373.316,364.49,372.086,364.49z"/>
						<path fill-rule="evenodd" clip-rule="evenodd" fill="#3B405F" d="M370.951,348.552c-5.227,0-10.452,0-15.679,0
							c-0.13,0-0.25,0.105-0.268,0.234l-2.811,19.942c-0.018,0.128,0.073,0.234,0.202,0.234c12.138,0,9.293,0,21.432,0
							c0.13,0,0.219-0.106,0.201-0.234l-2.811-19.942C371.2,348.657,371.081,348.552,370.951,348.552z"/>
						<path fill-rule="evenodd" clip-rule="evenodd" fill="#3B405F" d="M380.354,364.49h-33.878c-1.23,0-2.236,1.006-2.236,2.236
							l0,0c0,1.229,1.006,2.236,2.236,2.236h33.878c1.23,0,2.237-1.007,2.237-2.236l0,0
							C382.592,365.496,381.585,364.49,380.354,364.49z"/>
						<path fill-rule="evenodd" clip-rule="evenodd" fill="#00000F" d="M397.406,304.618h-75.108c-0.638,0-1.158,0.521-1.158,1.157
							v50.229c0,0.637,0.521,1.158,1.158,1.158h75.108c0.638,0,1.158-0.521,1.158-1.158v-50.229
							C398.564,305.139,398.044,304.618,397.406,304.618z"/>
						<path fill-rule="evenodd" clip-rule="evenodd" fill="#3B405F" d="M401.078,304.618h-75.109c-0.636,0-1.156,0.521-1.156,1.157
							v50.229c0,0.637,0.521,1.158,1.156,1.158h75.109c0.638,0,1.159-0.521,1.159-1.158v-50.229
							C402.237,305.139,401.716,304.618,401.078,304.618z"/>
						<path fill-rule="evenodd" clip-rule="evenodd" fill="#101537" d="M400.452,305.372h-73.854c-0.422,0-0.768,0.347-0.768,0.767
							v45.29c0,0.264,0.215,0.478,0.478,0.478h74.434c0.264,0,0.478-0.214,0.478-0.478v-45.29
							C401.219,305.719,400.873,305.372,400.452,305.372z"/>
						<rect x="328" y="307.541" fill-rule="evenodd" clip-rule="evenodd" fill="#18B2FF" width="71.05" height="42.196"/>
						<path fill-rule="evenodd" clip-rule="evenodd" fill="#101537" d="M356.94,359.229l-0.741,5.261h-3.407l1.032-7.328h17.584
							h0.991l0.258,1.832c-0.33,0-0.66,0-0.99,0c-4.819,0-9.639,0-14.458,0C357.079,358.994,356.96,359.1,356.94,359.229z"/>
						<rect x="327.998" y="307.541" fill-rule="evenodd" clip-rule="evenodd" fill="#FFFFFF" width="71.296" height="2.428"/>
						<rect x="327.998" y="347.311" fill-rule="evenodd" clip-rule="evenodd" fill="#FFFFFF" width="71.296" height="2.427"/>
						<rect x="328.446" y="308.056" fill-rule="evenodd" clip-rule="evenodd" fill="#E4E1E8" width="17.905" height="1.397"/>
						<circle fill-rule="evenodd" clip-rule="evenodd" fill="#D64C47" cx="345.493" cy="308.755" r="0.306"/>
						<path fill-rule="evenodd" clip-rule="evenodd" fill="#D64C47" d="M344.561,309.061c0.169,0,0.308-0.137,0.308-0.306
							c0-0.168-0.139-0.306-0.308-0.306c-0.167,0-0.305,0.138-0.305,0.306C344.256,308.924,344.394,309.061,344.561,309.061z"/>
						<circle fill-rule="evenodd" clip-rule="evenodd" fill="#D64C47" cx="343.631" cy="308.755" r="0.306"/>
						<rect x="347.197" y="308.056" fill-rule="evenodd" clip-rule="evenodd" fill="#E4E1E8" width="17.905" height="1.397"/>
						<circle fill-rule="evenodd" clip-rule="evenodd" fill="#D64C47" cx="364.242" cy="308.755" r="0.306"/>
						<circle fill-rule="evenodd" clip-rule="evenodd" fill="#D64C47" cx="363.313" cy="308.755" r="0.306"/>
						<circle fill-rule="evenodd" clip-rule="evenodd" fill="#D64C47" cx="362.382" cy="308.755" r="0.306"/>
						<g>
							<rect x="353.899" y="342.601" fill-rule="evenodd" clip-rule="evenodd" fill="#FFFFFF" width="8.479" height="2.826"/>
							<rect x="364.67" y="342.601" fill-rule="evenodd" clip-rule="evenodd" fill="#FFFFFF" width="8.48" height="2.826"/>
							<text transform="matrix(1 0 0 1 355.9707 344.583)"><tspan x="0" y="0" fill="#D64C47" font-family="'OpenSans-Bold'" font-size="1.2434">R</tspan><tspan x="0.669" y="0" fill="#D64C47" font-family="'OpenSans-Bold'" font-size="1.2434">ELOAD</tspan></text>
							<text transform="matrix(1 0 0 1 367.2393 344.583)"><tspan x="0" y="0" fill="#D64C47" font-family="'OpenSans-Bold'" font-size="1.2434">H</tspan><tspan x="0.811" y="0" fill="#D64C47" font-family="'OpenSans-Bold'" font-size="1.2434">OME</tspan></text>
						</g>
						<path fill-rule="evenodd" clip-rule="evenodd" fill="#FFFFFF" d="M333.479,338.053h60.092c0.21,0,0.382,0.171,0.382,0.382l0,0
							c0,0.211-0.172,0.382-0.382,0.382h-60.092c-0.21,0-0.383-0.171-0.383-0.382l0,0
							C333.096,338.224,333.269,338.053,333.479,338.053z"/>
						<path fill-rule="evenodd" clip-rule="evenodd" fill="#FFFFFF" d="M338.187,339.863h50.676c0.21,0,0.383,0.172,0.383,0.381l0,0
							c0,0.211-0.173,0.383-0.383,0.383h-50.676c-0.211,0-0.382-0.172-0.382-0.383l0,0
							C337.805,340.035,337.976,339.863,338.187,339.863z"/>
						<g>
							<path fill="#FFFFFF" d="M344.948,327.505c0.594,0.365,1.462,0.67,2.376,0.67c1.354,0,2.146-0.716,2.146-1.751
								c0-0.959-0.548-1.508-1.934-2.041c-1.675-0.594-2.711-1.462-2.711-2.908c0-1.599,1.325-2.787,3.32-2.787
								c1.051,0,1.812,0.244,2.269,0.503l-0.365,1.081c-0.335-0.183-1.021-0.487-1.949-0.487c-1.401,0-1.935,0.838-1.935,1.538
								c0,0.959,0.625,1.432,2.041,1.979c1.736,0.67,2.619,1.508,2.619,3.016c0,1.583-1.173,2.954-3.594,2.954
								c-0.99,0-2.071-0.289-2.619-0.655L344.948,327.505z"/>
							<path fill="#FFFFFF" d="M354.297,325.891l-1.066,3.229h-1.37l3.487-10.264h1.599l3.503,10.264h-1.416l-1.097-3.229H354.297z
								 M357.662,324.855l-1.005-2.954c-0.229-0.671-0.381-1.279-0.533-1.873h-0.03c-0.152,0.608-0.32,1.233-0.518,1.857
								l-1.005,2.97H357.662z"/>
							<path fill="#FFFFFF" d="M363.036,329.119v-4.355l-3.243-5.908h1.508l1.446,2.832c0.396,0.777,0.7,1.401,1.021,2.117h0.03
								c0.289-0.67,0.64-1.34,1.035-2.117l1.478-2.832h1.508l-3.442,5.894v4.37H363.036z"/>
							<path fill="#FFFFFF" d="M368.609,327.505c0.594,0.365,1.462,0.67,2.376,0.67c1.354,0,2.146-0.716,2.146-1.751
								c0-0.959-0.548-1.508-1.934-2.041c-1.675-0.594-2.711-1.462-2.711-2.908c0-1.599,1.325-2.787,3.32-2.787
								c1.051,0,1.812,0.244,2.269,0.503l-0.365,1.081c-0.335-0.183-1.021-0.487-1.949-0.487c-1.401,0-1.934,0.838-1.934,1.538
								c0,0.959,0.624,1.432,2.04,1.979c1.736,0.67,2.619,1.508,2.619,3.016c0,1.583-1.173,2.954-3.594,2.954
								c-0.99,0-2.071-0.289-2.619-0.655L368.609,327.505z"/>
							<path fill="#FFFFFF" d="M377.623,318.855v6.076c0,2.299,1.021,3.273,2.391,3.273c1.522,0,2.497-1.005,2.497-3.273v-6.076
								h1.341v5.984c0,3.152-1.66,4.447-3.884,4.447c-2.102,0-3.685-1.203-3.685-4.386v-6.046H377.623z"/>
						</g>
					</g>
					<path fill-rule="evenodd" clip-rule="evenodd" fill="#101537" d="M362.997,362.253h44.044c2.461,0,4.474,2.013,4.474,4.474l0,0
						c0,2.461-2.013,4.474-4.474,4.474h-44.044c-2.459,0-4.474-2.013-4.474-4.474l0,0
						C358.523,364.266,360.538,362.253,362.997,362.253z"/>
					<path fill-rule="evenodd" clip-rule="evenodd" fill="#070725" d="M354.591,362.253h20.399c2.46,0,4.474,2.013,4.474,4.474l0,0
						c0,2.461-2.014,4.474-4.474,4.474h-20.399c-2.461,0-4.475-2.013-4.475-4.474l0,0
						C350.116,364.266,352.13,362.253,354.591,362.253z"/>
				</g>
				<path fill-rule="evenodd" clip-rule="evenodd" fill="#101537" d="M331.845,369.57h136.574c1.378,0,2.505,1.127,2.505,2.505
					v11.687c0,1.376-1.127,2.504-2.505,2.504H331.845c-1.378,0-2.504-1.128-2.504-2.504v-11.687
					C329.341,370.697,330.467,369.57,331.845,369.57z"/>
				<path fill-rule="evenodd" clip-rule="evenodd" fill="#00000F" d="M331.775,369.57h136.713c1.34,0,2.436,1.127,2.436,2.505v4.596
					c0,1.378-1.096,2.504-2.436,2.504H331.775c-1.34,0-2.435-1.126-2.435-2.504v-4.596
					C329.341,370.697,330.436,369.57,331.775,369.57z"/>
				<path fill-rule="evenodd" clip-rule="evenodd" fill="#00000F" d="M294.315,369.778h37.787c1.429,0,2.598,1.169,2.598,2.595
					v86.065c0,1.427-1.169,2.596-2.598,2.596h-37.787c-1.428,0-2.596-1.169-2.596-2.596v-86.065
					C291.719,370.947,292.887,369.778,294.315,369.778z"/>
				<path fill-rule="evenodd" clip-rule="evenodd" fill="#101537" d="M331.636,369.778h33.826c1.277,0,2.324,1.044,2.324,2.323
					v86.608c0,1.28-1.047,2.324-2.324,2.324h-33.826c-1.279,0-2.324-1.044-2.324-2.324v-86.608
					C329.312,370.822,330.356,369.778,331.636,369.778z"/>
				<path fill-rule="evenodd" clip-rule="evenodd" fill="#D58750" d="M330.193,366.727h146.573c0.47,0,0.854,0.384,0.854,0.854
					v3.981c0,0.47-0.384,0.854-0.854,0.854H330.193c-0.47,0-0.853-0.384-0.853-0.854v-3.981
					C329.341,367.11,329.724,366.727,330.193,366.727z"/>
				<path fill-rule="evenodd" clip-rule="evenodd" fill="#B56B41" d="M288.149,366.727h41.847c0.47,0,0.854,0.384,0.854,0.854v3.981
					c0,0.47-0.384,0.854-0.854,0.854h-41.847c-0.469,0-0.853-0.384-0.853-0.854v-3.981
					C287.297,367.11,287.681,366.727,288.149,366.727z"/>
				<path fill-rule="evenodd" clip-rule="evenodd" fill="#FFFFFF" d="M334.128,375.295h28.841c1.065,0,1.938,0.871,1.938,1.938
					v22.356c0,1.064-0.872,1.937-1.938,1.937h-28.841c-1.065,0-1.938-0.872-1.938-1.937v-22.356
					C332.189,376.166,333.063,375.295,334.128,375.295z"/>
				<path fill-rule="evenodd" clip-rule="evenodd" fill="#E4E1E8" d="M364.885,399.878h-28.448c-0.759,0-1.419-0.442-1.736-1.082
					c-0.129-0.259-0.202-0.549-0.202-0.856v-22.355c0-0.099,0.008-0.196,0.022-0.289h-0.393c-1.065,0-1.938,0.871-1.938,1.938
					v22.356c0,1.064,0.873,1.937,1.938,1.937h0.572h28.269C363.936,401.525,364.743,400.808,364.885,399.878z"/>
				<path fill-rule="evenodd" clip-rule="evenodd" fill="#070725" d="M341.589,376.842h13.919c0.411,0,0.748,0.336,0.748,0.748
					v0.236c0,0.41-0.337,0.747-0.748,0.747h-13.919c-0.412,0-0.749-0.337-0.749-0.747v-0.236
					C340.84,377.178,341.177,376.842,341.589,376.842z"/>
				<path fill-rule="evenodd" clip-rule="evenodd" fill="#FFFFFF" d="M334.128,402.915h28.841c1.065,0,1.938,0.871,1.938,1.938
					v22.354c0,1.065-0.872,1.938-1.938,1.938h-28.841c-1.065,0-1.938-0.873-1.938-1.938v-22.354
					C332.189,403.786,333.063,402.915,334.128,402.915z"/>
				<path fill-rule="evenodd" clip-rule="evenodd" fill="#E4E1E8" d="M364.885,427.497h-28.448c-0.759,0-1.419-0.441-1.736-1.081
					c-0.129-0.259-0.202-0.549-0.202-0.857v-22.355c0-0.098,0.008-0.194,0.022-0.288h-0.393c-1.065,0-1.938,0.871-1.938,1.938
					v22.354c0,1.065,0.873,1.938,1.938,1.938h0.572h28.269C363.936,429.146,364.743,428.428,364.885,427.497z"/>
				<path fill-rule="evenodd" clip-rule="evenodd" fill="#070725" d="M341.589,404.462h13.919c0.411,0,0.748,0.337,0.748,0.748
					v0.235c0,0.41-0.337,0.747-0.748,0.747h-13.919c-0.412,0-0.749-0.337-0.749-0.747v-0.235
					C340.84,404.799,341.177,404.462,341.589,404.462z"/>
				<path fill-rule="evenodd" clip-rule="evenodd" fill="#FFFFFF" d="M334.128,430.534h28.841c1.065,0,1.938,0.872,1.938,1.938
					v22.355c0,1.066-0.872,1.938-1.938,1.938h-28.841c-1.065,0-1.938-0.871-1.938-1.938v-22.355
					C332.189,431.406,333.063,430.534,334.128,430.534z"/>
				<path fill-rule="evenodd" clip-rule="evenodd" fill="#E4E1E8" d="M364.885,455.118h-28.448c-0.759,0-1.419-0.442-1.736-1.081
					c-0.129-0.259-0.202-0.55-0.202-0.858v-22.354c0-0.1,0.008-0.194,0.022-0.29h-0.393c-1.065,0-1.938,0.872-1.938,1.938v22.355
					c0,1.066,0.873,1.938,1.938,1.938h0.572h28.269C363.936,456.766,364.743,456.047,364.885,455.118z"/>
				<path fill-rule="evenodd" clip-rule="evenodd" fill="#070725" d="M341.589,432.082h13.919c0.411,0,0.748,0.336,0.748,0.748
					v0.235c0,0.411-0.337,0.747-0.748,0.747h-13.919c-0.412,0-0.749-0.336-0.749-0.747v-0.235
					C340.84,432.418,341.177,432.082,341.589,432.082z"/>
				<g>
					<path fill-rule="evenodd" clip-rule="evenodd" fill="#AEABBA" d="M447.984,369.778h-5.219c-0.125,0-0.23,0.103-0.23,0.23
						v91.898c0,0.128,0.105,0.231,0.23,0.231h5.219c0.127,0,0.23-0.104,0.23-0.231v-91.898
						C448.215,369.881,448.111,369.778,447.984,369.778z"/>
					<path fill-rule="evenodd" clip-rule="evenodd" fill="#FFFFFF" d="M447.931,369.778h-1.627c-0.641,0-1.164,0.523-1.164,1.164
						v90.033c0,0.639,0.523,1.163,1.164,1.163h1.627c0.64,0,1.164-0.524,1.164-1.163v-90.033
						C449.095,370.302,448.57,369.778,447.931,369.778z"/>
					<path fill-rule="evenodd" clip-rule="evenodd" fill="#AEABBA" d="M472.414,369.778h-5.218c-0.127,0-0.23,0.103-0.23,0.23
						v91.898c0,0.128,0.104,0.231,0.23,0.231h5.218c0.127,0,0.231-0.104,0.231-0.231v-91.898
						C472.646,369.881,472.541,369.778,472.414,369.778z"/>
					<path fill-rule="evenodd" clip-rule="evenodd" fill="#FFFFFF" d="M472.359,369.778h-1.627c-0.64,0-1.163,0.523-1.163,1.164
						v90.033c0,0.639,0.523,1.163,1.163,1.163h1.627c0.642,0,1.164-0.524,1.164-1.163v-90.033
						C473.523,370.302,473.001,369.778,472.359,369.778z"/>
					<path fill-rule="evenodd" clip-rule="evenodd" fill="#B56B41" d="M391.664,366.727h85.103c0.47,0,0.854,0.384,0.854,0.854
						v3.981c0,0.47-0.384,0.854-0.854,0.854h-79.561C395.683,370.329,393.725,368.414,391.664,366.727z"/>
					<path fill-rule="evenodd" clip-rule="evenodd" fill="#ED7862" d="M422.567,342.032l1.069,1.787c0,0,0.416,2.17-0.203,3.654
						c-0.618,1.483,7.091,3.091,7.091,3.091l5.976-4.823l1.319-1.648c0,0-2.804-3.051-2.969-4.37
						C434.688,338.404,422.567,342.032,422.567,342.032z"/>
					<path fill-rule="evenodd" clip-rule="evenodd" fill="#F5AC83" d="M409.251,359.12c0,0-4.038,3.256-5.441,3.503
						c-1.399,0.248-7.541-2.596-8.778-2.926c-1.236-0.329-3.998-0.329-5.936-0.329c-1.937,0-3.998,0.741-5.028,2.885
						c0,0,3.01,0,4.122,0s4.863,3.05,8.49,5.522c3.628,2.474,6.513,4.535,8.905,4.287c2.391-0.248,10.634-6.43,10.634-6.43
						L409.251,359.12z"/>
					<path fill-rule="evenodd" clip-rule="evenodd" fill="#ED7862" d="M396.68,367.775c3.628,2.474,6.513,4.535,8.905,4.287
						c2.391-0.248,10.634-6.43,10.634-6.43l-6.968-6.513c0,0-0.934,0.752-2.058,1.561c2.936,4.664,1.611,6.679-1.832,8.056
						c-2.761,1.105-9.784-2.733-14.199-4.878C392.753,364.957,394.732,366.448,396.68,367.775z"/>
					<path fill-rule="evenodd" clip-rule="evenodd" fill="#070725" d="M442.21,397.171c0,0-20.855-0.189-23.435,0.031
						c-2.578,0.222-5.064,2.937-4.636,7.128c0.43,4.191,6.268,36.856,6.268,36.856s0.393,0.291,0.846,0.384
						c0.454,0.093,4.185,0.709,4.185,0.709l0.252-3.03l-2.183-31.775l19.235-3.51L442.21,397.171z"/>
					<path fill-rule="evenodd" clip-rule="evenodd" fill="#D64C47" d="M425.689,439.249c0,0,0.437,0.119,0.63,0.678
						s0.593,4.167,0.555,4.683c-0.038,0.515-1.323,1.513-3.524,2.446c-2.202,0.936-10.581,3.382-10.581,3.382l-0.093-0.305
						c0,0-0.395-0.172-0.555-0.688c-0.16-0.515-0.105-1.657,0.354-2.309c0.457-0.651,3.163-2.507,3.658-2.904
						c0.492-0.397,2.942-3.807,3.142-4.036c0.199-0.229,1.495-1.049,3.024-0.195C423.829,440.854,425.563,440.553,425.689,439.249z"
						/>
					<path fill-rule="evenodd" clip-rule="evenodd" fill="#FFFFFF" d="M412.676,450.133c0,0,8.357-3.067,10.189-3.712
						c1.833-0.645,3.988-2.384,3.988-2.384s0.296,0.134,0.359,0.377c0.063,0.245,0.111,1.1,0.133,1.279
						c0.021,0.182-0.041,0.989-0.956,1.381c-0.916,0.393-12.592,4.506-13.125,4.683c-0.534,0.176-0.749-1.238-0.749-1.238
						S412.482,450.217,412.676,450.133z"/>
					<path fill-rule="evenodd" clip-rule="evenodd" fill="#181D3B" d="M455.124,384.225c0,0-55.743,6.436-58.793,7.096
						c-3.051,0.659-5.605,4.286-4.451,9.233c1.154,4.945,13.646,44.668,13.646,44.668s0.516,0.288,1.072,0.33
						c0.557,0.041,5.112,0.205,5.112,0.205l1.792-1.833l-9.978-35.457l40.725-2.062
						C455.674,404.564,457.224,390.654,455.124,384.225z"/>
					<path fill-rule="evenodd" clip-rule="evenodd" fill="#D64C47" d="M415.905,388.471c0,0,4.452,3.298,7.132,2.226
						c2.68-1.071,15.539-23.289,15.539-23.289l-6.183-22.259c0,0-4.121,0.165-9.026,1.237l-0.929,0.845c0,0-3.626,0.618-5.688,2.926
						c-2.062,2.309-8.82,8.326-9.068,8.82c-0.247,0.496,5.894,7.255,7.462,8.327c0,0,0.74,0.247,1.194-0.206l0.743-0.599
						c0,0,1.648,8.585,1.648,11.13c0,2.543,0,2.543,0,2.543s-0.865,6.565-1.523,7.185
						C416.547,387.974,415.905,388.471,415.905,388.471z"/>
					<path fill-rule="evenodd" clip-rule="evenodd" fill="#FFFFFF" d="M435.809,392.702c1.032,0,1.869-0.837,1.869-1.868
						c0-1.033-0.837-1.87-1.869-1.87h-16.487c-2.25,0-4.297-0.921-5.782-2.406c-1.084-1.086-1.869-2.471-2.212-4.015
						c-1.092,0.432-2.271,1.02-3.428,1.661c0.576,1.908,1.619,3.619,2.997,4.996c2.16,2.161,5.143,3.502,8.425,3.502H435.809z"/>
					<rect x="435.909" y="407.515" fill-rule="evenodd" clip-rule="evenodd" fill="#070725" width="4.738" height="38.974"/>
					<rect x="429.623" y="394.423" fill-rule="evenodd" clip-rule="evenodd" fill="#00000F" width="4.616" height="10.552"/>
					<rect x="461.527" y="394.423" fill-rule="evenodd" clip-rule="evenodd" fill="#00000F" width="4.615" height="10.552"/>
					<path fill-rule="evenodd" clip-rule="evenodd" fill="#3B405F" d="M435.91,417.14h4.737c1.508,0,2.742-1.234,2.742-2.743v-5.067
						c0-1.508-1.234-2.742-2.742-2.742h-4.737c-1.507,0-2.742,1.234-2.742,2.742v5.067
						C433.168,415.905,434.403,417.14,435.91,417.14z"/>
					<path fill-rule="evenodd" clip-rule="evenodd" fill="#070725" d="M432.14,413.714h12.278c0.433,0,0.785-0.354,0.785-0.786
						v-6.372c0-0.433-0.353-0.786-0.785-0.786H432.14c-0.432,0-0.785,0.354-0.785,0.786v6.372
						C431.354,413.36,431.708,413.714,432.14,413.714z"/>
					<path fill-rule="evenodd" clip-rule="evenodd" fill="#F18A00" d="M401.924,402.751h38.416c1.452,0,2.637,1.187,2.637,2.638
						v2.968c0,1.451-1.185,2.638-2.637,2.638h-38.416c-1.451,0-2.639-1.187-2.639-2.638v-2.968
						C399.285,403.938,400.473,402.751,401.924,402.751z"/>
					<path fill-rule="evenodd" clip-rule="evenodd" fill="#FCC100" d="M429.869,402.751h38.416c1.451,0,2.639,1.187,2.639,2.638
						v2.968c0,1.451-1.188,2.638-2.639,2.638h-38.416c-1.451,0-2.639-1.187-2.639-2.638v-2.968
						C427.23,403.938,428.418,402.751,429.869,402.751z"/>
					<path fill-rule="evenodd" clip-rule="evenodd" fill="#3B405F" d="M435.91,443.948h4.737c1.508,0,2.742,1.234,2.742,2.743v5.067
						c0,1.508-1.234,2.742-2.742,2.742h-4.737c-1.507,0-2.742-1.234-2.742-2.742v-5.067
						C433.168,445.183,434.403,443.948,435.91,443.948z"/>
					<path fill-rule="evenodd" clip-rule="evenodd" fill="#070725" d="M432.489,448.975h11.579c0.623,0,1.135,0.51,1.135,1.136
						v9.201c0,0.624-0.512,1.134-1.135,1.134h-11.579c-0.624,0-1.135-0.51-1.135-1.134v-9.201
						C431.354,449.484,431.865,448.975,432.489,448.975z"/>
					<path fill-rule="evenodd" clip-rule="evenodd" fill="#707386" d="M450.851,457.634L450.851,457.634c0,1.87-1.53,3.4-3.4,3.4
						h-18.343c-1.871,0-3.399-1.53-3.399-3.4l0,0c0-1.87,1.528-3.4,3.399-3.4h18.343
						C449.32,454.233,450.851,455.764,450.851,457.634z"/>
					<path fill-rule="evenodd" clip-rule="evenodd" fill="#101537" d="M468.698,461.034L468.698,461.034c0,1.87-1.53,3.4-3.4,3.4
						H418.68c-1.871,0-3.401-1.53-3.401-3.4l0,0c0-1.871,1.53-3.4,3.401-3.4h46.618
						C467.168,457.634,468.698,459.163,468.698,461.034z"/>
					<path fill-rule="evenodd" clip-rule="evenodd" fill="#00000F" d="M439.516,461.034L439.516,461.034c0,1.87-1.529,3.4-3.4,3.4
						h-24.856c-1.87,0-3.4-1.53-3.4-3.4l0,0c0-1.871,1.53-3.4,3.4-3.4h24.856C437.986,457.634,439.516,459.163,439.516,461.034z"/>
					<path fill-rule="evenodd" clip-rule="evenodd" fill="#FFFFFF" d="M428.884,380.172c1.032,0,1.869,0.837,1.869,1.869
						c0,1.033-0.837,1.87-1.869,1.87h-16.487c-2.25,0-4.297,0.922-5.781,2.407c-1.484,1.483-2.408,3.531-2.408,5.781v14.859
						c0,1.031-0.836,1.869-1.869,1.869c-1.032,0-1.869-0.838-1.869-1.869V392.1c0-3.282,1.341-6.265,3.503-8.426
						c2.161-2.16,5.143-3.502,8.425-3.502H428.884z"/>
					<path fill-rule="evenodd" clip-rule="evenodd" fill="#F18A00" d="M465.482,360.254c0-11.268-9.219-20.486-20.487-20.486h-2.718
						c-11.27,0-20.488,9.219-20.488,20.486c0,7.849,0,22.621,0,30.471c0,2.896,2.37,5.266,5.267,5.266h33.161
						c2.896,0,5.266-2.37,5.266-5.266C465.482,382.875,465.482,368.103,465.482,360.254z"/>
					<path fill-rule="evenodd" clip-rule="evenodd" fill="#FCC100" d="M470.924,360.254c0-11.268-9.219-20.486-20.487-20.486h-2.719
						c-11.269,0-20.487,9.219-20.487,20.486c0,7.849,0,22.621,0,30.471c0,2.896,2.37,5.266,5.266,5.266h33.161
						c2.896,0,5.267-2.37,5.267-5.266C470.924,382.875,470.924,368.103,470.924,360.254z"/>
					<path fill-rule="evenodd" clip-rule="evenodd" fill="#D64C47" d="M413.065,442.501c0,0,0.714,0.008,1.167,0.604
						c0.453,0.599,2.062,4.721,2.144,5.338c0.082,0.619-1.648,2.185-4.821,3.957c-3.175,1.772-15.561,7.213-15.561,7.213
						l-0.227-0.329c0,0-0.66-0.084-1.051-0.64c-0.393-0.557-0.619-1.916-0.083-2.823c0.534-0.906,4.244-3.916,4.903-4.534
						c0.661-0.619,3.546-5.379,3.793-5.708c0.248-0.33,2.041-1.691,4.658-1.156C410.605,444.96,413.224,444.073,413.065,442.501z"/>
					<path fill-rule="evenodd" clip-rule="evenodd" fill="#FFFFFF" d="M395.768,459.284c0,0,12.181-6.164,14.859-7.483
						c2.68-1.318,5.562-4.024,5.562-4.024s0.497,0.068,0.663,0.336c0.165,0.269,0.474,1.257,0.557,1.463
						c0.081,0.207,0.206,1.174-1.114,1.916c-1.318,0.742-18.384,9.151-19.166,9.522c-0.784,0.37-1.505-1.227-1.505-1.227
						S395.489,459.442,395.768,459.284z"/>
					<path fill-rule="evenodd" clip-rule="evenodd" fill="#F5AC83" d="M419.019,316.946l1.98-0.463
						c4.726-1.106,9.497,1.856,10.603,6.583l2.214,9.462c1.105,4.727-1.856,9.499-6.584,10.605l-1.978,0.462
						c-4.728,1.106-9.499-1.856-10.605-6.582l-2.213-9.464C411.33,322.823,414.293,318.053,419.019,316.946z"/>
					<path fill-rule="evenodd" clip-rule="evenodd" fill="#ED7862" d="M431.855,324.152l1.96,8.376
						c1.105,4.727-1.856,9.499-6.584,10.605l-1.978,0.462c-1.96,0.459-3.928,0.217-5.638-0.559c0.233,0.099,1.912,0.751,2.285-0.483
						c0.402-1.327-1.89-5.593-1.89-5.593s-0.152-0.282,0.04-0.543c0.19-0.262,1.503-2.604,0.934-5.448
						c-0.572-2.841,3.103-4.822,3.103-4.822l-8.504,2.303v1.73c0,0-0.921-1.926-3.035-2.146l-0.113-0.484
						c-0.521-2.226-0.139-4.461,0.905-6.319C416.163,321.574,425.399,322.752,431.855,324.152z"/>
					<path fill-rule="evenodd" clip-rule="evenodd" fill="#101537" d="M416.152,332.835c0,0-0.771-0.083-1.026-1.169
						c-0.253-1.087-0.336-1.443-0.336-1.443s-0.818-1.086-1.306-3.17c0,0-5.029-0.702-6.007-5.359
						c-0.977-4.656,3.357-9.578,3.996-10.065c0.638-0.488,3.313-1.413,6.671,0.093c0,0,0.572,0.354,1.672-0.09
						c1.098-0.445,7.266-2.189,10.249-2.285c2.982-0.097,4.906,2.984,6.306,6.716c0,0,0.173-1.507,1.678-1.821
						c1.504-0.313,0.698,2.506-0.391,3.474c0,0,2.563,1.317,3.055,4.058c0.49,2.741-0.438,14.832-2.729,17.246
						c-2.29,2.416-8.068,3.443-9.91,3.874c-1.841,0.431-5.497-1.471-6.982-6.535c0,0,0.727-2.519,0.129-4.596
						c-0.6-2.077-1.144-3.603-1.922-3.871c-0.776-0.27-2.692,1.738-2.857,2.642c-0.164,0.902,0.199,2.133,0.199,2.133
						S416.429,332.854,416.152,332.835z"/>
					<path fill-rule="evenodd" clip-rule="evenodd" fill="#070725" d="M416.152,332.835c0,0-0.771-0.083-1.026-1.169
						c-0.253-1.087-0.336-1.443-0.336-1.443s-0.817-1.086-1.306-3.17c0,0-5.029-0.702-6.007-5.359
						c-0.977-4.656,3.357-9.578,3.996-10.065c0,0-4.742,5.174,0.489,7.83s12.956,4.346,18.025,4.024
						c5.068-0.322,8.672-9.118,8.674-9.123c0.582,0.553-0.117,2.566-1.004,3.354c0,0,2.563,1.317,3.055,4.058
						c0.49,2.741-0.438,14.832-2.729,17.246c-2.29,2.415-8.068,3.443-9.91,3.874c-1.84,0.431-5.497-1.471-6.982-6.535
						c0,0,0.726-2.519,0.129-4.596c-0.6-2.077-1.144-3.603-1.921-3.871c-0.777-0.27-2.693,1.738-2.858,2.642
						c-0.164,0.901,0.199,2.133,0.199,2.133S416.429,332.854,416.152,332.835z"/>
				</g>
				<path fill-rule="evenodd" clip-rule="evenodd" fill="#9FB2D9" d="M485.836,410.081c0-0.314-0.255-0.569-0.569-0.569
					c-0.313,0-0.568,0.255-0.568,0.569v1.337h-1.338c-0.313,0-0.567,0.254-0.567,0.568s0.254,0.568,0.567,0.568h1.338v1.336
					c0,0.315,0.255,0.57,0.568,0.57c0.314,0,0.569-0.255,0.569-0.57v-1.336h1.336c0.313,0,0.569-0.254,0.569-0.568
					s-0.256-0.568-0.569-0.568h-1.336V410.081z"/>
			</g>
			<path fill-rule="evenodd" clip-rule="evenodd" fill="#9FB2D9" d="M451.715,292.268c0-0.314-0.255-0.569-0.569-0.569
				c-0.313,0-0.568,0.255-0.568,0.569v1.337h-1.336c-0.315,0-0.568,0.254-0.568,0.568s0.253,0.568,0.568,0.568h1.336v1.337
				c0,0.314,0.255,0.569,0.568,0.569c0.314,0,0.569-0.255,0.569-0.569v-1.337h1.337c0.313,0,0.568-0.254,0.568-0.568
				s-0.255-0.568-0.568-0.568h-1.337V292.268z"/>
			<path fill-rule="evenodd" clip-rule="evenodd" fill="#9FB2D9" d="M387.335,271.022c0-0.313-0.254-0.568-0.567-0.568
				s-0.568,0.255-0.568,0.568v1.337h-1.337c-0.314,0-0.569,0.254-0.569,0.568s0.255,0.568,0.569,0.568h1.337v1.338
				c0,0.313,0.255,0.568,0.568,0.568s0.567-0.255,0.567-0.568v-1.338h1.338c0.314,0,0.568-0.254,0.568-0.568
				s-0.254-0.568-0.568-0.568h-1.338V271.022z"/>
			<path fill-rule="evenodd" clip-rule="evenodd" fill="#9FB2D9" d="M228.321,384.329c0-0.314-0.255-0.568-0.569-0.568
				c-0.313,0-0.568,0.254-0.568,0.568v1.336h-1.337c-0.314,0-0.568,0.256-0.568,0.569c0,0.314,0.254,0.569,0.568,0.569h1.337v1.337
				c0,0.313,0.255,0.567,0.568,0.567c0.314,0,0.569-0.254,0.569-0.567v-1.337h1.337c0.313,0,0.568-0.255,0.568-0.569
				c0-0.313-0.255-0.569-0.568-0.569h-1.337V384.329z"/>
			<path fill-rule="evenodd" clip-rule="evenodd" fill="#9FB2D9" d="M283.687,310.937c0-0.313-0.255-0.567-0.569-0.567
				c-0.313,0-0.569,0.254-0.569,0.567v1.338h-1.336c-0.314,0-0.568,0.254-0.568,0.568c0,0.313,0.254,0.569,0.568,0.569h1.336v1.336
				c0,0.314,0.255,0.569,0.569,0.569c0.314,0,0.569-0.255,0.569-0.569v-1.336h1.337c0.313,0,0.568-0.256,0.568-0.569
				c0-0.314-0.255-0.568-0.568-0.568h-1.337V310.937z"/>
			<path fill-rule="evenodd" clip-rule="evenodd" fill="#9FB2D9" d="M218.664,438.407c0-0.313-0.255-0.568-0.569-0.568
				c-0.313,0-0.568,0.255-0.568,0.568v1.337h-1.337c-0.314,0-0.568,0.255-0.568,0.568c0,0.314,0.254,0.568,0.568,0.568h1.337v1.338
				c0,0.313,0.254,0.568,0.568,0.568c0.314,0,0.569-0.255,0.569-0.568v-1.338H220c0.314,0,0.569-0.254,0.569-0.568
				c0-0.313-0.254-0.568-0.569-0.568h-1.337V438.407z"/>
			<path fill-rule="evenodd" clip-rule="evenodd" fill="#9FB2D9" d="M167.805,397.205c0-0.314-0.255-0.568-0.569-0.568
				s-0.569,0.254-0.569,0.568v1.337h-1.337c-0.314,0-0.568,0.255-0.568,0.568c0,0.314,0.254,0.569,0.568,0.569h1.337v1.336
				c0,0.314,0.255,0.568,0.569,0.568s0.569-0.254,0.569-0.568v-1.336h1.337c0.314,0,0.568-0.255,0.568-0.569
				c0-0.313-0.254-0.568-0.568-0.568h-1.337V397.205z"/>
			<g>
				<path fill-rule="evenodd" clip-rule="evenodd" fill="#294D3C" d="M305.641,395.04c8.059-4.283,10.104,5.036,6.971,12.753
					c-3.134,7.715-19.209,33.67-20.048,43.964c-0.325,3.989-1.07,3.554-1.706,0.757C287.681,438.559,294.548,400.935,305.641,395.04
					z"/>
				<g>
					<path fill-rule="evenodd" clip-rule="evenodd" fill="#4A9075" d="M288.579,359.685c-9.24-8.319-15.018,3.324-13.42,14.559
						c1.598,11.233,14.288,50.845,12.003,64.729c-0.886,5.382,0.242,5.051,2.005,1.563
						C297.967,423.136,301.298,371.136,288.579,359.685z"/>
					<path fill-rule="evenodd" clip-rule="evenodd" fill="#1B7154" d="M286.969,442.829c0.198,0.516,0.636,0.261,1.225-0.598
						c9.63-32.079-5.372-80.007-5.418-80.161c-0.082-0.264-0.362-0.412-0.626-0.33c-0.265,0.081-0.413,0.361-0.331,0.626
						C281.866,362.521,297.072,411.102,286.969,442.829z"/>
				</g>
				<g>
					<path fill-rule="evenodd" clip-rule="evenodd" fill="#A6C86B" d="M268.397,386.338c-8.953-3.898-10.358,6.214-6.373,14.185
						c3.986,7.97,23.297,34.316,25.051,45.227c0.68,4.229,1.437,3.703,1.883,0.665C291.183,431.265,280.722,391.702,268.397,386.338
						z"/>
					<path fill-rule="evenodd" clip-rule="evenodd" fill="#5F9850" d="M287.892,448.671c0.276,0.336,0.539,0.035,0.763-0.751
						c-0.81-26.291-23.914-58.258-23.987-58.361c-0.126-0.177-0.373-0.216-0.549-0.09s-0.217,0.371-0.09,0.549
						C264.103,390.12,287.521,422.523,287.892,448.671z"/>
				</g>
				<g>
					<polygon fill-rule="evenodd" clip-rule="evenodd" fill="#3B405F" points="281.004,442.85 298.204,442.85 302.695,446.902 
						299.026,461.034 289.604,461.034 280.181,461.034 276.513,446.902 					"/>
					<path fill-rule="evenodd" clip-rule="evenodd" fill="#3B405F" d="M276.513,437.592h26.183c0.783,0,1.424,0.64,1.424,1.423
						v6.465c0,0.782-0.641,1.423-1.424,1.423h-26.183c-0.783,0-1.424-0.641-1.424-1.423v-6.465
						C275.089,438.231,275.73,437.592,276.513,437.592z"/>
					<polygon fill-rule="evenodd" clip-rule="evenodd" fill="#101537" points="302.695,446.902 301.941,449.807 277.267,449.807 
						276.513,446.902 					"/>
				</g>
			</g>
		</g>
	</g>
</g>
</svg>
