<?xml version="1.0" encoding="utf-8"?>
<!-- Generator: Adobe Illustrator 16.0.0, SVG Export Plug-In . SVG Version: 6.00 Build 0)  -->
<!DOCTYPE svg PUBLIC "-//W3C//DTD SVG 1.1//EN" "http://www.w3.org/Graphics/SVG/1.1/DTD/svg11.dtd">
<svg version="1.1" id="Layer_1" xmlns="http://www.w3.org/2000/svg" xmlns:xlink="http://www.w3.org/1999/xlink" x="0px" y="0px"
	 width="400px" height="400px" viewBox="0 0 400 400" enable-background="new 0 0 400 400" xml:space="preserve">
<g>
	<g>
		<g>
			<rect x="6.417" y="307.877" fill="#ECECEC" width="388" height="0.193"/>
			<path fill="#ECECEC" d="M190.34,273.268H40.496c-2.442,0-4.43-1.987-4.43-4.43V58.208c0-2.441,1.987-4.429,4.43-4.429H190.34
				c2.442,0,4.429,1.988,4.429,4.429v210.63C194.769,271.28,192.782,273.268,190.34,273.268z M40.496,53.972
				c-2.335,0-4.235,1.9-4.235,4.235v210.63c0,2.336,1.9,4.235,4.235,4.235H190.34c2.335,0,4.235-1.899,4.235-4.235V58.208
				c0-2.335-1.899-4.235-4.235-4.235H40.496z"/>
			<path fill="#ECECEC" d="M358.187,273.268H208.342c-2.441,0-4.428-1.987-4.428-4.43V58.208c0-2.441,1.986-4.429,4.428-4.429
				h149.845c2.441,0,4.43,1.988,4.43,4.429v210.63C362.616,271.28,360.628,273.268,358.187,273.268z M208.342,53.972
				c-2.335,0-4.234,1.9-4.234,4.235v210.63c0,2.336,1.899,4.235,4.234,4.235h149.845c2.336,0,4.235-1.899,4.235-4.235V58.208
				c0-2.335-1.899-4.235-4.235-4.235H208.342z"/>
		</g>
		<g>
			<rect x="141.781" y="315.267" fill="#ECECEC" width="20.174" height="0.194"/>
			<rect x="47.125" y="313.161" fill="#ECECEC" width="41.983" height="0.193"/>
			<rect x="120.582" y="322.473" fill="#ECECEC" width="20.422" height="0.193"/>
			<rect x="206.802" y="321.169" fill="#ECECEC" width="30.134" height="0.193"/>
			<rect x="243.844" y="321.169" fill="#ECECEC" width="8.3" height="0.193"/>
			<rect x="313.206" y="317.893" fill="#ECECEC" width="42.335" height="0.194"/>
		</g>
	</g>
	<g>
		<g>
			<g>
				<rect x="302.12" y="203.623" fill="#F0F0F0" width="35.426" height="97.368"/>
				<rect x="147.447" y="300.991" fill="#F0F0F0" width="183.296" height="6.886"/>
				<rect x="140.645" y="203.623" fill="#F5F5F5" width="161.475" height="97.368"/>
				<rect x="140.645" y="210.215" fill="#F0F0F0" width="162.095" height="35.638"/>
				<rect x="140.645" y="252.354" fill="#F0F0F0" width="162.095" height="35.639"/>
				<rect x="302.12" y="210.215" fill="#E7E7E7" width="6.128" height="35.638"/>
				<rect x="302.12" y="252.354" fill="#E7E7E7" width="6.128" height="35.639"/>
			</g>
			<rect x="135.924" y="197.633" fill="#F0F0F0" width="166.196" height="5.99"/>
			<rect x="302.12" y="197.633" fill="#E7E7E7" width="40.378" height="5.99"/>
		</g>
		<g>
			<rect x="261.057" y="74.522" fill="#F0F0F0" width="83.367" height="104.793"/>
			<rect x="242.652" y="74.522" fill="#F5F5F5" width="98.578" height="104.793"/>
			<rect x="250.91" y="82.78" fill="#FFFFFF" width="82.062" height="88.278"/>
			<g>
				<path fill="#E7E7E7" d="M301.027,136.475l15.684-7.27v-4.576l-15.684-7.283v5.475l9.531,4.105l-9.531,4.107V136.475z"/>
				<path fill="#E7E7E7" d="M290.802,115.236h-2.866l5.078,23.366h2.838L290.802,115.236z"/>
				<path fill="#E7E7E7" d="M282.854,131.034l-9.53-4.107l9.53-4.105v-5.475l-15.683,7.283v4.576l15.683,7.27V131.034z"/>
			</g>
		</g>
		<g>
			<rect x="97.375" y="130.036" fill="#F0F0F0" width="5.465" height="177.841"/>
			<path fill="#F0F0F0" d="M96.243,306.638l-0.148-0.763c0.058-0.012,1.491-0.328,2.581-2.259c1.421-2.516,2.285-7.874-1.666-19.114
				c-6.087-17.314-2.454-31.288,4.784-59.129c1.261-4.849,2.689-10.345,4.173-16.278c5.561-22.247,0.417-36.045-3.717-47.133
				c-3.209-8.606-5.743-15.405-2.499-23.279l0.716,0.295c-3.127,7.594-0.64,14.266,2.51,22.713
				c4.171,11.188,9.362,25.111,3.743,47.591c-1.485,5.938-2.914,11.435-4.175,16.286c-7.198,27.688-10.811,41.585-4.803,58.677
				c4.063,11.558,3.105,17.143,1.587,19.793C98.054,306.263,96.316,306.623,96.243,306.638z"/>
			<polygon fill="#F0F0F0" points="90.219,307.877 109.997,307.877 104.497,304.636 95.718,304.636 			"/>
			<polygon fill="#F5F5F5" points="60.982,152.684 139.233,152.684 130.622,86.925 69.593,86.925 			"/>
		</g>
		<g>
			<polygon fill="#F0F0F0" points="177.043,163.523 218.824,163.523 213.323,197.633 182.543,197.633 			"/>
			<g>
				<path fill="#E1E1E1" d="M193.828,174.622c11.392-4.123,20.118-10.314,10.355-22.841c-9.762-12.526-24.89-12.474-35.083-6.929
					c-12.992,7.068-10.387,27.511-10.387,27.511S182.437,178.746,193.828,174.622z"/>
				<path fill="#E7E7E7" d="M204.906,163.208c-8.718-5.932-14.897-12.806-4.784-20.052c10.114-7.246,22.582-3.532,30.076,3.2
					c9.553,8.583,4.04,23.645,4.04,23.645S213.622,169.139,204.906,163.208z"/>
				<path fill="#F0F0F0" d="M189.563,148.171c10.197-0.619,18.747-3.278,13.92-14.322c-4.828-11.045-17.049-14.132-26.625-12.242
					c-12.206,2.41-15.082,17.681-15.082,17.681S179.366,148.79,189.563,148.171z"/>
				<path fill="#ECECEC" d="M202.355,141.656c-8.481-2.726-15.131-6.822-8.665-15.11c6.467-8.288,17.459-8.255,25.142-4.588
					c9.792,4.675,8.92,18.2,8.92,18.2S210.838,144.382,202.355,141.656z"/>
				<path fill="#F5F5F5" d="M186.459,127.507c8.461,2.791,16.248,3.395,15.9-7.112c-0.347-10.507-9.251-16.954-17.62-18.512
					c-10.668-1.987-17.927,9.458-17.927,9.458S177.999,124.717,186.459,127.507z"/>
				<path fill="#FAFAFA" d="M207.935,122.999c-6.058,0.413-11.299-0.503-9.295-7.38c2.003-6.878,8.97-9.629,14.758-9.244
					c7.378,0.489,10.236,9.271,10.236,9.271S213.991,122.586,207.935,122.999z"/>
			</g>
		</g>
	</g>
	<ellipse id="_x3C_Path_x3E__327_" fill="#F5F5F5" cx="200.417" cy="334.137" rx="150.458" ry="8.786"/>
	<g>
		<g>
			<rect x="68.117" y="205.979" fill="#007CFF" width="263.649" height="9.461"/>
			<rect x="68.117" y="205.979" opacity="0.3" fill="#FFFFFF" width="70.56" height="9.461"/>
			<polygon fill="#007CFF" points="139.806,215.439 133.666,215.439 136.882,333.993 139.806,333.993 142.731,333.993 
				145.947,215.439 			"/>
			<polygon opacity="0.3" fill="#FFFFFF" points="136.882,333.993 139.806,333.993 139.806,217.986 133.765,219.091 			"/>
			<polygon fill="#007CFF" points="81.626,215.439 75.486,215.439 78.702,333.993 81.626,333.993 84.551,333.993 87.768,215.439 			
				"/>
			<polygon opacity="0.3" fill="#FFFFFF" points="78.702,333.993 81.626,333.993 81.626,217.986 75.585,219.091 			"/>
			<polygon fill="#007CFF" points="318.256,215.439 312.116,215.439 315.333,333.993 318.256,333.993 321.182,333.993 
				324.397,215.439 			"/>
			<polygon opacity="0.3" fill="#FFFFFF" points="315.333,333.993 318.256,333.993 318.256,217.986 312.215,219.091 			"/>
			<polygon fill="#007CFF" points="260.077,215.439 253.937,215.439 257.152,333.993 260.077,333.993 263.001,333.993 
				266.217,215.439 			"/>
			<polygon opacity="0.3" fill="#FFFFFF" points="257.152,333.993 260.077,333.993 260.077,217.986 254.035,219.091 			"/>
		</g>
		<g>
			<path fill="#1A2E35" d="M193.264,155.339h-62.728c-2.252,0-3.708,1.842-3.236,4.095l8.354,39.847
				c0.472,2.251,2.701,4.094,4.953,4.094h62.729c2.251,0,3.707-1.843,3.235-4.094l-8.354-39.847
				C197.744,157.181,195.515,155.339,193.264,155.339z"/>
			<path fill="#FFFFFF" d="M141.187,201.102c-1.473,0-3.038-1.306-3.35-2.793l-8.354-39.848c-0.128-0.614-0.025-1.165,0.29-1.554
				c0.296-0.365,0.774-0.566,1.343-0.566h62.729c1.472,0,3.037,1.305,3.35,2.793l8.354,39.847c0.128,0.614,0.024,1.166-0.29,1.555
				c-0.301,0.37-0.764,0.567-1.343,0.567H141.187z"/>
			<path opacity="0.4" fill="#007CFF" d="M188.515,197.913l-7.915-37.753c-0.201-0.956,0.528-1.853,1.504-1.853h10.179
				c0.728,0,1.355,0.51,1.504,1.221l7.915,37.754c0.201,0.955-0.529,1.853-1.504,1.853h-10.178
				C189.292,199.135,188.665,198.625,188.515,197.913z"/>
			<g>
				<polygon fill="#007CFF" points="134.708,161.582 134.365,159.944 146.935,159.944 147.279,161.582 				"/>
				<polygon fill="#ECECEC" points="140.511,165.643 140.167,164.005 162.202,164.005 162.545,165.643 				"/>
				<polygon fill="#ECECEC" points="141.671,169.705 141.328,168.067 166.023,168.067 166.367,169.705 				"/>
				<polygon fill="#ECECEC" points="142.831,173.767 142.488,172.128 162.374,172.128 162.717,173.767 				"/>
			</g>
			<g>
				<polygon fill="#007CFF" points="138.528,180.357 138.185,178.72 146.136,178.72 146.479,180.357 				"/>
				<polygon fill="#ECECEC" points="144.331,184.419 143.987,182.781 153.676,182.781 154.019,184.419 				"/>
				<polygon fill="#ECECEC" points="156.339,184.419 155.996,182.781 165.684,182.781 166.027,184.419 				"/>
				<polygon fill="#ECECEC" points="145.491,188.481 145.147,186.843 177.896,186.843 178.238,188.481 				"/>
				<polygon fill="#ECECEC" points="146.651,192.543 146.308,190.905 171.277,190.905 171.621,192.543 				"/>
			</g>
			<path fill="#1A2E35" d="M222.551,203.135h-82.54c-2.252,0-3.708,1.279-3.236,2.844h90.727
				C227.031,204.414,224.802,203.135,222.551,203.135z"/>
		</g>
		<g>
			<path opacity="0.1" fill="#007CFF" d="M112.89,145.264l-7.915-37.753c-0.2-0.956,0.529-1.853,1.505-1.853h64.102
				c0.728,0,1.355,0.509,1.504,1.222l7.915,37.753c0.201,0.956-0.529,1.854-1.504,1.854h-64.102
				C113.667,146.486,113.04,145.976,112.89,145.264z"/>
			<g>
				<g>
					<g>
						<polygon fill="#007CFF" points="135.675,106.902 122.221,106.902 121.919,105.453 135.374,105.453 						"/>
						<polygon opacity="0.4" fill="#007CFF" points="133.487,109.21 128.086,109.21 127.785,107.763 133.185,107.763 						"/>
						<polygon opacity="0.4" fill="#007CFF" points="142.474,109.21 134.153,109.21 133.852,107.763 142.172,107.763 						"/>
						<polygon opacity="0.4" fill="#007CFF" points="146.101,111.518 128.568,111.518 128.266,110.07 145.799,110.07 						"/>
						<polygon opacity="0.4" fill="#007CFF" points="143.87,113.828 129.049,113.828 128.747,112.379 143.568,112.379 						"/>
					</g>
					<polygon opacity="0.4" fill="#007CFF" points="153.702,138.359 144.267,138.359 144.569,139.807 154.003,139.807 					"/>
					<g>
						<polygon fill="#007CFF" points="141.937,135.19 128.118,135.19 127.817,133.742 141.635,133.742 						"/>
						<polygon opacity="0.4" fill="#007CFF" points="147.497,140.668 134.645,140.668 134.946,142.116 147.799,142.116 						"/>
						<polygon opacity="0.4" fill="#007CFF" points="143.598,138.359 134.164,138.359 134.465,139.807 143.899,139.807 						"/>
						<polygon opacity="0.4" fill="#007CFF" points="152.551,136.051 133.683,136.051 133.984,137.499 152.853,137.499 						"/>
					</g>
					<g>
						<polygon fill="#007CFF" points="135.204,96.132 119.976,96.132 119.674,94.685 134.902,94.685 						"/>
						<polygon opacity="0.4" fill="#007CFF" points="142.719,101.609 125.93,101.609 126.231,103.058 143.021,103.058 						"/>
						<polygon opacity="0.4" fill="#007CFF" points="139.359,99.302 125.449,99.302 125.75,100.75 139.661,100.75 						"/>
						<polygon opacity="0.4" fill="#007CFF" points="140.288,96.993 124.968,96.993 125.269,98.44 140.589,98.44 						"/>
					</g>
					<g>
						<polygon fill="#007CFF" points="135.028,117.583 124.448,117.583 124.146,116.135 134.727,116.135 						"/>
						<polygon opacity="0.4" fill="#007CFF" points="151.65,123.061 130.974,123.061 131.276,124.509 151.953,124.509 						"/>
						<polygon opacity="0.4" fill="#007CFF" points="139.059,120.752 130.493,120.752 130.794,122.2 139.36,122.2 						"/>
						<polygon opacity="0.4" fill="#007CFF" points="148.355,120.752 139.789,120.752 140.091,122.2 148.657,122.2 						"/>
						<polygon opacity="0.4" fill="#007CFF" points="148.88,118.444 130.011,118.444 130.313,119.892 149.182,119.892 						"/>
						<polygon opacity="0.4" fill="#007CFF" points="148.844,129.986 132.418,129.986 132.72,131.435 149.145,131.435 						"/>
						<polygon opacity="0.4" fill="#007CFF" points="136.713,127.678 131.937,127.678 132.239,129.125 137.014,129.125 						"/>
						<polygon opacity="0.4" fill="#007CFF" points="144.188,127.678 137.371,127.678 137.673,129.125 144.491,129.125 						"/>
						<polygon opacity="0.4" fill="#007CFF" points="150.324,125.37 131.455,125.37 131.757,126.817 150.625,126.817 						"/>
					</g>
				</g>
				<g>
					<g>
						<polygon opacity="0.4" fill="#007CFF" points="165.19,124.983 158.429,124.983 158.128,123.535 164.889,123.535 						"/>
						<polygon opacity="0.4" fill="#007CFF" points="176.442,124.983 166.024,124.983 165.722,123.535 176.14,123.535 						"/>
						<polygon opacity="0.4" fill="#007CFF" points="180.861,127.291 158.911,127.291 158.609,125.843 180.56,125.843 						"/>
						<polygon opacity="0.4" fill="#007CFF" points="177.947,129.6 159.392,129.6 159.09,128.152 177.646,128.152 						"/>
					</g>
					<g>
						<polygon opacity="0.4" fill="#007CFF" points="186.255,115.798 165.235,115.798 165.537,117.246 186.556,117.246 						"/>
						<polygon opacity="0.4" fill="#007CFF" points="182.17,113.49 164.754,113.49 165.056,114.938 182.472,114.938 						"/>
						<polygon fill="#007CFF" points="179.021,111.181 159.839,111.181 160.142,112.629 179.323,112.629 						"/>
					</g>
					<g>
						<polygon opacity="0.4" fill="#007CFF" points="187.203,138.833 161.317,138.833 161.619,140.281 187.505,140.281 						"/>
						<polygon opacity="0.4" fill="#007CFF" points="171.56,136.525 160.836,136.525 161.138,137.973 171.862,137.973 						"/>
						<polygon opacity="0.4" fill="#007CFF" points="183.199,136.525 172.475,136.525 172.776,137.973 183.5,137.973 						"/>
						<polygon opacity="0.4" fill="#007CFF" points="183.978,134.216 160.354,134.216 160.656,135.665 184.279,135.665 						"/>
						<polygon opacity="0.4" fill="#007CFF" points="183.325,145.759 162.761,145.759 163.063,147.207 183.627,147.207 						"/>
						<polygon opacity="0.4" fill="#007CFF" points="168.259,143.45 162.28,143.45 162.582,144.898 168.561,144.898 						"/>
						<polygon opacity="0.4" fill="#007CFF" points="177.619,143.45 169.083,143.45 169.385,144.898 177.921,144.898 						"/>
						<polygon opacity="0.4" fill="#007CFF" points="185.421,141.142 161.798,141.142 162.101,142.59 185.723,142.59 						"/>
					</g>
				</g>
				<g>
					<polygon opacity="0.4" fill="#007CFF" points="122.507,147.549 106.416,147.549 106.718,148.997 122.809,148.997 					"/>
					<polygon opacity="0.4" fill="#007CFF" points="117.747,145.241 105.935,145.241 106.236,146.689 118.048,146.689 					"/>
					<polygon opacity="0.4" fill="#007CFF" points="130.396,145.241 118.584,145.241 118.886,146.689 130.697,146.689 					"/>
					<polygon opacity="0.4" fill="#007CFF" points="129.076,142.932 105.454,142.932 105.755,144.38 129.378,144.38 					"/>
				</g>
			</g>
		</g>
		<g>
			<polygon fill="#007CFF" points="309.796,190.905 299.834,190.905 300.995,205.979 308.635,205.979 			"/>
			<polygon opacity="0.4" fill="#FFFFFF" points="309.796,190.905 299.834,190.905 300.995,205.979 308.635,205.979 			"/>
		</g>
		<g>
			<polygon fill="#1A2E35" points="92.657,180.438 106.98,180.438 102.091,205.978 87.768,205.978 			"/>
			<polygon fill="#007CFF" points="110.901,173.591 90.668,173.591 96.331,205.979 116.563,205.979 			"/>
			<g>
				<polygon fill="#007CFF" points="89.472,173.591 90.668,173.591 96.331,205.979 95.135,205.979 				"/>
				<polygon opacity="0.3" points="89.472,173.591 90.668,173.591 96.331,205.979 95.135,205.979 				"/>
			</g>
			<polygon fill="#FFFFFF" points="99.24,202.516 94.789,177.053 107.992,177.053 112.443,202.516 			"/>
			<polygon opacity="0.6" fill="#007CFF" points="111.817,202.516 107.366,177.053 107.992,177.053 112.443,202.516 			"/>
		</g>
	</g>
	<g>
		<g>
			
				<ellipse transform="matrix(0.9076 -0.4198 0.4198 0.9076 -36.1906 100.5534)" fill="#1A2E35" cx="210.366" cy="132.503" rx="0.811" ry="1.241"/>
			<path fill="#FF5551" d="M211.352,133.415c0,0,0.246,4.242-0.511,6.693c1.575,0.517,3.229-0.817,3.229-0.817L211.352,133.415z"/>
			<path fill="#1A2E35" d="M211.179,127.065c-0.063,0.05-0.143,0.083-0.23,0.088c-1.773,0.099-2.523,1.338-2.556,1.391
				c-0.112,0.191-0.357,0.256-0.548,0.145c-0.193-0.112-0.259-0.356-0.148-0.548c0.039-0.068,0.984-1.668,3.207-1.792
				c0.222-0.012,0.411,0.157,0.424,0.379C211.335,126.863,211.275,126.986,211.179,127.065z"/>
			<path fill="#FF8B7B" d="M233.957,131.226c2.398,8.306,5.071,14.76,8.344,18.424c0,0,0.06,6.529-11.064,9.634
				c-12.229,3.414-7.538-4.44-7.538-4.44c6.229-3.458,5.615-8.672,0.945-10.658L233.957,131.226z"/>
			<path fill="#1A2E35" d="M244.894,148.062c-0.221-3.039-0.505-6.5-2.379-6.586c-2.063-0.097-14.011,5.242-16.564,9.006
				s2.433,7.449,2.433,7.449L244.894,148.062z"/>
			<g>
				<path fill="#FF8B7B" d="M220.429,195.052l-10.319-0.34l0.183,8.644c0,0,9.004-0.927,9.401-3.293L220.429,195.052z"/>
				<polygon fill="#FF8B7B" points="204.654,198.954 203.571,203.375 210.292,203.356 210.109,194.712 				"/>
				<g>
					<path fill="#007CFF" d="M261.854,159.125l-0.214,2.218c-0.07,0.713-0.17,1.416-0.262,2.121
						c-0.18,1.409-0.401,2.807-0.644,4.206c-0.467,2.8-1.073,5.584-1.765,8.388c-0.728,2.792-1.527,5.608-2.581,8.437
						c-0.535,1.42-1.093,2.839-1.764,4.285c-0.666,1.447-1.389,2.898-2.329,4.384c-0.216,0.364-0.479,0.745-0.731,1.118
						c-0.248,0.373-0.508,0.747-0.809,1.131c-0.299,0.383-0.562,0.75-0.914,1.142l-0.507,0.573
						c-0.163,0.187-0.332,0.376-0.574,0.603c-1.799,1.771-3.644,2.839-5.374,3.613c-3.461,1.521-6.602,2.102-9.646,2.442
						c-1.516,0.181-3.012,0.25-4.484,0.282c-1.473,0.042-2.928,0.01-4.37-0.072c-1.441-0.064-2.872-0.205-4.295-0.371
						c-1.44-0.178-2.798-0.396-4.31-0.701l0.249-8.107c4.981-0.99,10.198-2.007,14.668-3.497c1.12-0.361,2.185-0.777,3.151-1.212
						c0.968-0.42,1.844-0.887,2.5-1.352c0.652-0.465,1.076-0.914,1.129-1.102l0.229-0.357c0.091-0.115,0.189-0.318,0.29-0.478
						c0.1-0.157,0.199-0.35,0.302-0.553c0.102-0.198,0.207-0.382,0.306-0.612c0.813-1.724,1.606-3.89,2.243-6.156
						c0.633-2.282,1.236-4.667,1.719-7.12c0.525-2.439,0.944-4.942,1.372-7.449l0.589-3.772l0.531-3.672L261.854,159.125z"/>
					<path opacity="0.2" d="M261.854,159.125l-0.214,2.218c-0.07,0.713-0.17,1.416-0.262,2.121c-0.18,1.409-0.401,2.807-0.644,4.206
						c-0.467,2.8-1.073,5.584-1.765,8.388c-0.728,2.792-1.527,5.608-2.581,8.437c-0.535,1.42-1.093,2.839-1.764,4.285
						c-0.666,1.447-1.389,2.898-2.329,4.384c-0.216,0.364-0.479,0.745-0.731,1.118c-0.248,0.373-0.508,0.747-0.809,1.131
						c-0.299,0.383-0.562,0.75-0.914,1.142l-0.507,0.573c-0.163,0.187-0.332,0.376-0.574,0.603
						c-1.799,1.771-3.644,2.839-5.374,3.613c-3.461,1.521-6.602,2.102-9.646,2.442c-1.516,0.181-3.012,0.25-4.484,0.282
						c-1.473,0.042-2.928,0.01-4.37-0.072c-1.441-0.064-2.872-0.205-4.295-0.371c-1.44-0.178-2.798-0.396-4.31-0.701l0.249-8.107
						c4.981-0.99,10.198-2.007,14.668-3.497c1.12-0.361,2.185-0.777,3.151-1.212c0.968-0.42,1.844-0.887,2.5-1.352
						c0.652-0.465,1.076-0.914,1.129-1.102l0.229-0.357c0.091-0.115,0.189-0.318,0.29-0.478c0.1-0.157,0.199-0.35,0.302-0.553
						c0.102-0.198,0.207-0.382,0.306-0.612c0.813-1.724,1.606-3.89,2.243-6.156c0.633-2.282,1.236-4.667,1.719-7.12
						c0.525-2.439,0.944-4.942,1.372-7.449l0.589-3.772l0.531-3.672L261.854,159.125z"/>
				</g>
			</g>
			<g>
				<path fill="#007CFF" d="M216.033,169.406c2.499,10.384,5.726,27.793,6.465,50.554h45.438c0.251-5.617-0.697-37.219-5.271-60.107
					c-1.738-8.703-10.275-14.333-18.934-12.387c-0.072,0.016-0.146,0.033-0.218,0.049c-5.667,1.291-13.813,3.374-18.604,5.194
					c-0.065,0.025-0.13,0.05-0.194,0.074C218.057,155.34,214.364,162.473,216.033,169.406z"/>
			</g>
			<path opacity="0.2" d="M218.986,183.953c0.36,2.178,0.722,4.487,1.056,6.91c3.718-3.881,4.897-15.769,4.897-15.769
				L218.986,183.953z"/>
			<g>
				<path fill="#FF8B7B" d="M181.242,195.611l-10.28-0.963l-0.34,8.639c0,0,5.294,1.741,9.583-2.719L181.242,195.611z"/>
				<polygon fill="#FF8B7B" points="166.027,197.199 162.717,203.135 170.622,203.287 170.962,194.648 				"/>
				<path fill="#007CFF" d="M233.082,165.455c-0.717,1.364-1.351,2.562-2.064,3.806c-0.697,1.228-1.401,2.451-2.136,3.656
					c-1.457,2.417-2.976,4.797-4.57,7.147c-3.191,4.699-6.619,9.287-10.64,13.69c-1.999,2.212-4.191,4.356-6.744,6.412
					c-0.305,0.258-0.661,0.511-0.991,0.764c-0.346,0.256-0.627,0.489-1.13,0.802c-0.454,0.302-0.91,0.574-1.365,0.814
					c-0.459,0.26-0.91,0.476-1.37,0.68c-1.836,0.803-3.624,1.297-5.341,1.62c-3.448,0.608-6.652,0.561-9.717,0.221
					c-1.532-0.205-3.03-0.438-4.499-0.802c-0.735-0.169-1.464-0.362-2.188-0.584c-0.745-0.213-1.401-0.457-2.236-0.748l1.285-8.01
					c4.872-0.662,10.14-1.509,13.772-3.148c0.906-0.388,1.687-0.84,2.261-1.302c0.288-0.225,0.552-0.433,0.732-0.647
					c0.06-0.069,0.295-0.28,0.48-0.449c0.192-0.181,0.384-0.334,0.579-0.537c1.557-1.51,3.126-3.317,4.662-5.237
					c3.059-3.865,5.956-8.159,8.745-12.543c1.396-2.195,2.76-4.43,4.114-6.67l2.006-3.374l1.933-3.309L233.082,165.455z"/>
			</g>
			<polygon fill="#FF8B7B" points="220.612,327.436 212.117,327.436 207.848,307.763 216.343,307.763 			"/>
			<path fill="#1A2E35" d="M211.646,325.614h9.544c0.348,0,0.647,0.241,0.723,0.581l1.678,7.551c0.175,0.783-0.44,1.525-1.244,1.511
				c-3.331-0.058-4.95-0.253-9.146-0.253c-2.582,0-5.896,0.269-9.462,0.269c-3.488,0-4.031-3.525-2.571-3.846
				c6.546-1.432,7.005-3.406,9.101-5.29C210.644,325.798,211.137,325.614,211.646,325.614z"/>
			<g opacity="0.2">
				<polygon points="216.346,307.768 207.847,307.768 210.216,318.662 218.551,317.908 				"/>
			</g>
			<path fill="#FF8B7B" d="M231.235,121.25c3.063,7.854,5.256,12.296,3.213,18c-3.075,8.582-14.121,9.444-19.47,2.664
				c-4.815-6.104-9.017-17.924-2.946-24.421C218.013,111.091,228.173,113.396,231.235,121.25z"/>
			<path fill="#1A2E35" d="M216.317,133.015c-1.276,1.71-2.248,3.002-2.248,3.002s-2.614-6.495-1.614-9.473
				c-1.272-2.522-3.842,1.194-4.812-3.718c-0.969-4.913,3.224-10.189,4.812-11.282c0.223,0.365,0.212,1.763,0.212,1.763
				s6.278-5.595,15.215-4.81c-0.613,0.614-0.853,2.286-0.853,2.286s9.212,1.581,11.306,6.767c-1.321-0.637-2.321-0.819-2.321-0.819
				s2.64,3.275,1.864,8.325c-0.773,5.049-1.137,10.626-1.046,12.828c0.092,2.202-5.959,6.414-9.644,1.911
				S216.317,133.015,216.317,133.015z"/>
			<path fill="#FF8B7B" d="M220.162,131.323c0.532,1.922,0.264,3.993-0.391,5.512c-0.987,2.285-3.009,1.764-4.016-0.263
				c-0.906-1.825-1.485-5.212,0.12-6.836C217.458,128.137,219.555,129.125,220.162,131.323z"/>
			<g>
				<path fill="#007CFF" d="M236.117,219.96c0,0-39.452,14.304-40.615,33.234c-2.142,34.864,12.12,62.469,12.12,62.469l13.067-1.397
					c0,0-2.324-11.221-4.061-42.808c-2.181-39.689,65.18,0.931,51.308-51.498H236.117z"/>
				<path opacity="0.5" fill="#FFFFFF" d="M236.117,219.96c0,0-39.452,14.304-40.615,33.234
					c-2.142,34.864,12.12,62.469,12.12,62.469l13.067-1.397c0,0-2.324-11.221-4.061-42.808c-2.181-39.689,65.18,0.931,51.308-51.498
					H236.117z"/>
			</g>
			<path fill="#007CFF" d="M204.001,310.852c-0.062,0.006,2.079,5.801,2.079,5.801l16.317-1.597l-0.818-5.278L204.001,310.852z"/>
			<g>
				<polygon fill="#FF8B7B" points="183.912,328.398 175.417,328.398 172.935,308.727 181.43,308.727 				"/>
				<path fill="#1A2E35" d="M175.35,325.611l9.277-0.013c0.347,0,0.648,0.241,0.724,0.58l1.688,7.549
					c0.174,0.781-0.418,1.524-1.22,1.512c-3.347-0.052-8.183-0.241-12.389-0.235c-4.918,0.007-5.861,0.276-11.628,0.284
					c-3.488,0.005-4.46-3.52-3.001-3.841c6.644-1.463,8.765-1.622,14.503-5.171C173.927,325.891,174.616,325.612,175.35,325.611z"/>
				<polygon opacity="0.2" points="172.937,308.73 174.288,319.446 182.713,318.872 181.436,308.73 				"/>
			</g>
			<g>
				<path fill="#007CFF" d="M222.498,219.96c0,0-64.647,5.734-63.949,38.199c0.726,33.771,13.34,56.547,13.34,56.547h12.623
					c0,0-2.392-17.518-1.969-50.765c0.127-9.96,20.253-13.251,39.909-14.412c16.979-1.005,32.871-10.683,39.467-26.359l1.351-3.21
					H222.498z"/>
				<path opacity="0.5" fill="#FFFFFF" d="M222.498,219.96c0,0-64.647,5.734-63.949,38.199c0.726,33.771,13.34,56.547,13.34,56.547
					h12.623c0,0-2.392-17.518-1.969-50.765c0.127-9.96,20.253-13.251,39.909-14.412c16.979-1.005,32.871-10.683,39.467-26.359
					l1.351-3.21H222.498z"/>
			</g>
			<path fill="#007CFF" d="M168.937,311.312c-0.058,0.005,2.164,5.837,2.164,5.837l15.236-1.09l-0.889-5.282L168.937,311.312z"/>
		</g>
		<g>
			<g>
				<path fill="#1A2E35" d="M239.462,183.47l-8.199,31.607c-2.091,8.063-3.153,16.405-3.153,24.79v14.692
					c0,3.709,2.736,6.717,6.108,6.717h42.05c3.372,0,6.106-3.008,6.106-6.717v-14.692c0-8.385,1.061-16.728,3.152-24.79
					l7.245-27.921c1.112-4.291-1.817-8.56-5.875-8.56h-41.561C242.608,178.596,240.211,180.585,239.462,183.47z"/>
				<path fill="#1A2E35" d="M187.17,245.974l1.376,7.836c0.724,4.124,4.351,7.467,8.1,7.467h46.739c3.75,0,6.202-3.343,5.478-7.467
					l-1.376-7.836c-0.825-4.691-4.95-8.496-9.217-8.496h-44.868C189.136,237.478,186.346,241.282,187.17,245.974z"/>
			</g>
			<g>
				<polygon fill="#007CFF" points="247.884,269.147 223.4,269.147 221.011,261.276 250.275,261.276 				"/>
				<g>
					<rect x="231.268" y="269.147" fill="#007CFF" width="8.749" height="58.521"/>
					<polygon opacity="0.7" fill="#FFFFFF" points="240.017,327.668 231.268,327.668 231.268,270.553 240.017,271.443 					"/>
					<polygon opacity="0.7" fill="#FFFFFF" points="237.883,327.668 235.793,327.668 235.793,271.014 237.883,271.227 					"/>
				</g>
				<path fill="#007CFF" d="M255.756,336.71h-40.228c-1.076,0-1.525-1.374-0.658-2.011l6.386-4.681
					c3.064-2.247,6.767-3.459,10.566-3.459h7.641c3.801,0,7.502,1.212,10.565,3.459l6.388,4.681
					C257.283,335.336,256.832,336.71,255.756,336.71z"/>
			</g>
		</g>
	</g>
</g>
</svg>
